CourierPrime-Bold.ufo
<glyph name="exclam" format="1">
  <advance width="1228"/>
  <unicode hex="0021"/>
  <outline>
    <contour>
      <point x="489" y="1209" type="line" smooth="yes"/>
      <point x="459" y="1209"/>
      <point x="444" y="1194"/>
      <point x="448" y="1159" type="curve" smooth="yes"/>
      <point x="521" y="582" type="line" smooth="yes"/>
      <point x="527" y="531"/>
      <point x="562" y="504"/>
      <point x="614" y="504" type="curve" smooth="yes"/>
      <point x="666" y="504"/>
      <point x="701" y="531"/>
      <point x="707" y="582" type="curve" smooth="yes"/>
      <point x="780" y="1159" type="line" smooth="yes"/>
      <point x="784" y="1194"/>
      <point x="769" y="1209"/>
      <point x="739" y="1209" type="curve" smooth="yes"/>
    </contour>
    <contour>
      <point x="425" y="63"/>
      <point x="509" y="-22"/>
      <point x="614" y="-22" type="curve" smooth="yes"/>
      <point x="719" y="-22"/>
      <point x="803" y="63"/>
      <point x="803" y="167" type="curve" smooth="yes"/>
      <point x="803" y="272"/>
      <point x="719" y="357"/>
      <point x="614" y="357" type="curve" smooth="yes"/>
      <point x="510" y="357"/>
      <point x="425" y="272"/>
      <point x="425" y="167" type="curve" smooth="yes"/>
    </contour>
  </outline>
</glyph>
<glyph name="quotedbl" format="1">
  <advance width="1228"/>
  <unicode hex="0022"/>
  <outline>
    <contour>
      <point x="219" y="1269" type="line" smooth="yes"/>
      <point x="189" y="1269"/>
      <point x="173" y="1254"/>
      <point x="178" y="1219" type="curve" smooth="yes"/>
      <point x="251" y="739" type="line" smooth="yes"/>
      <point x="257" y="698"/>
      <point x="279" y="671"/>
      <point x="344" y="671" type="curve" smooth="yes"/>
      <point x="409" y="671"/>
      <point x="431" y="698"/>
      <point x="437" y="739" type="curve" smooth="yes"/>
      <point x="510" y="1219" type="line" smooth="yes"/>
      <point x="515" y="1254"/>
      <point x="499" y="1269"/>
      <point x="469" y="1269" type="curve" smooth="yes"/>
    </contour>
    <contour>
      <point x="759" y="1269" type="line" smooth="yes"/>
      <point x="729" y="1269"/>
      <point x="713" y="1254"/>
      <point x="718" y="1219" type="curve" smooth="yes"/>
      <point x="791" y="739" type="line" smooth="yes"/>
      <point x="797" y="698"/>
      <point x="819" y="671"/>
      <point x="884" y="671" type="curve" smooth="yes"/>
      <point x="949" y="671"/>
      <point x="971" y="698"/>
      <point x="977" y="739" type="curve" smooth="yes"/>
      <point x="1050" y="1219" type="line" smooth="yes"/>
      <point x="1055" y="1254"/>
      <point x="1039" y="1269"/>
      <point x="1009" y="1269" type="curve" smooth="yes"/>
    </contour>
  </outline>
</glyph>
<glyph name="parenright" format="1">
  <advance width="1228"/>
  <unicode hex="0029"/>
  <outline>
    <contour>
      <point x="417" y="1398"/>
      <point x="371" y="1366"/>
      <point x="337" y="1315" type="curve" smooth="yes"/>
      <point x="301" y="1261"/>
      <point x="287" y="1201"/>
      <point x="319" y="1181" type="curve" smooth="yes"/>
      <point x="577" y="1019"/>
      <point x="723" y="812"/>
      <point x="723" y="519" type="curve" smooth="yes"/>
      <point x="723" y="226"/>
      <point x="577" y="19"/>
      <point x="319" y="-143" type="curve" smooth="yes"/>
      <point x="287" y="-163"/>
      <point x="301" y="-223"/>
      <point x="337" y="-277" type="curve" smooth="yes"/>
      <point x="371" y="-328"/>
      <point x="417" y="-360"/>
      <point x="457" y="-337" type="curve" smooth="yes"/>
      <point x="711" y="-193"/>
      <point x="971" y="86"/>
      <point x="971" y="519" type="curve" smooth="yes"/>
      <point x="971" y="952"/>
      <point x="711" y="1231"/>
      <point x="457" y="1375" type="curve" smooth="yes"/>
    </contour>
  </outline>
</glyph>
<glyph name="asterisk" format="1">
  <advance width="1228"/>
  <unicode hex="002A"/>
  <outline>
    <contour>
      <point x="706" y="1209"/>
      <point x="747" y="1143"/>
      <point x="730" y="1069" type="curve" smooth="yes"/>
      <point x="683" y="865" type="line"/>
      <point x="862" y="973" type="line" smooth="yes"/>
      <point x="927" y="1012"/>
      <point x="1002" y="994"/>
      <point x="1031" y="906" type="curve" smooth="yes"/>
      <point x="1059" y="819"/>
      <point x="1010" y="760"/>
      <point x="934" y="753" type="curve" smooth="yes"/>
      <point x="726" y="734" type="line"/>
      <point x="884" y="597" type="line" smooth="yes"/>
      <point x="941" y="547"/>
      <point x="947" y="470"/>
      <point x="873" y="415" type="curve" smooth="yes"/>
      <point x="799" y="361"/>
      <point x="727" y="390"/>
      <point x="697" y="460" type="curve" smooth="yes"/>
      <point x="614" y="653" type="line"/>
      <point x="531" y="460" type="line" smooth="yes"/>
      <point x="501" y="390"/>
      <point x="429" y="361"/>
      <point x="355" y="415" type="curve" smooth="yes"/>
      <point x="281" y="470"/>
      <point x="287" y="547"/>
      <point x="344" y="597" type="curve" smooth="yes"/>
      <point x="502" y="734" type="line"/>
      <point x="294" y="753" type="line" smooth="yes"/>
      <point x="218" y="760"/>
      <point x="169" y="819"/>
      <point x="197" y="906" type="curve" smooth="yes"/>
      <point x="226" y="994"/>
      <point x="301" y="1012"/>
      <point x="366" y="973" type="curve" smooth="yes"/>
      <point x="545" y="865" type="line"/>
      <point x="498" y="1069" type="line" smooth="yes"/>
      <point x="481" y="1143"/>
      <point x="522" y="1209"/>
      <point x="614" y="1209" type="curve" smooth="yes"/>
    </contour>
  </outline>
</glyph>
<glyph name="plus" format="1">
  <advance width="1228"/>
  <unicode hex="002B"/>
  <outline>
    <contour>
      <point x="501" y="201" type="line" smooth="yes"/>
      <point x="501" y="156"/>
      <point x="519" y="138"/>
      <point x="614" y="138" type="curve" smooth="yes"/>
      <point x="709" y="138"/>
      <point x="726" y="156"/>
      <point x="726" y="201" type="curve" smooth="yes"/>
      <point x="726" y="470" type="line"/>
      <point x="995" y="470" type="line" smooth="yes"/>
      <point x="1040" y="470"/>
      <point x="1058" y="487"/>
      <point x="1058" y="582" type="curve" smooth="yes"/>
      <point x="1058" y="677"/>
      <point x="1040" y="695"/>
      <point x="995" y="695" type="curve" smooth="yes"/>
      <point x="726" y="695" type="line"/>
      <point x="726" y="963" type="line" smooth="yes"/>
      <point x="726" y="1008"/>
      <point x="709" y="1026"/>
      <point x="614" y="1026" type="curve" smooth="yes"/>
      <point x="519" y="1026"/>
      <point x="501" y="1008"/>
      <point x="501" y="963" type="curve" smooth="yes"/>
      <point x="501" y="695" type="line"/>
      <point x="233" y="695" type="line" smooth="yes"/>
      <point x="188" y="695"/>
      <point x="170" y="677"/>
      <point x="170" y="582" type="curve" smooth="yes"/>
      <point x="170" y="487"/>
      <point x="188" y="470"/>
      <point x="233" y="470" type="curve" smooth="yes"/>
      <point x="501" y="470" type="line"/>
    </contour>
  </outline>
</glyph>
<glyph name="comma" format="1">
  <advance width="1228"/>
  <unicode hex="002C"/>
  <outline>
    <contour>
      <point x="500" y="354" type="line" smooth="yes"/>
      <point x="472" y="354"/>
      <point x="453" y="340"/>
      <point x="448" y="314" type="curve" smooth="yes"/>
      <point x="354" y="-228" type="line" smooth="yes"/>
      <point x="347" y="-271"/>
      <point x="378" y="-294"/>
      <point x="434" y="-294" type="curve" smooth="yes"/>
      <point x="480" y="-294"/>
      <point x="506" y="-281"/>
      <point x="520" y="-253" type="curve" smooth="yes"/>
      <point x="787" y="291" type="line" smooth="yes"/>
      <point x="804" y="326"/>
      <point x="792" y="354"/>
      <point x="759" y="354" type="curve" smooth="yes"/>
    </contour>
  </outline>
</glyph>
<glyph name="period" format="1">
  <advance width="1228"/>
  <unicode hex="002E"/>
  <outline>
    <contour>
      <point x="499" y="394"/>
      <point x="406" y="301"/>
      <point x="406" y="186" type="curve" smooth="yes"/>
      <point x="406" y="71"/>
      <point x="499" y="-22"/>
      <point x="614" y="-22" type="curve" smooth="yes"/>
      <point x="729" y="-22"/>
      <point x="822" y="71"/>
      <point x="822" y="186" type="curve" smooth="yes"/>
      <point x="822" y="301"/>
      <point x="729" y="394"/>
      <point x="614" y="394" type="curve" smooth="yes"/>
    </contour>
  </outline>
</glyph>
<glyph name="slash" format="1">
  <advance width="1228"/>
  <unicode hex="002F"/>
  <outline>
    <contour>
      <point x="1057" y="1221" type="line" smooth="yes"/>
      <point x="1088" y="1292"/>
      <point x="988" y="1339"/>
      <point x="911" y="1339" type="curve" smooth="yes"/>
      <point x="875" y="1339"/>
      <point x="843" y="1328"/>
      <point x="833" y="1305" type="curve" smooth="yes"/>
      <point x="171" y="-183" type="line" smooth="yes"/>
      <point x="140" y="-252"/>
      <point x="242" y="-300"/>
      <point x="319" y="-300" type="curve" smooth="yes"/>
      <point x="354" y="-300"/>
      <point x="385" y="-290"/>
      <point x="395" y="-267" type="curve" smooth="yes"/>
    </contour>
  </outline>
</glyph>
<glyph name="one" format="1">
  <advance width="1228"/>
  <unicode hex="0031"/>
  <outline>
    <contour>
      <point x="273" y="205" type="line" smooth="yes"/>
      <point x="228" y="205"/>
      <point x="210" y="187"/>
      <point x="210" y="102" type="curve" smooth="yes"/>
      <point x="210" y="17"/>
      <point x="228" y="0"/>
      <point x="273" y="0" type="curve" smooth="yes"/>
      <point x="1005" y="0" type="line" smooth="yes"/>
      <point x="1050" y="0"/>
      <point x="1068" y="17"/>
      <point x="1068" y="102" type="curve" smooth="yes"/>
      <point x="1068" y="187"/>
      <point x="1050" y="205"/>
      <point x="1005" y="205" type="curve" smooth="yes"/>
      <point x="769" y="205" type="line"/>
      <point x="769" y="1128" type="line" smooth="yes"/>
      <point x="769" y="1198"/>
      <point x="724" y="1227"/>
      <point x="663" y="1205" type="curve" smooth="yes"/>
      <point x="263" y="1059" type="line" smooth="yes"/>
      <point x="221" y="1044"/>
      <point x="209" y="1019"/>
      <point x="238" y="940" type="curve" smooth="yes"/>
      <point x="267" y="860"/>
      <point x="291" y="851"/>
      <point x="333" y="866" type="curve" smooth="yes"/>
      <point x="519" y="933" type="line"/>
      <point x="519" y="205" type="line"/>
    </contour>
  </outline>
</glyph>
<glyph name="three" format="1">
  <advance width="1228"/>
  <unicode hex="0033"/>
  <outline>
    <contour>
      <point x="321" y="2"/>
      <point x="441" y="-22"/>
      <point x="564" y="-22" type="curve" smooth="yes"/>
      <point x="862" y="-22"/>
      <point x="1046" y="102"/>
      <point x="1046" y="356" type="curve" smooth="yes"/>
      <point x="1046" y="487"/>
      <point x="977" y="575"/>
      <point x="870" y="624" type="curve"/>
      <point x="958" y="670"/>
      <point x="1011" y="749"/>
      <point x="1011" y="869" type="curve" smooth="yes"/>
      <point x="1011" y="1090"/>
      <point x="858" y="1209"/>
      <point x="590" y="1209" type="curve" smooth="yes"/>
      <point x="477" y="1209"/>
      <point x="360" y="1183"/>
      <point x="257" y="1141" type="curve" smooth="yes"/>
      <point x="224" y="1128"/>
      <point x="208" y="1107"/>
      <point x="208" y="1077" type="curve" smooth="yes"/>
      <point x="208" y="890" type="line" smooth="yes"/>
      <point x="208" y="845"/>
      <point x="245" y="827"/>
      <point x="330" y="827" type="curve" smooth="yes"/>
      <point x="415" y="827"/>
      <point x="438" y="845"/>
      <point x="438" y="890" type="curve" smooth="yes"/>
      <point x="438" y="969" type="line"/>
      <point x="482" y="982"/>
      <point x="532" y="992"/>
      <point x="591" y="992" type="curve" smooth="yes"/>
      <point x="701" y="992"/>
      <point x="757" y="945"/>
      <point x="757" y="854" type="curve" smooth="yes"/>
      <point x="757" y="760"/>
      <point x="699" y="718"/>
      <point x="581" y="718" type="curve" smooth="yes"/>
      <point x="505" y="718" type="line" smooth="yes"/>
      <point x="460" y="718"/>
      <point x="442" y="695"/>
      <point x="442" y="610" type="curve" smooth="yes"/>
      <point x="442" y="525"/>
      <point x="460" y="503"/>
      <point x="505" y="503" type="curve" smooth="yes"/>
      <point x="608" y="503" type="line" smooth="yes"/>
      <point x="719" y="503"/>
      <point x="778" y="454"/>
      <point x="778" y="358" type="curve" smooth="yes"/>
      <point x="778" y="261"/>
      <point x="707" y="205"/>
      <point x="564" y="205" type="curve" smooth="yes"/>
      <point x="476" y="205"/>
      <point x="381" y="230"/>
      <point x="296" y="270" type="curve" smooth="yes"/>
      <point x="265" y="285"/>
      <point x="230" y="268"/>
      <point x="200" y="191" type="curve" smooth="yes"/>
      <point x="170" y="114"/>
      <point x="183" y="75"/>
      <point x="221" y="55" type="curve"/>
    </contour>
  </outline>
</glyph>
<glyph name="four" format="1">
  <advance width="1228"/>
  <unicode hex="0034"/>
  <outline>
    <contour>
      <point x="688" y="1209"/>
      <point x="644" y="1184"/>
      <point x="609" y="1140" type="curve" smooth="yes"/>
      <point x="139" y="561" type="line" smooth="yes"/>
      <point x="127" y="546"/>
      <point x="120" y="520"/>
      <point x="120" y="472" type="curve" smooth="yes"/>
      <point x="120" y="387"/>
      <point x="138" y="370"/>
      <point x="183" y="370" type="curve" smooth="yes"/>
      <point x="613" y="370" type="line"/>
      <point x="613" y="205" type="line"/>
      <point x="443" y="205" type="line" smooth="yes"/>
      <point x="398" y="205"/>
      <point x="380" y="187"/>
      <point x="380" y="102" type="curve" smooth="yes"/>
      <point x="380" y="17"/>
      <point x="398" y="0"/>
      <point x="443" y="0" type="curve" smooth="yes"/>
      <point x="1005" y="0" type="line" smooth="yes"/>
      <point x="1050" y="0"/>
      <point x="1068" y="17"/>
      <point x="1068" y="102" type="curve" smooth="yes"/>
      <point x="1068" y="187"/>
      <point x="1050" y="205"/>
      <point x="1005" y="205" type="curve" smooth="yes"/>
      <point x="863" y="205" type="line"/>
      <point x="863" y="370" type="line"/>
      <point x="1035" y="370" type="line" smooth="yes"/>
      <point x="1080" y="370"/>
      <point x="1098" y="387"/>
      <point x="1098" y="472" type="curve" smooth="yes"/>
      <point x="1098" y="557"/>
      <point x="1080" y="575"/>
      <point x="1035" y="575" type="curve" smooth="yes"/>
      <point x="863" y="575" type="line"/>
      <point x="863" y="1119" type="line" smooth="yes"/>
      <point x="863" y="1173"/>
      <point x="840" y="1209"/>
      <point x="758" y="1209" type="curve" smooth="yes"/>
    </contour>
    <contour>
      <point x="622" y="575" type="line"/>
      <point x="403" y="575" type="line"/>
      <point x="638" y="867" type="line"/>
    </contour>
  </outline>
</glyph>
<glyph name="colon" format="1">
  <advance width="1228"/>
  <unicode hex="003A"/>
  <outline>
    <contour>
      <point x="506" y="946"/>
      <point x="419" y="859"/>
      <point x="419" y="751" type="curve" smooth="yes"/>
      <point x="419" y="643"/>
      <point x="506" y="556"/>
      <point x="614" y="556" type="curve" smooth="yes"/>
      <point x="722" y="556"/>
      <point x="809" y="643"/>
      <point x="809" y="751" type="curve" smooth="yes"/>
      <point x="809" y="859"/>
      <point x="722" y="946"/>
      <point x="614" y="946" type="curve" smooth="yes"/>
    </contour>
    <contour>
      <point x="506" y="368"/>
      <point x="419" y="281"/>
      <point x="419" y="173" type="curve" smooth="yes"/>
      <point x="419" y="65"/>
      <point x="506" y="-22"/>
      <point x="614" y="-22" type="curve" smooth="yes"/>
      <point x="722" y="-22"/>
      <point x="809" y="65"/>
      <point x="809" y="173" type="curve" smooth="yes"/>
      <point x="809" y="281"/>
      <point x="722" y="368"/>
      <point x="614" y="368" type="curve" smooth="yes"/>
    </contour>
  </outline>
</glyph>
<glyph name="semicolon" format="1">
  <advance width="1228"/>
  <unicode hex="003B"/>
  <outline>
    <contour>
      <point x="419" y="643"/>
      <point x="506" y="556"/>
      <point x="614" y="556" type="curve" smooth="yes"/>
      <point x="722" y="556"/>
      <point x="809" y="643"/>
      <point x="809" y="751" type="curve" smooth="yes"/>
      <point x="809" y="859"/>
      <point x="722" y="946"/>
      <point x="614" y="946" type="curve" smooth="yes"/>
      <point x="506" y="946"/>
      <point x="419" y="859"/>
      <point x="419" y="751" type="curve" smooth="yes"/>
    </contour>
    <contour>
      <point x="787" y="291" type="line" smooth="yes"/>
      <point x="804" y="326"/>
      <point x="792" y="354"/>
      <point x="759" y="354" type="curve" smooth="yes"/>
      <point x="500" y="354" type="line" smooth="yes"/>
      <point x="472" y="354"/>
      <point x="453" y="340"/>
      <point x="448" y="314" type="curve" smooth="yes"/>
      <point x="354" y="-228" type="line" smooth="yes"/>
      <point x="347" y="-271"/>
      <point x="378" y="-294"/>
      <point x="434" y="-294" type="curve" smooth="yes"/>
      <point x="480" y="-294"/>
      <point x="506" y="-281"/>
      <point x="520" y="-253" type="curve" smooth="yes"/>
    </contour>
  </outline>
</glyph>
<glyph name="at" format="1">
  <advance width="1228"/>
  <unicode hex="0040"/>
  <outline>
    <contour>
      <point x="299" y="1078"/>
      <point x="33" y="777"/>
      <point x="33" y="389" type="curve" smooth="yes"/>
      <point x="33" y="58"/>
      <point x="232" y="-153"/>
      <point x="562" y="-153" type="curve" smooth="yes"/>
      <point x="672" y="-153"/>
      <point x="788" y="-132"/>
      <point x="858" y="-101" type="curve" smooth="yes"/>
      <point x="879" y="-92"/>
      <point x="890" y="-75"/>
      <point x="875" y="-17" type="curve" smooth="yes"/>
      <point x="860" y="41"/>
      <point x="841" y="48"/>
      <point x="818" y="40" type="curve" smooth="yes"/>
      <point x="751" y="18"/>
      <point x="666" y="0"/>
      <point x="560" y="0" type="curve" smooth="yes"/>
      <point x="326" y="0"/>
      <point x="196" y="158"/>
      <point x="196" y="389" type="curve" smooth="yes"/>
      <point x="196" y="685"/>
      <point x="383" y="925"/>
      <point x="655" y="925" type="curve" smooth="yes"/>
      <point x="889" y="925"/>
      <point x="1030" y="767"/>
      <point x="1030" y="531" type="curve" smooth="yes"/>
      <point x="1030" y="376"/>
      <point x="972" y="278"/>
      <point x="897" y="278" type="curve" smooth="yes"/>
      <point x="855" y="278"/>
      <point x="826" y="318"/>
      <point x="848" y="404" type="curve" smooth="yes"/>
      <point x="920" y="716" type="line" smooth="yes"/>
      <point x="925" y="734"/>
      <point x="900" y="748"/>
      <point x="868" y="757" type="curve" smooth="yes"/>
      <point x="838" y="765"/>
      <point x="805" y="765"/>
      <point x="799" y="754" type="curve" smooth="yes"/>
      <point x="766" y="685" type="line"/>
      <point x="745" y="751"/>
      <point x="708" y="800"/>
      <point x="638" y="800" type="curve" smooth="yes"/>
      <point x="466" y="800"/>
      <point x="321" y="564"/>
      <point x="321" y="357" type="curve" smooth="yes"/>
      <point x="321" y="202"/>
      <point x="398" y="117"/>
      <point x="507" y="117" type="curve" smooth="yes"/>
      <point x="594" y="117"/>
      <point x="658" y="175"/>
      <point x="704" y="261" type="curve"/>
      <point x="726" y="180"/>
      <point x="786" y="122"/>
      <point x="881" y="122" type="curve" smooth="yes"/>
      <point x="1055" y="122"/>
      <point x="1187" y="270"/>
      <point x="1187" y="531" type="curve" smooth="yes"/>
      <point x="1187" y="848"/>
      <point x="980" y="1078"/>
      <point x="660" y="1078" type="curve" smooth="yes"/>
    </contour>
    <contour>
      <point x="691" y="643"/>
      <point x="710" y="603"/>
      <point x="710" y="541" type="curve" smooth="yes"/>
      <point x="710" y="450"/>
      <point x="635" y="281"/>
      <point x="562" y="281" type="curve" smooth="yes"/>
      <point x="524" y="281"/>
      <point x="496" y="314"/>
      <point x="496" y="379" type="curve" smooth="yes"/>
      <point x="496" y="508"/>
      <point x="581" y="643"/>
      <point x="644" y="643" type="curve" smooth="yes"/>
    </contour>
  </outline>
</glyph>
<glyph name="A" format="1">
  <advance width="1228"/>
  <unicode hex="0041"/>
  <outline>
    <contour>
      <point x="223" y="1187" type="line" smooth="yes"/>
      <point x="178" y="1187"/>
      <point x="160" y="1170"/>
      <point x="160" y="1085" type="curve" smooth="yes"/>
      <point x="160" y="1000"/>
      <point x="178" y="982"/>
      <point x="223" y="982" type="curve" smooth="yes"/>
      <point x="390" y="982" type="line"/>
      <point x="137" y="205" type="line"/>
      <point x="53" y="205" type="line" smooth="yes"/>
      <point x="8" y="205"/>
      <point x="-10" y="188"/>
      <point x="-10" y="103" type="curve" smooth="yes"/>
      <point x="-10" y="18"/>
      <point x="8" y="0"/>
      <point x="53" y="0" type="curve" smooth="yes"/>
      <point x="457" y="0" type="line" smooth="yes"/>
      <point x="502" y="0"/>
      <point x="520" y="18"/>
      <point x="520" y="103" type="curve" smooth="yes"/>
      <point x="520" y="188"/>
      <point x="502" y="205"/>
      <point x="457" y="205" type="curve" smooth="yes"/>
      <point x="383" y="205" type="line"/>
      <point x="428" y="350" type="line"/>
      <point x="792" y="350" type="line"/>
      <point x="837" y="205" type="line"/>
      <point x="751" y="205" type="line" smooth="yes"/>
      <point x="706" y="205"/>
      <point x="688" y="188"/>
      <point x="688" y="103" type="curve" smooth="yes"/>
      <point x="688" y="18"/>
      <point x="706" y="0"/>
      <point x="751" y="0" type="curve" smooth="yes"/>
      <point x="1175" y="0" type="line" smooth="yes"/>
      <point x="1220" y="0"/>
      <point x="1238" y="18"/>
      <point x="1238" y="103" type="curve" smooth="yes"/>
      <point x="1238" y="188"/>
      <point x="1220" y="205"/>
      <point x="1175" y="205" type="curve" smooth="yes"/>
      <point x="1088" y="205" type="line"/>
      <point x="798" y="1122" type="line" smooth="yes"/>
      <point x="783" y="1168"/>
      <point x="750" y="1187"/>
      <point x="697" y="1187" type="curve" smooth="yes"/>
    </contour>
    <contour>
      <point x="735" y="555" type="line"/>
      <point x="486" y="555" type="line"/>
      <point x="609" y="982" type="line"/>
      <point x="615" y="982" type="line"/>
    </contour>
  </outline>
</glyph>
<glyph name="F" format="1">
  <advance width="1228"/>
  <unicode hex="0046"/>
  <outline>
    <contour>
      <point x="143" y="1187" type="line" smooth="yes"/>
      <point x="98" y="1187"/>
      <point x="80" y="1169"/>
      <point x="80" y="1084" type="curve" smooth="yes"/>
      <point x="80" y="999"/>
      <point x="98" y="982"/>
      <point x="143" y="982" type="curve" smooth="yes"/>
      <point x="270" y="982" type="line"/>
      <point x="270" y="205" type="line"/>
      <point x="143" y="205" type="line" smooth="yes"/>
      <point x="98" y="205"/>
      <point x="80" y="187"/>
      <point x="80" y="102" type="curve" smooth="yes"/>
      <point x="80" y="17"/>
      <point x="98" y="0"/>
      <point x="143" y="0" type="curve" smooth="yes"/>
      <point x="737" y="0" type="line" smooth="yes"/>
      <point x="782" y="0"/>
      <point x="800" y="17"/>
      <point x="800" y="102" type="curve" smooth="yes"/>
      <point x="800" y="187"/>
      <point x="782" y="205"/>
      <point x="737" y="205" type="curve" smooth="yes"/>
      <point x="520" y="205" type="line"/>
      <point x="520" y="442" type="line"/>
      <point x="824" y="442" type="line" smooth="yes"/>
      <point x="869" y="442"/>
      <point x="887" y="464"/>
      <point x="887" y="549" type="curve" smooth="yes"/>
      <point x="887" y="634"/>
      <point x="869" y="657"/>
      <point x="824" y="657" type="curve" smooth="yes"/>
      <point x="520" y="657" type="line"/>
      <point x="520" y="972" type="line"/>
      <point x="890" y="972" type="line"/>
      <point x="890" y="860" type="line" smooth="yes"/>
      <point x="890" y="815"/>
      <point x="913" y="797"/>
      <point x="998" y="797" type="curve" smooth="yes"/>
      <point x="1083" y="797"/>
      <point x="1120" y="815"/>
      <point x="1120" y="860" type="curve" smooth="yes"/>
      <point x="1120" y="1122" type="line" smooth="yes"/>
      <point x="1120" y="1168"/>
      <point x="1101" y="1187"/>
      <point x="1055" y="1187" type="curve" smooth="yes"/>
    </contour>
  </outline>
</glyph>
<glyph name="G" format="1">
  <advance width="1228"/>
  <unicode hex="0047"/>
  <outline>
    <contour>
      <point x="891" y="1209"/>
      <point x="854" y="1191"/>
      <point x="854" y="1146" type="curve" smooth="yes"/>
      <point x="854" y="1091" type="line"/>
      <point x="802" y="1164"/>
      <point x="718" y="1209"/>
      <point x="594" y="1209" type="curve" smooth="yes"/>
      <point x="294" y="1209"/>
      <point x="73" y="974"/>
      <point x="73" y="594" type="curve" smooth="yes"/>
      <point x="73" y="214"/>
      <point x="294" y="-22"/>
      <point x="624" y="-22" type="curve" smooth="yes"/>
      <point x="779" y="-22"/>
      <point x="932" y="9"/>
      <point x="1058" y="74" type="curve" smooth="yes"/>
      <point x="1081" y="86"/>
      <point x="1094" y="111"/>
      <point x="1094" y="143" type="curve" smooth="yes"/>
      <point x="1094" y="402" type="line"/>
      <point x="1125" y="402" type="line" smooth="yes"/>
      <point x="1170" y="402"/>
      <point x="1188" y="419"/>
      <point x="1188" y="504" type="curve" smooth="yes"/>
      <point x="1188" y="589"/>
      <point x="1170" y="607"/>
      <point x="1125" y="607" type="curve" smooth="yes"/>
      <point x="651" y="607" type="line" smooth="yes"/>
      <point x="606" y="607"/>
      <point x="588" y="589"/>
      <point x="588" y="504" type="curve" smooth="yes"/>
      <point x="588" y="419"/>
      <point x="606" y="402"/>
      <point x="651" y="402" type="curve" smooth="yes"/>
      <point x="844" y="402" type="line"/>
      <point x="844" y="235" type="line"/>
      <point x="778" y="215"/>
      <point x="707" y="205"/>
      <point x="634" y="205" type="curve" smooth="yes"/>
      <point x="447" y="205"/>
      <point x="341" y="346"/>
      <point x="341" y="594" type="curve" smooth="yes"/>
      <point x="341" y="842"/>
      <point x="437" y="982"/>
      <point x="624" y="982" type="curve" smooth="yes"/>
      <point x="768" y="982"/>
      <point x="834" y="914"/>
      <point x="834" y="802" type="curve" smooth="yes"/>
      <point x="834" y="757"/>
      <point x="857" y="739"/>
      <point x="952" y="739" type="curve" smooth="yes"/>
      <point x="1047" y="739"/>
      <point x="1084" y="757"/>
      <point x="1084" y="802" type="curve" smooth="yes"/>
      <point x="1084" y="1146" type="line" smooth="yes"/>
      <point x="1084" y="1191"/>
      <point x="1061" y="1209"/>
      <point x="976" y="1209" type="curve" smooth="yes"/>
    </contour>
  </outline>
</glyph>
<glyph name="H" format="1">
  <advance width="1228"/>
  <unicode hex="0048"/>
  <outline>
    <contour>
      <point x="741" y="1187" type="line" smooth="yes"/>
      <point x="696" y="1187"/>
      <point x="678" y="1169"/>
      <point x="678" y="1084" type="curve" smooth="yes"/>
      <point x="678" y="999"/>
      <point x="696" y="982"/>
      <point x="741" y="982" type="curve" smooth="yes"/>
      <point x="808" y="982" type="line"/>
      <point x="808" y="719" type="line"/>
      <point x="420" y="719" type="line"/>
      <point x="420" y="982" type="line"/>
      <point x="487" y="982" type="line" smooth="yes"/>
      <point x="532" y="982"/>
      <point x="550" y="999"/>
      <point x="550" y="1084" type="curve" smooth="yes"/>
      <point x="550" y="1169"/>
      <point x="532" y="1187"/>
      <point x="487" y="1187" type="curve" smooth="yes"/>
      <point x="113" y="1187" type="line" smooth="yes"/>
      <point x="68" y="1187"/>
      <point x="50" y="1169"/>
      <point x="50" y="1084" type="curve" smooth="yes"/>
      <point x="50" y="999"/>
      <point x="68" y="982"/>
      <point x="113" y="982" type="curve" smooth="yes"/>
      <point x="170" y="982" type="line"/>
      <point x="170" y="205" type="line"/>
      <point x="113" y="205" type="line" smooth="yes"/>
      <point x="68" y="205"/>
      <point x="50" y="187"/>
      <point x="50" y="102" type="curve" smooth="yes"/>
      <point x="50" y="17"/>
      <point x="68" y="0"/>
      <point x="113" y="0" type="curve" smooth="yes"/>
      <point x="487" y="0" type="line" smooth="yes"/>
      <point x="532" y="0"/>
      <point x="550" y="17"/>
      <point x="550" y="102" type="curve" smooth="yes"/>
      <point x="550" y="187"/>
      <point x="532" y="205"/>
      <point x="487" y="205" type="curve" smooth="yes"/>
      <point x="420" y="205" type="line"/>
      <point x="420" y="504" type="line"/>
      <point x="808" y="504" type="line"/>
      <point x="808" y="205" type="line"/>
      <point x="741" y="205" type="line" smooth="yes"/>
      <point x="696" y="205"/>
      <point x="678" y="187"/>
      <point x="678" y="102" type="curve" smooth="yes"/>
      <point x="678" y="17"/>
      <point x="696" y="0"/>
      <point x="741" y="0" type="curve" smooth="yes"/>
      <point x="1115" y="0" type="line" smooth="yes"/>
      <point x="1160" y="0"/>
      <point x="1178" y="17"/>
      <point x="1178" y="102" type="curve" smooth="yes"/>
      <point x="1178" y="187"/>
      <point x="1160" y="205"/>
      <point x="1115" y="205" type="curve" smooth="yes"/>
      <point x="1058" y="205" type="line"/>
      <point x="1058" y="982" type="line"/>
      <point x="1115" y="982" type="line" smooth="yes"/>
      <point x="1160" y="982"/>
      <point x="1178" y="999"/>
      <point x="1178" y="1084" type="curve" smooth="yes"/>
      <point x="1178" y="1169"/>
      <point x="1160" y="1187"/>
      <point x="1115" y="1187" type="curve" smooth="yes"/>
    </contour>
  </outline>
</glyph>
<glyph name="I" format="1">
  <advance width="1228"/>
  <unicode hex="0049"/>
  <outline>
    <contour>
      <point x="489" y="205" type="line"/>
      <point x="233" y="205" type="line" smooth="yes"/>
      <point x="188" y="205"/>
      <point x="170" y="187"/>
      <point x="170" y="102" type="curve" smooth="yes"/>
      <point x="170" y="17"/>
      <point x="188" y="0"/>
      <point x="233" y="0" type="curve" smooth="yes"/>
      <point x="995" y="0" type="line" smooth="yes"/>
      <point x="1040" y="0"/>
      <point x="1058" y="17"/>
      <point x="1058" y="102" type="curve" smooth="yes"/>
      <point x="1058" y="187"/>
      <point x="1040" y="205"/>
      <point x="995" y="205" type="curve" smooth="yes"/>
      <point x="739" y="205" type="line"/>
      <point x="739" y="982" type="line"/>
      <point x="975" y="982" type="line" smooth="yes"/>
      <point x="1020" y="982"/>
      <point x="1038" y="999"/>
      <point x="1038" y="1084" type="curve" smooth="yes"/>
      <point x="1038" y="1169"/>
      <point x="1020" y="1187"/>
      <point x="975" y="1187" type="curve" smooth="yes"/>
      <point x="253" y="1187" type="line" smooth="yes"/>
      <point x="208" y="1187"/>
      <point x="190" y="1169"/>
      <point x="190" y="1084" type="curve" smooth="yes"/>
      <point x="190" y="999"/>
      <point x="208" y="982"/>
      <point x="253" y="982" type="curve" smooth="yes"/>
      <point x="489" y="982" type="line"/>
    </contour>
  </outline>
</glyph>
<glyph name="J" format="1">
  <advance width="1228"/>
  <unicode hex="004A"/>
  <outline>
    <contour>
      <point x="679" y="982" type="line"/>
      <point x="679" y="383" type="line" smooth="yes"/>
      <point x="679" y="260"/>
      <point x="623" y="205"/>
      <point x="515" y="205" type="curve" smooth="yes"/>
      <point x="452" y="205"/>
      <point x="396" y="216"/>
      <point x="349" y="239" type="curve"/>
      <point x="349" y="499" type="line" smooth="yes"/>
      <point x="349" y="544"/>
      <point x="326" y="562"/>
      <point x="231" y="562" type="curve" smooth="yes"/>
      <point x="136" y="562"/>
      <point x="99" y="544"/>
      <point x="99" y="499" type="curve" smooth="yes"/>
      <point x="99" y="175" type="line" smooth="yes"/>
      <point x="99" y="152"/>
      <point x="104" y="136"/>
      <point x="115" y="125" type="curve" smooth="yes"/>
      <point x="218" y="27"/>
      <point x="348" y="-22"/>
      <point x="504" y="-22" type="curve" smooth="yes"/>
      <point x="781" y="-22"/>
      <point x="929" y="105"/>
      <point x="929" y="363" type="curve" smooth="yes"/>
      <point x="929" y="982" type="line"/>
      <point x="1115" y="982" type="line" smooth="yes"/>
      <point x="1160" y="982"/>
      <point x="1178" y="999"/>
      <point x="1178" y="1084" type="curve" smooth="yes"/>
      <point x="1178" y="1169"/>
      <point x="1160" y="1187"/>
      <point x="1115" y="1187" type="curve" smooth="yes"/>
      <point x="373" y="1187" type="line" smooth="yes"/>
      <point x="328" y="1187"/>
      <point x="310" y="1169"/>
      <point x="310" y="1084" type="curve" smooth="yes"/>
      <point x="310" y="999"/>
      <point x="328" y="982"/>
      <point x="373" y="982" type="curve" smooth="yes"/>
    </contour>
  </outline>
</glyph>
<glyph name="N" format="1">
  <advance width="1228"/>
  <unicode hex="004E"/>
  <outline>
    <contour>
      <point x="760" y="1187" type="line" smooth="yes"/>
      <point x="715" y="1187"/>
      <point x="697" y="1169"/>
      <point x="697" y="1084" type="curve" smooth="yes"/>
      <point x="697" y="999"/>
      <point x="715" y="982"/>
      <point x="760" y="982" type="curve" smooth="yes"/>
      <point x="848" y="982" type="line"/>
      <point x="848" y="473" type="line"/>
      <point x="433" y="1160" type="line" smooth="yes"/>
      <point x="421" y="1180"/>
      <point x="402" y="1187"/>
      <point x="377" y="1187" type="curve" smooth="yes"/>
      <point x="113" y="1187" type="line" smooth="yes"/>
      <point x="68" y="1187"/>
      <point x="50" y="1169"/>
      <point x="50" y="1084" type="curve" smooth="yes"/>
      <point x="50" y="999"/>
      <point x="68" y="982"/>
      <point x="113" y="982" type="curve" smooth="yes"/>
      <point x="180" y="982" type="line"/>
      <point x="180" y="205" type="line"/>
      <point x="113" y="205" type="line" smooth="yes"/>
      <point x="68" y="205"/>
      <point x="50" y="187"/>
      <point x="50" y="102" type="curve" smooth="yes"/>
      <point x="50" y="17"/>
      <point x="68" y="0"/>
      <point x="113" y="0" type="curve" smooth="yes"/>
      <point x="517" y="0" type="line" smooth="yes"/>
      <point x="562" y="0"/>
      <point x="580" y="17"/>
      <point x="580" y="102" type="curve" smooth="yes"/>
      <point x="580" y="187"/>
      <point x="562" y="205"/>
      <point x="517" y="205" type="curve" smooth="yes"/>
      <point x="410" y="205" type="line"/>
      <point x="410" y="776" type="line"/>
      <point x="860" y="31" type="line" smooth="yes"/>
      <point x="881" y="-3"/>
      <point x="903" y="-22"/>
      <point x="968" y="-22" type="curve" smooth="yes"/>
      <point x="1052" y="-22"/>
      <point x="1078" y="2"/>
      <point x="1078" y="44" type="curve" smooth="yes"/>
      <point x="1078" y="982" type="line"/>
      <point x="1135" y="982" type="line" smooth="yes"/>
      <point x="1180" y="982"/>
      <point x="1198" y="999"/>
      <point x="1198" y="1084" type="curve" smooth="yes"/>
      <point x="1198" y="1169"/>
      <point x="1180" y="1187"/>
      <point x="1135" y="1187" type="curve" smooth="yes"/>
    </contour>
  </outline>
</glyph>
<glyph name="R" format="1">
  <advance width="1228"/>
  <unicode hex="0052"/>
  <outline>
    <contour>
      <point x="123" y="1187" type="line" smooth="yes"/>
      <point x="78" y="1187"/>
      <point x="60" y="1169"/>
      <point x="60" y="1084" type="curve" smooth="yes"/>
      <point x="60" y="999"/>
      <point x="78" y="982"/>
      <point x="123" y="982" type="curve" smooth="yes"/>
      <point x="230" y="982" type="line"/>
      <point x="230" y="205" type="line"/>
      <point x="123" y="205" type="line" smooth="yes"/>
      <point x="78" y="205"/>
      <point x="60" y="187"/>
      <point x="60" y="102" type="curve" smooth="yes"/>
      <point x="60" y="17"/>
      <point x="78" y="0"/>
      <point x="123" y="0" type="curve" smooth="yes"/>
      <point x="597" y="0" type="line" smooth="yes"/>
      <point x="642" y="0"/>
      <point x="660" y="17"/>
      <point x="660" y="102" type="curve" smooth="yes"/>
      <point x="660" y="187"/>
      <point x="642" y="205"/>
      <point x="597" y="205" type="curve" smooth="yes"/>
      <point x="480" y="205" type="line"/>
      <point x="480" y="461" type="line"/>
      <point x="518" y="461" type="line" smooth="yes"/>
      <point x="624" y="461"/>
      <point x="679" y="433"/>
      <point x="728" y="364" type="curve" smooth="yes"/>
      <point x="779" y="292"/>
      <point x="808" y="209"/>
      <point x="851" y="139" type="curve" smooth="yes"/>
      <point x="909" y="44"/>
      <point x="971" y="0"/>
      <point x="1058" y="0" type="curve" smooth="yes"/>
      <point x="1165" y="0" type="line" smooth="yes"/>
      <point x="1210" y="0"/>
      <point x="1228" y="17"/>
      <point x="1228" y="102" type="curve" smooth="yes"/>
      <point x="1228" y="187"/>
      <point x="1210" y="205"/>
      <point x="1165" y="205" type="curve" smooth="yes"/>
      <point x="1146" y="205" type="line" smooth="yes"/>
      <point x="1109" y="205"/>
      <point x="1082" y="232"/>
      <point x="1057" y="271" type="curve" smooth="yes"/>
      <point x="1020" y="329"/>
      <point x="987" y="414"/>
      <point x="928" y="476" type="curve" smooth="yes"/>
      <point x="906" y="499"/>
      <point x="880" y="519"/>
      <point x="849" y="533" type="curve"/>
      <point x="1003" y="572"/>
      <point x="1087" y="665"/>
      <point x="1087" y="824" type="curve" smooth="yes"/>
      <point x="1087" y="1061"/>
      <point x="930" y="1187"/>
      <point x="650" y="1187" type="curve" smooth="yes"/>
    </contour>
    <contour>
      <point x="766" y="972"/>
      <point x="829" y="923"/>
      <point x="829" y="824" type="curve" smooth="yes"/>
      <point x="829" y="725"/>
      <point x="766" y="676"/>
      <point x="629" y="676" type="curve" smooth="yes"/>
      <point x="480" y="676" type="line"/>
      <point x="480" y="972" type="line"/>
      <point x="629" y="972" type="line" smooth="yes"/>
    </contour>
  </outline>
</glyph>
<glyph name="S" format="1">
  <advance width="1228"/>
  <unicode hex="0053"/>
  <outline>
    <contour>
      <point x="389" y="79" type="line"/>
      <point x="465" y="13"/>
      <point x="561" y="-22"/>
      <point x="672" y="-22" type="curve" smooth="yes"/>
      <point x="951" y="-22"/>
      <point x="1087" y="128"/>
      <point x="1087" y="344" type="curve" smooth="yes"/>
      <point x="1087" y="508"/>
      <point x="1019" y="601"/>
      <point x="927" y="657" type="curve" smooth="yes"/>
      <point x="786" y="743"/>
      <point x="586" y="742"/>
      <point x="482" y="783" type="curve" smooth="yes"/>
      <point x="439" y="800"/>
      <point x="412" y="823"/>
      <point x="412" y="863" type="curve" smooth="yes"/>
      <point x="412" y="939"/>
      <point x="469" y="996"/>
      <point x="568" y="996" type="curve" smooth="yes"/>
      <point x="700" y="996"/>
      <point x="799" y="937"/>
      <point x="860" y="841" type="curve" smooth="yes"/>
      <point x="874" y="820"/>
      <point x="897" y="809"/>
      <point x="942" y="809" type="curve" smooth="yes"/>
      <point x="1007" y="809"/>
      <point x="1034" y="827"/>
      <point x="1034" y="872" type="curve" smooth="yes"/>
      <point x="1034" y="1146" type="line" smooth="yes"/>
      <point x="1034" y="1191"/>
      <point x="1001" y="1209"/>
      <point x="916" y="1209" type="curve" smooth="yes"/>
      <point x="831" y="1209"/>
      <point x="804" y="1191"/>
      <point x="804" y="1146" type="curve" smooth="yes"/>
      <point x="804" y="1109" type="line"/>
      <point x="738" y="1173"/>
      <point x="646" y="1209"/>
      <point x="538" y="1209" type="curve" smooth="yes"/>
      <point x="306" y="1209"/>
      <point x="149" y="1059"/>
      <point x="149" y="846" type="curve" smooth="yes"/>
      <point x="149" y="696"/>
      <point x="218" y="616"/>
      <point x="311" y="567" type="curve" smooth="yes"/>
      <point x="447" y="496"/>
      <point x="636" y="493"/>
      <point x="742" y="441" type="curve" smooth="yes"/>
      <point x="791" y="417"/>
      <point x="822" y="383"/>
      <point x="822" y="327" type="curve" smooth="yes"/>
      <point x="822" y="244"/>
      <point x="761" y="191"/>
      <point x="642" y="191" type="curve" smooth="yes"/>
      <point x="507" y="191"/>
      <point x="409" y="263"/>
      <point x="338" y="398" type="curve" smooth="yes"/>
      <point x="323" y="427"/>
      <point x="298" y="438"/>
      <point x="251" y="438" type="curve" smooth="yes"/>
      <point x="186" y="438"/>
      <point x="159" y="420"/>
      <point x="159" y="375" type="curve" smooth="yes"/>
      <point x="159" y="41" type="line" smooth="yes"/>
      <point x="159" y="-4"/>
      <point x="192" y="-22"/>
      <point x="277" y="-22" type="curve" smooth="yes"/>
      <point x="362" y="-22"/>
      <point x="389" y="-4"/>
      <point x="389" y="41" type="curve" smooth="yes"/>
    </contour>
  </outline>
</glyph>
<glyph name="U" format="1">
  <advance width="1228"/>
  <unicode hex="0055"/>
  <outline>
    <contour>
      <point x="741" y="1187" type="line" smooth="yes"/>
      <point x="696" y="1187"/>
      <point x="678" y="1169"/>
      <point x="678" y="1084" type="curve" smooth="yes"/>
      <point x="678" y="999"/>
      <point x="696" y="982"/>
      <point x="741" y="982" type="curve" smooth="yes"/>
      <point x="818" y="982" type="line"/>
      <point x="818" y="433" type="line" smooth="yes"/>
      <point x="818" y="273"/>
      <point x="733" y="205"/>
      <point x="614" y="205" type="curve" smooth="yes"/>
      <point x="495" y="205"/>
      <point x="410" y="273"/>
      <point x="410" y="433" type="curve" smooth="yes"/>
      <point x="410" y="982" type="line"/>
      <point x="487" y="982" type="line" smooth="yes"/>
      <point x="532" y="982"/>
      <point x="550" y="999"/>
      <point x="550" y="1084" type="curve" smooth="yes"/>
      <point x="550" y="1169"/>
      <point x="532" y="1187"/>
      <point x="487" y="1187" type="curve" smooth="yes"/>
      <point x="113" y="1187" type="line" smooth="yes"/>
      <point x="68" y="1187"/>
      <point x="50" y="1169"/>
      <point x="50" y="1084" type="curve" smooth="yes"/>
      <point x="50" y="999"/>
      <point x="68" y="982"/>
      <point x="113" y="982" type="curve" smooth="yes"/>
      <point x="160" y="982" type="line"/>
      <point x="160" y="413" type="line" smooth="yes"/>
      <point x="160" y="133"/>
      <point x="334" y="-22"/>
      <point x="614" y="-22" type="curve" smooth="yes"/>
      <point x="894" y="-22"/>
      <point x="1068" y="133"/>
      <point x="1068" y="413" type="curve" smooth="yes"/>
      <point x="1068" y="982" type="line"/>
      <point x="1115" y="982" type="line" smooth="yes"/>
      <point x="1160" y="982"/>
      <point x="1178" y="999"/>
      <point x="1178" y="1084" type="curve" smooth="yes"/>
      <point x="1178" y="1169"/>
      <point x="1160" y="1187"/>
      <point x="1115" y="1187" type="curve" smooth="yes"/>
    </contour>
  </outline>
</glyph>
<glyph name="V" format="1">
  <advance width="1228"/>
  <unicode hex="0056"/>
  <outline>
    <contour>
      <point x="130" y="982" type="line"/>
      <point x="480" y="43" type="line" smooth="yes"/>
      <point x="497" y="-3"/>
      <point x="528" y="-22"/>
      <point x="611" y="-22" type="curve" smooth="yes"/>
      <point x="694" y="-22"/>
      <point x="726" y="-4"/>
      <point x="744" y="43" type="curve" smooth="yes"/>
      <point x="1107" y="982" type="line"/>
      <point x="1175" y="982" type="line" smooth="yes"/>
      <point x="1220" y="982"/>
      <point x="1238" y="999"/>
      <point x="1238" y="1084" type="curve" smooth="yes"/>
      <point x="1238" y="1169"/>
      <point x="1220" y="1187"/>
      <point x="1175" y="1187" type="curve" smooth="yes"/>
      <point x="771" y="1187" type="line" smooth="yes"/>
      <point x="726" y="1187"/>
      <point x="708" y="1169"/>
      <point x="708" y="1084" type="curve" smooth="yes"/>
      <point x="708" y="999"/>
      <point x="726" y="982"/>
      <point x="771" y="982" type="curve" smooth="yes"/>
      <point x="842" y="982" type="line"/>
      <point x="613" y="369" type="line"/>
      <point x="398" y="982" type="line"/>
      <point x="487" y="982" type="line" smooth="yes"/>
      <point x="532" y="982"/>
      <point x="550" y="999"/>
      <point x="550" y="1084" type="curve" smooth="yes"/>
      <point x="550" y="1169"/>
      <point x="532" y="1187"/>
      <point x="487" y="1187" type="curve" smooth="yes"/>
      <point x="53" y="1187" type="line" smooth="yes"/>
      <point x="8" y="1187"/>
      <point x="-10" y="1169"/>
      <point x="-10" y="1084" type="curve" smooth="yes"/>
      <point x="-10" y="999"/>
      <point x="8" y="982"/>
      <point x="53" y="982" type="curve" smooth="yes"/>
    </contour>
  </outline>
</glyph>
<glyph name="X" format="1">
  <advance width="1228"/>
  <unicode hex="0058"/>
  <outline>
    <contour>
      <point x="155" y="205" type="line"/>
      <point x="93" y="205" type="line" smooth="yes"/>
      <point x="48" y="205"/>
      <point x="30" y="187"/>
      <point x="30" y="102" type="curve" smooth="yes"/>
      <point x="30" y="17"/>
      <point x="48" y="0"/>
      <point x="93" y="0" type="curve" smooth="yes"/>
      <point x="477" y="0" type="line" smooth="yes"/>
      <point x="522" y="0"/>
      <point x="540" y="17"/>
      <point x="540" y="102" type="curve" smooth="yes"/>
      <point x="540" y="187"/>
      <point x="522" y="205"/>
      <point x="477" y="205" type="curve" smooth="yes"/>
      <point x="439" y="205" type="line"/>
      <point x="610" y="449" type="line"/>
      <point x="783" y="205" type="line"/>
      <point x="731" y="205" type="line" smooth="yes"/>
      <point x="686" y="205"/>
      <point x="668" y="187"/>
      <point x="668" y="102" type="curve" smooth="yes"/>
      <point x="668" y="17"/>
      <point x="686" y="0"/>
      <point x="731" y="0" type="curve" smooth="yes"/>
      <point x="1135" y="0" type="line" smooth="yes"/>
      <point x="1180" y="0"/>
      <point x="1198" y="17"/>
      <point x="1198" y="102" type="curve" smooth="yes"/>
      <point x="1198" y="187"/>
      <point x="1180" y="205"/>
      <point x="1135" y="205" type="curve" smooth="yes"/>
      <point x="1074" y="205" type="line"/>
      <point x="783" y="604" type="line"/>
      <point x="1049" y="982" type="line"/>
      <point x="1105" y="982" type="line" smooth="yes"/>
      <point x="1150" y="982"/>
      <point x="1168" y="999"/>
      <point x="1168" y="1084" type="curve" smooth="yes"/>
      <point x="1168" y="1169"/>
      <point x="1150" y="1187"/>
      <point x="1105" y="1187" type="curve" smooth="yes"/>
      <point x="741" y="1187" type="line" smooth="yes"/>
      <point x="696" y="1187"/>
      <point x="678" y="1169"/>
      <point x="678" y="1084" type="curve" smooth="yes"/>
      <point x="678" y="999"/>
      <point x="696" y="982"/>
      <point x="741" y="982" type="curve" smooth="yes"/>
      <point x="765" y="982" type="line"/>
      <point x="620" y="773" type="line"/>
      <point x="474" y="982" type="line"/>
      <point x="517" y="982" type="line" smooth="yes"/>
      <point x="562" y="982"/>
      <point x="580" y="999"/>
      <point x="580" y="1084" type="curve" smooth="yes"/>
      <point x="580" y="1169"/>
      <point x="562" y="1187"/>
      <point x="517" y="1187" type="curve" smooth="yes"/>
      <point x="123" y="1187" type="line" smooth="yes"/>
      <point x="78" y="1187"/>
      <point x="60" y="1169"/>
      <point x="60" y="1084" type="curve" smooth="yes"/>
      <point x="60" y="999"/>
      <point x="78" y="982"/>
      <point x="123" y="982" type="curve" smooth="yes"/>
      <point x="183" y="982" type="line"/>
      <point x="446" y="615" type="line"/>
    </contour>
  </outline>
</glyph>
<glyph name="Z" format="1">
  <advance width="1228"/>
  <unicode hex="005A"/>
  <outline>
    <contour>
      <point x="483" y="215" type="line"/>
      <point x="1057" y="992" type="line" smooth="yes"/>
      <point x="1072" y="1012"/>
      <point x="1080" y="1041"/>
      <point x="1080" y="1084" type="curve" smooth="yes"/>
      <point x="1080" y="1169"/>
      <point x="1062" y="1187"/>
      <point x="1017" y="1187" type="curve" smooth="yes"/>
      <point x="233" y="1187" type="line" smooth="yes"/>
      <point x="187" y="1187"/>
      <point x="168" y="1168"/>
      <point x="168" y="1122" type="curve" smooth="yes"/>
      <point x="168" y="770" type="line" smooth="yes"/>
      <point x="168" y="725"/>
      <point x="191" y="707"/>
      <point x="276" y="707" type="curve" smooth="yes"/>
      <point x="361" y="707"/>
      <point x="398" y="725"/>
      <point x="398" y="770" type="curve" smooth="yes"/>
      <point x="398" y="972" type="line"/>
      <point x="732" y="972" type="line"/>
      <point x="158" y="195" type="line" smooth="yes"/>
      <point x="144" y="176"/>
      <point x="138" y="147"/>
      <point x="138" y="102" type="curve" smooth="yes"/>
      <point x="138" y="17"/>
      <point x="156" y="0"/>
      <point x="201" y="0" type="curve" smooth="yes"/>
      <point x="1015" y="0" type="line" smooth="yes"/>
      <point x="1061" y="0"/>
      <point x="1080" y="19"/>
      <point x="1080" y="65" type="curve" smooth="yes"/>
      <point x="1080" y="437" type="line" smooth="yes"/>
      <point x="1080" y="482"/>
      <point x="1057" y="500"/>
      <point x="972" y="500" type="curve" smooth="yes"/>
      <point x="887" y="500"/>
      <point x="850" y="482"/>
      <point x="850" y="437" type="curve" smooth="yes"/>
      <point x="850" y="215" type="line"/>
    </contour>
  </outline>
</glyph>
<glyph name="bracketleft" format="1">
  <advance width="1228"/>
  <unicode hex="005B"/>
  <outline>
    <contour>
      <point x="540" y="-128" type="line"/>
      <point x="540" y="1167" type="line"/>
      <point x="863" y="1167" type="line" smooth="yes"/>
      <point x="908" y="1167"/>
      <point x="926" y="1184"/>
      <point x="926" y="1269" type="curve" smooth="yes"/>
      <point x="926" y="1354"/>
      <point x="908" y="1372"/>
      <point x="863" y="1372" type="curve" smooth="yes"/>
      <point x="353" y="1372" type="line" smooth="yes"/>
      <point x="308" y="1372"/>
      <point x="290" y="1354"/>
      <point x="290" y="1309" type="curve" smooth="yes"/>
      <point x="290" y="-270" type="line" smooth="yes"/>
      <point x="290" y="-315"/>
      <point x="308" y="-333"/>
      <point x="353" y="-333" type="curve" smooth="yes"/>
      <point x="863" y="-333" type="line" smooth="yes"/>
      <point x="908" y="-333"/>
      <point x="926" y="-315"/>
      <point x="926" y="-230" type="curve" smooth="yes"/>
      <point x="926" y="-145"/>
      <point x="908" y="-128"/>
      <point x="863" y="-128" type="curve" smooth="yes"/>
    </contour>
  </outline>
</glyph>
<glyph name="backslash" format="1">
  <advance width="1228"/>
  <unicode hex="005C"/>
  <outline>
    <contour>
      <point x="833" y="-267" type="line"/>
      <point x="843" y="-290"/>
      <point x="874" y="-300"/>
      <point x="909" y="-300" type="curve" smooth="yes"/>
      <point x="986" y="-300"/>
      <point x="1088" y="-252"/>
      <point x="1057" y="-183" type="curve" smooth="yes"/>
      <point x="395" y="1305" type="line" smooth="yes"/>
      <point x="385" y="1328"/>
      <point x="353" y="1339"/>
      <point x="317" y="1339" type="curve" smooth="yes"/>
      <point x="240" y="1339"/>
      <point x="140" y="1292"/>
      <point x="171" y="1221" type="curve" smooth="yes"/>
    </contour>
  </outline>
</glyph>
<glyph name="bracketright" format="1">
  <advance width="1228"/>
  <unicode hex="005D"/>
  <outline>
    <contour>
      <point x="688" y="-128" type="line"/>
      <point x="365" y="-128" type="line" smooth="yes"/>
      <point x="320" y="-128"/>
      <point x="302" y="-145"/>
      <point x="302" y="-230" type="curve" smooth="yes"/>
      <point x="302" y="-315"/>
      <point x="320" y="-333"/>
      <point x="365" y="-333" type="curve" smooth="yes"/>
      <point x="875" y="-333" type="line" smooth="yes"/>
      <point x="920" y="-333"/>
      <point x="938" y="-315"/>
      <point x="938" y="-270" type="curve" smooth="yes"/>
      <point x="938" y="1309" type="line" smooth="yes"/>
      <point x="938" y="1354"/>
      <point x="920" y="1372"/>
      <point x="875" y="1372" type="curve" smooth="yes"/>
      <point x="365" y="1372" type="line" smooth="yes"/>
      <point x="320" y="1372"/>
      <point x="302" y="1354"/>
      <point x="302" y="1269" type="curve" smooth="yes"/>
      <point x="302" y="1184"/>
      <point x="320" y="1167"/>
      <point x="365" y="1167" type="curve" smooth="yes"/>
      <point x="688" y="1167" type="line"/>
    </contour>
  </outline>
</glyph>
<glyph name="underscore" format="1">
  <advance width="1228"/>
  <unicode hex="005F"/>
  <outline>
    <contour>
      <point x="1233" y="-513" type="line" smooth="yes"/>
      <point x="1258" y="-513"/>
      <point x="1266" y="-496"/>
      <point x="1266" y="-401" type="curve" smooth="yes"/>
      <point x="1266" y="-306"/>
      <point x="1258" y="-288"/>
      <point x="1233" y="-288" type="curve" smooth="yes"/>
      <point x="-5" y="-288" type="line" smooth="yes"/>
      <point x="-30" y="-288"/>
      <point x="-38" y="-306"/>
      <point x="-38" y="-401" type="curve" smooth="yes"/>
      <point x="-38" y="-496"/>
      <point x="-30" y="-513"/>
      <point x="-5" y="-513" type="curve" smooth="yes"/>
    </contour>
  </outline>
</glyph>
<glyph name="a" format="1">
  <advance width="1228"/>
  <unicode hex="0061"/>
  <outline>
    <contour>
      <point x="494" y="946"/>
      <point x="351" y="923"/>
      <point x="226" y="877" type="curve" smooth="yes"/>
      <point x="179" y="860"/>
      <point x="170" y="820"/>
      <point x="199" y="740" type="curve" smooth="yes"/>
      <point x="228" y="660"/>
      <point x="262" y="652"/>
      <point x="304" y="666" type="curve" smooth="yes"/>
      <point x="395" y="697"/>
      <point x="496" y="719"/>
      <point x="575" y="719" type="curve" smooth="yes"/>
      <point x="720" y="719"/>
      <point x="769" y="672"/>
      <point x="769" y="588" type="curve" smooth="yes"/>
      <point x="769" y="559" type="line"/>
      <point x="669" y="579"/>
      <point x="575" y="589"/>
      <point x="486" y="589" type="curve" smooth="yes"/>
      <point x="250" y="589"/>
      <point x="110" y="482"/>
      <point x="110" y="295" type="curve" smooth="yes"/>
      <point x="110" y="100"/>
      <point x="245" y="-22"/>
      <point x="474" y="-22" type="curve" smooth="yes"/>
      <point x="601" y="-22"/>
      <point x="720" y="27"/>
      <point x="822" y="106" type="curve"/>
      <point x="857" y="30"/>
      <point x="925" y="0"/>
      <point x="1004" y="0" type="curve" smooth="yes"/>
      <point x="1116" y="0" type="line" smooth="yes"/>
      <point x="1161" y="0"/>
      <point x="1179" y="17"/>
      <point x="1179" y="102" type="curve" smooth="yes"/>
      <point x="1179" y="187"/>
      <point x="1161" y="205"/>
      <point x="1116" y="205" type="curve" smooth="yes"/>
      <point x="1085" y="205" type="line" smooth="yes"/>
      <point x="1042" y="205"/>
      <point x="1019" y="237"/>
      <point x="1019" y="290" type="curve" smooth="yes"/>
      <point x="1019" y="579" type="line" smooth="yes"/>
      <point x="1019" y="804"/>
      <point x="908" y="946"/>
      <point x="603" y="946" type="curve" smooth="yes"/>
    </contour>
    <contour>
      <point x="592" y="383"/>
      <point x="676" y="375"/>
      <point x="769" y="356" type="curve"/>
      <point x="769" y="292" type="line"/>
      <point x="694" y="231"/>
      <point x="601" y="189"/>
      <point x="506" y="189" type="curve" smooth="yes"/>
      <point x="417" y="189"/>
      <point x="368" y="222"/>
      <point x="368" y="285" type="curve" smooth="yes"/>
      <point x="368" y="348"/>
      <point x="417" y="383"/>
      <point x="511" y="383" type="curve" smooth="yes"/>
    </contour>
  </outline>
</glyph>
<glyph name="b" format="1">
  <advance width="1228"/>
  <unicode hex="0062"/>
  <outline>
    <contour>
      <point x="187" y="205" type="line"/>
      <point x="110" y="205" type="line" smooth="yes"/>
      <point x="65" y="205"/>
      <point x="47" y="188"/>
      <point x="47" y="103" type="curve" smooth="yes"/>
      <point x="47" y="18"/>
      <point x="65" y="0"/>
      <point x="110" y="0" type="curve" smooth="yes"/>
      <point x="334" y="0" type="line" smooth="yes"/>
      <point x="379" y="0"/>
      <point x="397" y="18"/>
      <point x="397" y="63" type="curve" smooth="yes"/>
      <point x="397" y="147" type="line"/>
      <point x="465" y="42"/>
      <point x="572" y="-22"/>
      <point x="700" y="-22" type="curve" smooth="yes"/>
      <point x="969" y="-22"/>
      <point x="1131" y="192"/>
      <point x="1131" y="462" type="curve" smooth="yes"/>
      <point x="1131" y="732"/>
      <point x="969" y="946"/>
      <point x="700" y="946" type="curve" smooth="yes"/>
      <point x="594" y="946"/>
      <point x="504" y="902"/>
      <point x="437" y="828" type="curve"/>
      <point x="437" y="1249" type="line" smooth="yes"/>
      <point x="437" y="1294"/>
      <point x="419" y="1312"/>
      <point x="374" y="1312" type="curve" smooth="yes"/>
      <point x="90" y="1312" type="line" smooth="yes"/>
      <point x="45" y="1312"/>
      <point x="27" y="1294"/>
      <point x="27" y="1209" type="curve" smooth="yes"/>
      <point x="27" y="1124"/>
      <point x="45" y="1107"/>
      <point x="90" y="1107" type="curve" smooth="yes"/>
      <point x="187" y="1107" type="line"/>
    </contour>
    <contour>
      <point x="430" y="628"/>
      <point x="535" y="719"/>
      <point x="660" y="719" type="curve" smooth="yes"/>
      <point x="785" y="719"/>
      <point x="863" y="618"/>
      <point x="863" y="462" type="curve" smooth="yes"/>
      <point x="863" y="306"/>
      <point x="785" y="205"/>
      <point x="660" y="205" type="curve" smooth="yes"/>
      <point x="535" y="205"/>
      <point x="430" y="296"/>
      <point x="430" y="462" type="curve" smooth="yes"/>
    </contour>
  </outline>
</glyph>
<glyph name="d" format="1">
  <advance width="1228"/>
  <unicode hex="0064"/>
  <outline>
    <contour>
      <point x="1041" y="205" type="line"/>
      <point x="1041" y="1249" type="line" smooth="yes"/>
      <point x="1041" y="1294"/>
      <point x="1023" y="1312"/>
      <point x="978" y="1312" type="curve" smooth="yes"/>
      <point x="594" y="1312" type="line" smooth="yes"/>
      <point x="549" y="1312"/>
      <point x="531" y="1294"/>
      <point x="531" y="1209" type="curve" smooth="yes"/>
      <point x="531" y="1124"/>
      <point x="549" y="1107"/>
      <point x="594" y="1107" type="curve" smooth="yes"/>
      <point x="791" y="1107" type="line"/>
      <point x="791" y="801" type="line"/>
      <point x="724" y="874"/>
      <point x="633" y="916"/>
      <point x="528" y="916" type="curve" smooth="yes"/>
      <point x="264" y="916"/>
      <point x="97" y="717"/>
      <point x="97" y="447" type="curve" smooth="yes"/>
      <point x="97" y="177"/>
      <point x="264" y="-22"/>
      <point x="528" y="-22" type="curve" smooth="yes"/>
      <point x="656" y="-22"/>
      <point x="762" y="34"/>
      <point x="831" y="132" type="curve"/>
      <point x="831" y="63" type="line" smooth="yes"/>
      <point x="831" y="18"/>
      <point x="849" y="0"/>
      <point x="894" y="0" type="curve" smooth="yes"/>
      <point x="1128" y="0" type="line" smooth="yes"/>
      <point x="1173" y="0"/>
      <point x="1191" y="18"/>
      <point x="1191" y="103" type="curve" smooth="yes"/>
      <point x="1191" y="188"/>
      <point x="1173" y="205"/>
      <point x="1128" y="205" type="curve" smooth="yes"/>
    </contour>
    <contour>
      <point x="798" y="285"/>
      <point x="693" y="205"/>
      <point x="568" y="205" type="curve" smooth="yes"/>
      <point x="446" y="205"/>
      <point x="365" y="291"/>
      <point x="365" y="447" type="curve" smooth="yes"/>
      <point x="365" y="603"/>
      <point x="446" y="689"/>
      <point x="568" y="689" type="curve" smooth="yes"/>
      <point x="693" y="689"/>
      <point x="798" y="609"/>
      <point x="798" y="447" type="curve" smooth="yes"/>
    </contour>
  </outline>
</glyph>
<glyph name="e" format="1">
  <advance width="1228"/>
  <unicode hex="0065"/>
  <outline>
    <contour>
      <point x="305" y="946"/>
      <point x="117" y="742"/>
      <point x="117" y="462" type="curve" smooth="yes"/>
      <point x="117" y="182"/>
      <point x="285" y="-22"/>
      <point x="584" y="-22" type="curve" smooth="yes"/>
      <point x="727" y="-22"/>
      <point x="879" y="5"/>
      <point x="1012" y="49" type="curve" smooth="yes"/>
      <point x="1060" y="65"/>
      <point x="1073" y="94"/>
      <point x="1051" y="176" type="curve" smooth="yes"/>
      <point x="1029" y="258"/>
      <point x="1003" y="273"/>
      <point x="960" y="260" type="curve" smooth="yes"/>
      <point x="828" y="220"/>
      <point x="712" y="205"/>
      <point x="604" y="205" type="curve" smooth="yes"/>
      <point x="487" y="205"/>
      <point x="410" y="262"/>
      <point x="384" y="370" type="curve"/>
      <point x="1026" y="370" type="line" smooth="yes"/>
      <point x="1071" y="370"/>
      <point x="1089" y="387"/>
      <point x="1089" y="432" type="curve" smooth="yes"/>
      <point x="1089" y="729"/>
      <point x="926" y="946"/>
      <point x="614" y="946" type="curve" smooth="yes"/>
    </contour>
    <contour>
      <point x="729" y="719"/>
      <point x="806" y="661"/>
      <point x="828" y="565" type="curve"/>
      <point x="388" y="565" type="line"/>
      <point x="417" y="669"/>
      <point x="494" y="719"/>
      <point x="614" y="719" type="curve" smooth="yes"/>
    </contour>
  </outline>
</glyph>
<glyph name="g" format="1">
  <advance width="1228"/>
  <unicode hex="0067"/>
  <outline>
    <contour>
      <point x="264" y="946"/>
      <point x="97" y="747"/>
      <point x="97" y="477" type="curve" smooth="yes"/>
      <point x="97" y="207"/>
      <point x="264" y="8"/>
      <point x="528" y="8" type="curve" smooth="yes"/>
      <point x="633" y="8"/>
      <point x="724" y="50"/>
      <point x="791" y="123" type="curve"/>
      <point x="791" y="21" type="line" smooth="yes"/>
      <point x="791" y="-113"/>
      <point x="727" y="-183"/>
      <point x="562" y="-183" type="curve" smooth="yes"/>
      <point x="474" y="-183"/>
      <point x="362" y="-157"/>
      <point x="255" y="-124" type="curve" smooth="yes"/>
      <point x="212" y="-111"/>
      <point x="179" y="-128"/>
      <point x="154" y="-209" type="curve" smooth="yes"/>
      <point x="129" y="-291"/>
      <point x="141" y="-333"/>
      <point x="189" y="-348" type="curve" smooth="yes"/>
      <point x="315" y="-388"/>
      <point x="460" y="-410"/>
      <point x="572" y="-410" type="curve" smooth="yes"/>
      <point x="890" y="-410"/>
      <point x="1041" y="-255"/>
      <point x="1041" y="1" type="curve" smooth="yes"/>
      <point x="1041" y="719" type="line"/>
      <point x="1128" y="719" type="line" smooth="yes"/>
      <point x="1173" y="719"/>
      <point x="1191" y="736"/>
      <point x="1191" y="821" type="curve" smooth="yes"/>
      <point x="1191" y="906"/>
      <point x="1173" y="924"/>
      <point x="1128" y="924" type="curve" smooth="yes"/>
      <point x="894" y="924" type="line" smooth="yes"/>
      <point x="849" y="924"/>
      <point x="831" y="906"/>
      <point x="831" y="861" type="curve" smooth="yes"/>
      <point x="831" y="791" type="line"/>
      <point x="762" y="890"/>
      <point x="656" y="946"/>
      <point x="528" y="946" type="curve" smooth="yes"/>
    </contour>
    <contour>
      <point x="693" y="719"/>
      <point x="798" y="639"/>
      <point x="798" y="477" type="curve" smooth="yes"/>
      <point x="798" y="315"/>
      <point x="693" y="235"/>
      <point x="568" y="235" type="curve" smooth="yes"/>
      <point x="446" y="235"/>
      <point x="365" y="321"/>
      <point x="365" y="477" type="curve" smooth="yes"/>
      <point x="365" y="633"/>
      <point x="446" y="719"/>
      <point x="568" y="719" type="curve" smooth="yes"/>
    </contour>
  </outline>
</glyph>
<glyph name="h" format="1">
  <advance width="1228"/>
  <unicode hex="0068"/>
  <outline>
    <contour>
      <point x="110" y="1312" type="line" smooth="yes"/>
      <point x="65" y="1312"/>
      <point x="47" y="1294"/>
      <point x="47" y="1209" type="curve" smooth="yes"/>
      <point x="47" y="1124"/>
      <point x="65" y="1107"/>
      <point x="110" y="1107" type="curve" smooth="yes"/>
      <point x="207" y="1107" type="line"/>
      <point x="207" y="205" type="line"/>
      <point x="130" y="205" type="line" smooth="yes"/>
      <point x="85" y="205"/>
      <point x="67" y="187"/>
      <point x="67" y="102" type="curve" smooth="yes"/>
      <point x="67" y="17"/>
      <point x="85" y="0"/>
      <point x="130" y="0" type="curve" smooth="yes"/>
      <point x="504" y="0" type="line" smooth="yes"/>
      <point x="549" y="0"/>
      <point x="567" y="17"/>
      <point x="567" y="102" type="curve" smooth="yes"/>
      <point x="567" y="187"/>
      <point x="549" y="205"/>
      <point x="504" y="205" type="curve" smooth="yes"/>
      <point x="457" y="205" type="line"/>
      <point x="457" y="368" type="line" smooth="yes"/>
      <point x="457" y="556"/>
      <point x="563" y="719"/>
      <point x="682" y="719" type="curve" smooth="yes"/>
      <point x="770" y="719"/>
      <point x="799" y="659"/>
      <point x="799" y="561" type="curve" smooth="yes"/>
      <point x="799" y="205" type="line"/>
      <point x="752" y="205" type="line" smooth="yes"/>
      <point x="707" y="205"/>
      <point x="689" y="187"/>
      <point x="689" y="102" type="curve" smooth="yes"/>
      <point x="689" y="17"/>
      <point x="707" y="0"/>
      <point x="752" y="0" type="curve" smooth="yes"/>
      <point x="1126" y="0" type="line" smooth="yes"/>
      <point x="1171" y="0"/>
      <point x="1189" y="17"/>
      <point x="1189" y="102" type="curve" smooth="yes"/>
      <point x="1189" y="187"/>
      <point x="1171" y="205"/>
      <point x="1126" y="205" type="curve" smooth="yes"/>
      <point x="1049" y="205" type="line"/>
      <point x="1049" y="620" type="line" smooth="yes"/>
      <point x="1049" y="820"/>
      <point x="931" y="946"/>
      <point x="747" y="946" type="curve" smooth="yes"/>
      <point x="637" y="946"/>
      <point x="540" y="890"/>
      <point x="457" y="763" type="curve"/>
      <point x="457" y="1249" type="line" smooth="yes"/>
      <point x="457" y="1294"/>
      <point x="439" y="1312"/>
      <point x="394" y="1312" type="curve" smooth="yes"/>
    </contour>
  </outline>
</glyph>
<glyph name="j" format="1">
  <advance width="1228"/>
  <unicode hex="006A"/>
  <outline>
    <contour>
      <point x="700" y="1383"/>
      <point x="673" y="1365"/>
      <point x="673" y="1320" type="curve" smooth="yes"/>
      <point x="673" y="1156" type="line" smooth="yes"/>
      <point x="673" y="1111"/>
      <point x="705" y="1093"/>
      <point x="800" y="1093" type="curve" smooth="yes"/>
      <point x="895" y="1093"/>
      <point x="923" y="1111"/>
      <point x="923" y="1156" type="curve" smooth="yes"/>
      <point x="923" y="1320" type="line" smooth="yes"/>
      <point x="923" y="1365"/>
      <point x="890" y="1383"/>
      <point x="795" y="1383" type="curve" smooth="yes"/>
    </contour>
    <component base="dotlessj"/>
  </outline>
</glyph>
<glyph name="l" format="1">
  <advance width="1228"/>
  <unicode hex="006C"/>
  <outline>
    <contour>
      <point x="260" y="1312" type="line" smooth="yes"/>
      <point x="215" y="1312"/>
      <point x="197" y="1294"/>
      <point x="197" y="1209" type="curve" smooth="yes"/>
      <point x="197" y="1124"/>
      <point x="215" y="1107"/>
      <point x="260" y="1107" type="curve" smooth="yes"/>
      <point x="493" y="1107" type="line"/>
      <point x="493" y="205" type="line"/>
      <point x="220" y="205" type="line" smooth="yes"/>
      <point x="175" y="205"/>
      <point x="157" y="187"/>
      <point x="157" y="102" type="curve" smooth="yes"/>
      <point x="157" y="17"/>
      <point x="175" y="0"/>
      <point x="220" y="0" type="curve" smooth="yes"/>
      <point x="1024" y="0" type="line" smooth="yes"/>
      <point x="1069" y="0"/>
      <point x="1087" y="17"/>
      <point x="1087" y="102" type="curve" smooth="yes"/>
      <point x="1087" y="187"/>
      <point x="1069" y="205"/>
      <point x="1024" y="205" type="curve" smooth="yes"/>
      <point x="743" y="205" type="line"/>
      <point x="743" y="1249" type="line" smooth="yes"/>
      <point x="743" y="1294"/>
      <point x="725" y="1312"/>
      <point x="680" y="1312" type="curve" smooth="yes"/>
    </contour>
  </outline>
</glyph>
<glyph name="n" format="1">
  <advance width="1228"/>
  <unicode hex="006E"/>
  <outline>
    <contour>
      <point x="217" y="205" type="line"/>
      <point x="140" y="205" type="line" smooth="yes"/>
      <point x="95" y="205"/>
      <point x="77" y="187"/>
      <point x="77" y="102" type="curve" smooth="yes"/>
      <point x="77" y="17"/>
      <point x="95" y="0"/>
      <point x="140" y="0" type="curve" smooth="yes"/>
      <point x="514" y="0" type="line" smooth="yes"/>
      <point x="559" y="0"/>
      <point x="577" y="17"/>
      <point x="577" y="102" type="curve" smooth="yes"/>
      <point x="577" y="187"/>
      <point x="559" y="205"/>
      <point x="514" y="205" type="curve" smooth="yes"/>
      <point x="467" y="205" type="line"/>
      <point x="467" y="368" type="line" smooth="yes"/>
      <point x="467" y="556"/>
      <point x="573" y="719"/>
      <point x="692" y="719" type="curve" smooth="yes"/>
      <point x="780" y="719"/>
      <point x="809" y="659"/>
      <point x="809" y="561" type="curve" smooth="yes"/>
      <point x="809" y="205" type="line"/>
      <point x="762" y="205" type="line" smooth="yes"/>
      <point x="717" y="205"/>
      <point x="699" y="187"/>
      <point x="699" y="102" type="curve" smooth="yes"/>
      <point x="699" y="17"/>
      <point x="717" y="0"/>
      <point x="762" y="0" type="curve" smooth="yes"/>
      <point x="1136" y="0" type="line" smooth="yes"/>
      <point x="1181" y="0"/>
      <point x="1199" y="17"/>
      <point x="1199" y="102" type="curve" smooth="yes"/>
      <point x="1199" y="187"/>
      <point x="1181" y="205"/>
      <point x="1136" y="205" type="curve" smooth="yes"/>
      <point x="1059" y="205" type="line"/>
      <point x="1059" y="620" type="line" smooth="yes"/>
      <point x="1059" y="820"/>
      <point x="941" y="946"/>
      <point x="757" y="946" type="curve" smooth="yes"/>
      <point x="632" y="946"/>
      <point x="520" y="878"/>
      <point x="427" y="716" type="curve"/>
      <point x="427" y="861" type="line" smooth="yes"/>
      <point x="427" y="906"/>
      <point x="409" y="924"/>
      <point x="364" y="924" type="curve" smooth="yes"/>
      <point x="120" y="924" type="line" smooth="yes"/>
      <point x="75" y="924"/>
      <point x="57" y="906"/>
      <point x="57" y="821" type="curve" smooth="yes"/>
      <point x="57" y="736"/>
      <point x="75" y="719"/>
      <point x="120" y="719" type="curve" smooth="yes"/>
      <point x="217" y="719" type="line"/>
    </contour>
  </outline>
</glyph>
<glyph name="o" format="1">
  <advance width="1228"/>
  <unicode hex="006F"/>
  <outline>
    <contour>
      <point x="305" y="946"/>
      <point x="107" y="742"/>
      <point x="107" y="462" type="curve" smooth="yes"/>
      <point x="107" y="182"/>
      <point x="305" y="-22"/>
      <point x="614" y="-22" type="curve" smooth="yes"/>
      <point x="923" y="-22"/>
      <point x="1121" y="182"/>
      <point x="1121" y="462" type="curve" smooth="yes"/>
      <point x="1121" y="742"/>
      <point x="923" y="946"/>
      <point x="614" y="946" type="curve" smooth="yes"/>
    </contour>
    <contour>
      <point x="759" y="719"/>
      <point x="853" y="618"/>
      <point x="853" y="462" type="curve" smooth="yes"/>
      <point x="853" y="306"/>
      <point x="759" y="205"/>
      <point x="614" y="205" type="curve" smooth="yes"/>
      <point x="469" y="205"/>
      <point x="375" y="306"/>
      <point x="375" y="462" type="curve" smooth="yes"/>
      <point x="375" y="618"/>
      <point x="469" y="719"/>
      <point x="614" y="719" type="curve" smooth="yes"/>
    </contour>
  </outline>
</glyph>
<glyph name="p" format="1">
  <advance width="1228"/>
  <unicode hex="0070"/>
  <outline>
    <contour>
      <point x="187" y="-188" type="line"/>
      <point x="100" y="-188" type="line" smooth="yes"/>
      <point x="55" y="-188"/>
      <point x="37" y="-206"/>
      <point x="37" y="-291" type="curve" smooth="yes"/>
      <point x="37" y="-376"/>
      <point x="55" y="-393"/>
      <point x="100" y="-393" type="curve" smooth="yes"/>
      <point x="684" y="-393" type="line" smooth="yes"/>
      <point x="729" y="-393"/>
      <point x="747" y="-376"/>
      <point x="747" y="-291" type="curve" smooth="yes"/>
      <point x="747" y="-206"/>
      <point x="729" y="-188"/>
      <point x="684" y="-188" type="curve" smooth="yes"/>
      <point x="437" y="-188" type="line"/>
      <point x="437" y="123" type="line"/>
      <point x="504" y="50"/>
      <point x="594" y="8"/>
      <point x="700" y="8" type="curve" smooth="yes"/>
      <point x="964" y="8"/>
      <point x="1131" y="207"/>
      <point x="1131" y="477" type="curve" smooth="yes"/>
      <point x="1131" y="747"/>
      <point x="964" y="946"/>
      <point x="700" y="946" type="curve" smooth="yes"/>
      <point x="572" y="946"/>
      <point x="465" y="890"/>
      <point x="397" y="791" type="curve"/>
      <point x="397" y="861" type="line" smooth="yes"/>
      <point x="397" y="906"/>
      <point x="379" y="924"/>
      <point x="334" y="924" type="curve" smooth="yes"/>
      <point x="100" y="924" type="line" smooth="yes"/>
      <point x="55" y="924"/>
      <point x="37" y="906"/>
      <point x="37" y="821" type="curve" smooth="yes"/>
      <point x="37" y="736"/>
      <point x="55" y="719"/>
      <point x="100" y="719" type="curve" smooth="yes"/>
      <point x="187" y="719" type="line"/>
    </contour>
    <contour>
      <point x="430" y="639"/>
      <point x="535" y="719"/>
      <point x="660" y="719" type="curve" smooth="yes"/>
      <point x="782" y="719"/>
      <point x="863" y="633"/>
      <point x="863" y="477" type="curve" smooth="yes"/>
      <point x="863" y="321"/>
      <point x="782" y="235"/>
      <point x="660" y="235" type="curve" smooth="yes"/>
      <point x="535" y="235"/>
      <point x="430" y="315"/>
      <point x="430" y="477" type="curve" smooth="yes"/>
    </contour>
  </outline>
</glyph>
<glyph name="q" format="1">
  <advance width="1228"/>
  <unicode hex="0071"/>
  <outline>
    <contour>
      <point x="264" y="946"/>
      <point x="97" y="747"/>
      <point x="97" y="477" type="curve" smooth="yes"/>
      <point x="97" y="207"/>
      <point x="264" y="8"/>
      <point x="528" y="8" type="curve" smooth="yes"/>
      <point x="633" y="8"/>
      <point x="724" y="50"/>
      <point x="791" y="123" type="curve"/>
      <point x="791" y="-183" type="line"/>
      <point x="574" y="-183" type="line" smooth="yes"/>
      <point x="529" y="-183"/>
      <point x="511" y="-201"/>
      <point x="511" y="-286" type="curve" smooth="yes"/>
      <point x="511" y="-371"/>
      <point x="529" y="-388"/>
      <point x="574" y="-388" type="curve" smooth="yes"/>
      <point x="1148" y="-388" type="line" smooth="yes"/>
      <point x="1193" y="-388"/>
      <point x="1211" y="-371"/>
      <point x="1211" y="-286" type="curve" smooth="yes"/>
      <point x="1211" y="-201"/>
      <point x="1193" y="-183"/>
      <point x="1148" y="-183" type="curve" smooth="yes"/>
      <point x="1041" y="-183" type="line"/>
      <point x="1041" y="719" type="line"/>
      <point x="1128" y="719" type="line" smooth="yes"/>
      <point x="1173" y="719"/>
      <point x="1191" y="736"/>
      <point x="1191" y="821" type="curve" smooth="yes"/>
      <point x="1191" y="906"/>
      <point x="1173" y="924"/>
      <point x="1128" y="924" type="curve" smooth="yes"/>
      <point x="894" y="924" type="line" smooth="yes"/>
      <point x="849" y="924"/>
      <point x="831" y="906"/>
      <point x="831" y="861" type="curve" smooth="yes"/>
      <point x="831" y="791" type="line"/>
      <point x="762" y="890"/>
      <point x="656" y="946"/>
      <point x="528" y="946" type="curve" smooth="yes"/>
    </contour>
    <contour>
      <point x="693" y="719"/>
      <point x="798" y="639"/>
      <point x="798" y="477" type="curve" smooth="yes"/>
      <point x="798" y="315"/>
      <point x="693" y="235"/>
      <point x="568" y="235" type="curve" smooth="yes"/>
      <point x="446" y="235"/>
      <point x="365" y="321"/>
      <point x="365" y="477" type="curve" smooth="yes"/>
      <point x="365" y="633"/>
      <point x="446" y="719"/>
      <point x="568" y="719" type="curve" smooth="yes"/>
    </contour>
  </outline>
</glyph>
<glyph name="s" format="1">
  <advance width="1228"/>
  <unicode hex="0073"/>
  <outline>
    <contour>
      <point x="414" y="49" type="line"/>
      <point x="486" y="6"/>
      <point x="569" y="-22"/>
      <point x="672" y="-22" type="curve" smooth="yes"/>
      <point x="928" y="-22"/>
      <point x="1070" y="98"/>
      <point x="1070" y="287" type="curve" smooth="yes"/>
      <point x="1070" y="424"/>
      <point x="997" y="495"/>
      <point x="900" y="535" type="curve" smooth="yes"/>
      <point x="769" y="589"/>
      <point x="594" y="585"/>
      <point x="496" y="609" type="curve" smooth="yes"/>
      <point x="451" y="620"/>
      <point x="422" y="638"/>
      <point x="422" y="669" type="curve" smooth="yes"/>
      <point x="422" y="714"/>
      <point x="467" y="746"/>
      <point x="548" y="746" type="curve" smooth="yes"/>
      <point x="675" y="746"/>
      <point x="777" y="717"/>
      <point x="859" y="630" type="curve" smooth="yes"/>
      <point x="873" y="615"/>
      <point x="897" y="609"/>
      <point x="932" y="609" type="curve" smooth="yes"/>
      <point x="997" y="609"/>
      <point x="1024" y="627"/>
      <point x="1024" y="672" type="curve" smooth="yes"/>
      <point x="1024" y="883" type="line" smooth="yes"/>
      <point x="1024" y="928"/>
      <point x="991" y="946"/>
      <point x="906" y="946" type="curve" smooth="yes"/>
      <point x="821" y="946"/>
      <point x="794" y="928"/>
      <point x="794" y="883" type="curve" smooth="yes"/>
      <point x="794" y="873" type="line"/>
      <point x="720" y="919"/>
      <point x="634" y="946"/>
      <point x="526" y="946" type="curve" smooth="yes"/>
      <point x="320" y="946"/>
      <point x="164" y="838"/>
      <point x="164" y="660" type="curve" smooth="yes"/>
      <point x="164" y="536"/>
      <point x="222" y="464"/>
      <point x="302" y="420" type="curve" smooth="yes"/>
      <point x="429" y="350"/>
      <point x="614" y="350"/>
      <point x="723" y="326" type="curve" smooth="yes"/>
      <point x="777" y="314"/>
      <point x="812" y="296"/>
      <point x="812" y="261" type="curve" smooth="yes"/>
      <point x="812" y="208"/>
      <point x="763" y="178"/>
      <point x="652" y="178" type="curve" smooth="yes"/>
      <point x="537" y="178"/>
      <point x="424" y="210"/>
      <point x="353" y="299" type="curve" smooth="yes"/>
      <point x="339" y="317"/>
      <point x="314" y="327"/>
      <point x="270" y="327" type="curve" smooth="yes"/>
      <point x="205" y="327"/>
      <point x="174" y="309"/>
      <point x="174" y="264" type="curve" smooth="yes"/>
      <point x="174" y="41" type="line" smooth="yes"/>
      <point x="174" y="-4"/>
      <point x="207" y="-22"/>
      <point x="292" y="-22" type="curve" smooth="yes"/>
      <point x="377" y="-22"/>
      <point x="414" y="-4"/>
      <point x="414" y="41" type="curve" smooth="yes"/>
    </contour>
  </outline>
</glyph>
<glyph name="v" format="1">
  <advance width="1228"/>
  <unicode hex="0076"/>
  <outline>
    <contour>
      <point x="169" y="719" type="line"/>
      <point x="460" y="43" type="line" smooth="yes"/>
      <point x="479" y="-1"/>
      <point x="514" y="-22"/>
      <point x="611" y="-22" type="curve" smooth="yes"/>
      <point x="707" y="-22"/>
      <point x="745" y="-2"/>
      <point x="764" y="43" type="curve" smooth="yes"/>
      <point x="1057" y="719" type="line"/>
      <point x="1125" y="719" type="line" smooth="yes"/>
      <point x="1170" y="719"/>
      <point x="1188" y="736"/>
      <point x="1188" y="821" type="curve" smooth="yes"/>
      <point x="1188" y="906"/>
      <point x="1170" y="924"/>
      <point x="1125" y="924" type="curve" smooth="yes"/>
      <point x="741" y="924" type="line" smooth="yes"/>
      <point x="696" y="924"/>
      <point x="678" y="906"/>
      <point x="678" y="821" type="curve" smooth="yes"/>
      <point x="678" y="736"/>
      <point x="696" y="719"/>
      <point x="741" y="719" type="curve" smooth="yes"/>
      <point x="796" y="719" type="line"/>
      <point x="617" y="278" type="line"/>
      <point x="440" y="719" type="line"/>
      <point x="507" y="719" type="line" smooth="yes"/>
      <point x="552" y="719"/>
      <point x="570" y="736"/>
      <point x="570" y="821" type="curve" smooth="yes"/>
      <point x="570" y="906"/>
      <point x="552" y="924"/>
      <point x="507" y="924" type="curve" smooth="yes"/>
      <point x="103" y="924" type="line" smooth="yes"/>
      <point x="58" y="924"/>
      <point x="40" y="906"/>
      <point x="40" y="821" type="curve" smooth="yes"/>
      <point x="40" y="736"/>
      <point x="58" y="719"/>
      <point x="103" y="719" type="curve" smooth="yes"/>
    </contour>
  </outline>
</glyph>
<glyph name="w" format="1">
  <advance width="1228"/>
  <unicode hex="0077"/>
  <outline>
    <contour>
      <point x="77" y="719" type="line"/>
      <point x="220" y="43" type="line" smooth="yes"/>
      <point x="230" y="-4"/>
      <point x="258" y="-22"/>
      <point x="339" y="-22" type="curve" smooth="yes"/>
      <point x="420" y="-22"/>
      <point x="450" y="-1"/>
      <point x="468" y="43" type="curve" smooth="yes"/>
      <point x="610" y="398" type="line"/>
      <point x="750" y="43" type="line" smooth="yes"/>
      <point x="767" y="-1"/>
      <point x="796" y="-22"/>
      <point x="877" y="-22" type="curve" smooth="yes"/>
      <point x="958" y="-22"/>
      <point x="988" y="-5"/>
      <point x="998" y="43" type="curve" smooth="yes"/>
      <point x="1144" y="719" type="line"/>
      <point x="1185" y="719" type="line" smooth="yes"/>
      <point x="1230" y="719"/>
      <point x="1248" y="736"/>
      <point x="1248" y="821" type="curve" smooth="yes"/>
      <point x="1248" y="906"/>
      <point x="1230" y="924"/>
      <point x="1185" y="924" type="curve" smooth="yes"/>
      <point x="851" y="924" type="line" smooth="yes"/>
      <point x="806" y="924"/>
      <point x="788" y="906"/>
      <point x="788" y="821" type="curve" smooth="yes"/>
      <point x="788" y="736"/>
      <point x="806" y="719"/>
      <point x="851" y="719" type="curve" smooth="yes"/>
      <point x="923" y="719" type="line"/>
      <point x="845" y="331" type="line"/>
      <point x="708" y="677" type="line" smooth="yes"/>
      <point x="694" y="711"/>
      <point x="670" y="727"/>
      <point x="611" y="727" type="curve" smooth="yes"/>
      <point x="553" y="727"/>
      <point x="529" y="705"/>
      <point x="515" y="670" type="curve" smooth="yes"/>
      <point x="377" y="331" type="line"/>
      <point x="302" y="719" type="line"/>
      <point x="387" y="719" type="line" smooth="yes"/>
      <point x="432" y="719"/>
      <point x="450" y="736"/>
      <point x="450" y="821" type="curve" smooth="yes"/>
      <point x="450" y="906"/>
      <point x="432" y="924"/>
      <point x="387" y="924" type="curve" smooth="yes"/>
      <point x="43" y="924" type="line" smooth="yes"/>
      <point x="-2" y="924"/>
      <point x="-20" y="906"/>
      <point x="-20" y="821" type="curve" smooth="yes"/>
      <point x="-20" y="736"/>
      <point x="-2" y="719"/>
      <point x="43" y="719" type="curve" smooth="yes"/>
    </contour>
  </outline>
</glyph>
<glyph name="braceleft" format="1">
  <advance width="1228"/>
  <unicode hex="007B"/>
  <outline>
    <contour>
      <point x="634" y="599"/>
      <point x="698" y="683"/>
      <point x="698" y="820" type="curve" smooth="yes"/>
      <point x="698" y="977" type="line" smooth="yes"/>
      <point x="698" y="1110"/>
      <point x="751" y="1167"/>
      <point x="855" y="1167" type="curve" smooth="yes"/>
      <point x="900" y="1167"/>
      <point x="918" y="1184"/>
      <point x="918" y="1269" type="curve" smooth="yes"/>
      <point x="918" y="1354"/>
      <point x="900" y="1372"/>
      <point x="855" y="1372" type="curve" smooth="yes"/>
      <point x="588" y="1372"/>
      <point x="448" y="1247"/>
      <point x="448" y="989" type="curve" smooth="yes"/>
      <point x="448" y="830" type="line" smooth="yes"/>
      <point x="448" y="710"/>
      <point x="395" y="644"/>
      <point x="268" y="644" type="curve" smooth="yes"/>
      <point x="223" y="644"/>
      <point x="205" y="627"/>
      <point x="205" y="542" type="curve" smooth="yes"/>
      <point x="205" y="457"/>
      <point x="223" y="439"/>
      <point x="268" y="439" type="curve" smooth="yes"/>
      <point x="395" y="439"/>
      <point x="448" y="373"/>
      <point x="448" y="253" type="curve" smooth="yes"/>
      <point x="448" y="50" type="line" smooth="yes"/>
      <point x="448" y="-208"/>
      <point x="588" y="-333"/>
      <point x="855" y="-333" type="curve" smooth="yes"/>
      <point x="900" y="-333"/>
      <point x="918" y="-315"/>
      <point x="918" y="-230" type="curve" smooth="yes"/>
      <point x="918" y="-145"/>
      <point x="900" y="-128"/>
      <point x="855" y="-128" type="curve" smooth="yes"/>
      <point x="751" y="-128"/>
      <point x="698" y="-71"/>
      <point x="698" y="62" type="curve" smooth="yes"/>
      <point x="698" y="263" type="line" smooth="yes"/>
      <point x="698" y="400"/>
      <point x="634" y="485"/>
      <point x="540" y="542" type="curve"/>
    </contour>
  </outline>
</glyph>
<glyph name="bar" format="1">
  <advance width="1228"/>
  <unicode hex="007C"/>
  <outline>
    <contour>
      <point x="489" y="-347" type="line" smooth="yes"/>
      <point x="489" y="-392"/>
      <point x="522" y="-410"/>
      <point x="607" y="-410" type="curve" smooth="yes"/>
      <point x="692" y="-410"/>
      <point x="739" y="-392"/>
      <point x="739" y="-347" type="curve" smooth="yes"/>
      <point x="739" y="1271" type="line" smooth="yes"/>
      <point x="739" y="1316"/>
      <point x="706" y="1334"/>
      <point x="621" y="1334" type="curve" smooth="yes"/>
      <point x="536" y="1334"/>
      <point x="489" y="1316"/>
      <point x="489" y="1271" type="curve" smooth="yes"/>
    </contour>
  </outline>
</glyph>
<glyph name="braceright" format="1">
  <advance width="1228"/>
  <unicode hex="007D"/>
  <outline>
    <contour>
      <point x="328" y="1372"/>
      <point x="310" y="1354"/>
      <point x="310" y="1269" type="curve" smooth="yes"/>
      <point x="310" y="1184"/>
      <point x="328" y="1167"/>
      <point x="373" y="1167" type="curve" smooth="yes"/>
      <point x="477" y="1167"/>
      <point x="530" y="1110"/>
      <point x="530" y="977" type="curve" smooth="yes"/>
      <point x="530" y="820" type="line" smooth="yes"/>
      <point x="530" y="683"/>
      <point x="594" y="599"/>
      <point x="688" y="542" type="curve"/>
      <point x="594" y="485"/>
      <point x="530" y="400"/>
      <point x="530" y="263" type="curve" smooth="yes"/>
      <point x="530" y="62" type="line" smooth="yes"/>
      <point x="530" y="-71"/>
      <point x="477" y="-128"/>
      <point x="373" y="-128" type="curve" smooth="yes"/>
      <point x="328" y="-128"/>
      <point x="310" y="-145"/>
      <point x="310" y="-230" type="curve" smooth="yes"/>
      <point x="310" y="-315"/>
      <point x="328" y="-333"/>
      <point x="373" y="-333" type="curve" smooth="yes"/>
      <point x="640" y="-333"/>
      <point x="780" y="-208"/>
      <point x="780" y="50" type="curve" smooth="yes"/>
      <point x="780" y="253" type="line" smooth="yes"/>
      <point x="780" y="373"/>
      <point x="833" y="439"/>
      <point x="960" y="439" type="curve" smooth="yes"/>
      <point x="1005" y="439"/>
      <point x="1023" y="457"/>
      <point x="1023" y="542" type="curve" smooth="yes"/>
      <point x="1023" y="627"/>
      <point x="1005" y="644"/>
      <point x="960" y="644" type="curve" smooth="yes"/>
      <point x="833" y="644"/>
      <point x="780" y="710"/>
      <point x="780" y="830" type="curve" smooth="yes"/>
      <point x="780" y="989" type="line" smooth="yes"/>
      <point x="780" y="1247"/>
      <point x="640" y="1372"/>
      <point x="373" y="1372" type="curve" smooth="yes"/>
    </contour>
  </outline>
</glyph>
<glyph name="asciitilde" format="1">
  <advance width="1228"/>
  <unicode hex="007E"/>
  <outline>
    <contour>
      <point x="335" y="740"/>
      <point x="252" y="714"/>
      <point x="161" y="631" type="curve" smooth="yes"/>
      <point x="139" y="611"/>
      <point x="139" y="559"/>
      <point x="154" y="516" type="curve" smooth="yes"/>
      <point x="170" y="472"/>
      <point x="201" y="438"/>
      <point x="239" y="460" type="curve" smooth="yes"/>
      <point x="296" y="492"/>
      <point x="349" y="504"/>
      <point x="402" y="504" type="curve" smooth="yes"/>
      <point x="541" y="504"/>
      <point x="671" y="422"/>
      <point x="813" y="422" type="curve" smooth="yes"/>
      <point x="893" y="422"/>
      <point x="976" y="448"/>
      <point x="1068" y="531" type="curve" smooth="yes"/>
      <point x="1090" y="551"/>
      <point x="1090" y="603"/>
      <point x="1075" y="646" type="curve" smooth="yes"/>
      <point x="1059" y="690"/>
      <point x="1028" y="724"/>
      <point x="990" y="702" type="curve" smooth="yes"/>
      <point x="933" y="669"/>
      <point x="879" y="658"/>
      <point x="826" y="658" type="curve" smooth="yes"/>
      <point x="686" y="658"/>
      <point x="557" y="740"/>
      <point x="415" y="740" type="curve" smooth="yes"/>
    </contour>
  </outline>
</glyph>
<glyph name="exclamdown" format="1">
  <advance width="1228"/>
  <unicode hex="00A1"/>
  <outline>
    <contour>
      <point x="739" y="-22" type="line" smooth="yes"/>
      <point x="769" y="-22"/>
      <point x="784" y="-7"/>
      <point x="780" y="28" type="curve" smooth="yes"/>
      <point x="707" y="605" type="line" smooth="yes"/>
      <point x="701" y="656"/>
      <point x="666" y="683"/>
      <point x="614" y="683" type="curve" smooth="yes"/>
      <point x="562" y="683"/>
      <point x="527" y="656"/>
      <point x="521" y="605" type="curve" smooth="yes"/>
      <point x="448" y="28" type="line" smooth="yes"/>
      <point x="444" y="-7"/>
      <point x="459" y="-22"/>
      <point x="489" y="-22" type="curve" smooth="yes"/>
    </contour>
    <contour>
      <point x="803" y="1124"/>
      <point x="719" y="1209"/>
      <point x="614" y="1209" type="curve" smooth="yes"/>
      <point x="509" y="1209"/>
      <point x="425" y="1124"/>
      <point x="425" y="1020" type="curve" smooth="yes"/>
      <point x="425" y="915"/>
      <point x="509" y="830"/>
      <point x="614" y="830" type="curve" smooth="yes"/>
      <point x="718" y="830"/>
      <point x="803" y="915"/>
      <point x="803" y="1020" type="curve" smooth="yes"/>
    </contour>
  </outline>
</glyph>
<glyph name="currency" format="1">
  <advance width="1228"/>
  <unicode hex="00A4"/>
  <outline>
    <contour>
      <point x="380" y="1006"/>
      <point x="204" y="836"/>
      <point x="204" y="602" type="curve" smooth="yes"/>
      <point x="204" y="368"/>
      <point x="380" y="198"/>
      <point x="614" y="198" type="curve" smooth="yes"/>
      <point x="848" y="198"/>
      <point x="1024" y="368"/>
      <point x="1024" y="602" type="curve" smooth="yes"/>
      <point x="1024" y="836"/>
      <point x="848" y="1006"/>
      <point x="614" y="1006" type="curve" smooth="yes"/>
    </contour>
    <contour>
      <point x="123" y="271" type="line" smooth="yes"/>
      <point x="91" y="239"/>
      <point x="91" y="214"/>
      <point x="159" y="147" type="curve" smooth="yes"/>
      <point x="226" y="79"/>
      <point x="251" y="80"/>
      <point x="282" y="112" type="curve" smooth="yes"/>
      <point x="480.288" y="310.288" type="line"/>
      <point x="321.814" y="469.814" type="line"/>
    </contour>
    <contour>
      <point x="747.712" y="310.288" type="line"/>
      <point x="946" y="112" type="line" smooth="yes"/>
      <point x="977" y="80"/>
      <point x="1002" y="79"/>
      <point x="1069" y="147" type="curve" smooth="yes"/>
      <point x="1137" y="214"/>
      <point x="1137" y="239"/>
      <point x="1105" y="271" type="curve" smooth="yes"/>
      <point x="906.186" y="469.814" type="line"/>
    </contour>
    <contour>
      <point x="746.294" y="894.294" type="line"/>
      <point x="905.603" y="735.603" type="line"/>
      <point x="1104" y="934" type="line" smooth="yes"/>
      <point x="1136" y="965"/>
      <point x="1137" y="990"/>
      <point x="1069" y="1057" type="curve" smooth="yes"/>
      <point x="1002" y="1125"/>
      <point x="977" y="1125"/>
      <point x="945" y="1093" type="curve" smooth="yes"/>
    </contour>
    <contour>
      <point x="251" y="1125"/>
      <point x="226" y="1125"/>
      <point x="159" y="1057" type="curve" smooth="yes"/>
      <point x="91" y="990"/>
      <point x="92" y="965"/>
      <point x="124" y="934" type="curve" smooth="yes"/>
      <point x="322.397" y="735.603" type="line"/>
      <point x="481.706" y="894.294" type="line"/>
      <point x="283" y="1093" type="line" smooth="yes"/>
    </contour>
    <contour>
      <point x="726" y="790"/>
      <point x="802" y="711"/>
      <point x="802" y="602" type="curve" smooth="yes"/>
      <point x="802" y="493"/>
      <point x="726" y="414"/>
      <point x="614" y="414" type="curve" smooth="yes"/>
      <point x="502" y="414"/>
      <point x="426" y="493"/>
      <point x="426" y="602" type="curve" smooth="yes"/>
      <point x="426" y="711"/>
      <point x="502" y="790"/>
      <point x="614" y="790" type="curve" smooth="yes"/>
    </contour>
  </outline>
</glyph>
<glyph name="brokenbar" format="1">
  <advance width="1228"/>
  <unicode hex="00A6"/>
  <outline>
    <contour>
      <point x="489" y="-352" type="line" smooth="yes"/>
      <point x="489" y="-397"/>
      <point x="522" y="-415"/>
      <point x="607" y="-415" type="curve" smooth="yes"/>
      <point x="692" y="-415"/>
      <point x="739" y="-397"/>
      <point x="739" y="-352" type="curve" smooth="yes"/>
      <point x="739" y="271" type="line" smooth="yes"/>
      <point x="739" y="316"/>
      <point x="706" y="334"/>
      <point x="621" y="334" type="curve" smooth="yes"/>
      <point x="536" y="334"/>
      <point x="489" y="316"/>
      <point x="489" y="271" type="curve" smooth="yes"/>
    </contour>
    <contour>
      <point x="489" y="648" type="line" smooth="yes"/>
      <point x="489" y="603"/>
      <point x="522" y="585"/>
      <point x="607" y="585" type="curve" smooth="yes"/>
      <point x="692" y="585"/>
      <point x="739" y="603"/>
      <point x="739" y="648" type="curve" smooth="yes"/>
      <point x="739" y="1271" type="line" smooth="yes"/>
      <point x="739" y="1316"/>
      <point x="706" y="1334"/>
      <point x="621" y="1334" type="curve" smooth="yes"/>
      <point x="536" y="1334"/>
      <point x="489" y="1316"/>
      <point x="489" y="1271" type="curve" smooth="yes"/>
    </contour>
  </outline>
</glyph>
<glyph name="section" format="1">
  <advance width="1228"/>
  <unicode hex="00A7"/>
  <outline>
    <contour>
      <point x="559" y="1187" type="line" smooth="yes"/>
      <point x="364" y="1187"/>
      <point x="258" y="1077"/>
      <point x="258" y="916" type="curve" smooth="yes"/>
      <point x="258" y="880"/>
      <point x="263" y="847"/>
      <point x="272" y="816" type="curve"/>
      <point x="199" y="756"/>
      <point x="159" y="678"/>
      <point x="159" y="583" type="curve" smooth="yes"/>
      <point x="159" y="452"/>
      <point x="226" y="352"/>
      <point x="345" y="293" type="curve" smooth="yes"/>
      <point x="636" y="148" type="line" smooth="yes"/>
      <point x="695" y="119"/>
      <point x="722" y="82"/>
      <point x="722" y="37" type="curve" smooth="yes"/>
      <point x="722" y="-10"/>
      <point x="690" y="-35"/>
      <point x="633" y="-35" type="curve" smooth="yes"/>
      <point x="440" y="-35" type="line"/>
      <point x="440" y="97" type="line" smooth="yes"/>
      <point x="440" y="142"/>
      <point x="417" y="160"/>
      <point x="332" y="160" type="curve" smooth="yes"/>
      <point x="247" y="160"/>
      <point x="210" y="142"/>
      <point x="210" y="97" type="curve" smooth="yes"/>
      <point x="210" y="-165" type="line" smooth="yes"/>
      <point x="210" y="-211"/>
      <point x="229" y="-230"/>
      <point x="275" y="-230" type="curve" smooth="yes"/>
      <point x="669" y="-230" type="line" smooth="yes"/>
      <point x="864" y="-230"/>
      <point x="970" y="-120"/>
      <point x="970" y="41" type="curve" smooth="yes"/>
      <point x="970" y="77"/>
      <point x="965" y="110"/>
      <point x="955" y="140" type="curve"/>
      <point x="1028" y="201"/>
      <point x="1069" y="279"/>
      <point x="1069" y="374" type="curve" smooth="yes"/>
      <point x="1069" y="505"/>
      <point x="1002" y="605"/>
      <point x="883" y="664" type="curve" smooth="yes"/>
      <point x="592" y="809" type="line" smooth="yes"/>
      <point x="533" y="838"/>
      <point x="506" y="875"/>
      <point x="506" y="920" type="curve" smooth="yes"/>
      <point x="506" y="967"/>
      <point x="538" y="992"/>
      <point x="595" y="992" type="curve" smooth="yes"/>
      <point x="788" y="992" type="line"/>
      <point x="788" y="860" type="line" smooth="yes"/>
      <point x="788" y="815"/>
      <point x="811" y="797"/>
      <point x="896" y="797" type="curve" smooth="yes"/>
      <point x="981" y="797"/>
      <point x="1018" y="815"/>
      <point x="1018" y="860" type="curve" smooth="yes"/>
      <point x="1018" y="1122" type="line" smooth="yes"/>
      <point x="1018" y="1168"/>
      <point x="999" y="1187"/>
      <point x="953" y="1187" type="curve" smooth="yes"/>
    </contour>
    <contour>
      <point x="431" y="635"/>
      <point x="443" y="628"/>
      <point x="456" y="622" type="curve" smooth="yes"/>
      <point x="721" y="490" type="line" smooth="yes"/>
      <point x="789" y="456"/>
      <point x="821" y="418"/>
      <point x="821" y="365" type="curve" smooth="yes"/>
      <point x="821" y="346"/>
      <point x="817" y="330"/>
      <point x="808" y="315" type="curve"/>
      <point x="797" y="322"/>
      <point x="786" y="328"/>
      <point x="772" y="335" type="curve" smooth="yes"/>
      <point x="507" y="467" type="line" smooth="yes"/>
      <point x="439" y="501"/>
      <point x="407" y="539"/>
      <point x="407" y="592" type="curve" smooth="yes"/>
      <point x="407" y="610"/>
      <point x="411" y="627"/>
      <point x="419" y="642" type="curve"/>
    </contour>
  </outline>
</glyph>
<glyph name="dieresis" format="1">
  <advance width="1228"/>
  <unicode hex="00A8"/>
  <outline>
    <contour>
      <point x="761" y="1345"/>
      <point x="694" y="1278"/>
      <point x="694" y="1195" type="curve" smooth="yes"/>
      <point x="694" y="1112"/>
      <point x="761" y="1045"/>
      <point x="844" y="1045" type="curve" smooth="yes"/>
      <point x="927" y="1045"/>
      <point x="994" y="1112"/>
      <point x="994" y="1195" type="curve" smooth="yes"/>
      <point x="994" y="1278"/>
      <point x="927" y="1345"/>
      <point x="844" y="1345" type="curve" smooth="yes"/>
    </contour>
    <contour>
      <point x="301" y="1345"/>
      <point x="234" y="1278"/>
      <point x="234" y="1195" type="curve" smooth="yes"/>
      <point x="234" y="1112"/>
      <point x="301" y="1045"/>
      <point x="384" y="1045" type="curve" smooth="yes"/>
      <point x="467" y="1045"/>
      <point x="534" y="1112"/>
      <point x="534" y="1195" type="curve" smooth="yes"/>
      <point x="534" y="1278"/>
      <point x="467" y="1345"/>
      <point x="384" y="1345" type="curve" smooth="yes"/>
    </contour>
  </outline>
</glyph>
<glyph name="copyright" format="1">
  <advance width="1228"/>
  <unicode hex="00A9"/>
  <outline>
    <contour>
      <point x="273" y="1209"/>
      <point x="28" y="944"/>
      <point x="28" y="594" type="curve" smooth="yes"/>
      <point x="28" y="244"/>
      <point x="273" y="-22"/>
      <point x="613" y="-22" type="curve" smooth="yes"/>
      <point x="953" y="-22"/>
      <point x="1198" y="244"/>
      <point x="1198" y="594" type="curve" smooth="yes"/>
      <point x="1198" y="944"/>
      <point x="953" y="1209"/>
      <point x="613" y="1209" type="curve" smooth="yes"/>
    </contour>
    <contour>
      <point x="447" y="937"/>
      <point x="307" y="809"/>
      <point x="307" y="593" type="curve" smooth="yes"/>
      <point x="307" y="377"/>
      <point x="447" y="249"/>
      <point x="639" y="249" type="curve" smooth="yes"/>
      <point x="701" y="249"/>
      <point x="768" y="264"/>
      <point x="825" y="292" type="curve" smooth="yes"/>
      <point x="864" y="311"/>
      <point x="868" y="340"/>
      <point x="848" y="395" type="curve" smooth="yes"/>
      <point x="829" y="446"/>
      <point x="811" y="462"/>
      <point x="777" y="450" type="curve" smooth="yes"/>
      <point x="731" y="434"/>
      <point x="686" y="422"/>
      <point x="639" y="422" type="curve" smooth="yes"/>
      <point x="545" y="422"/>
      <point x="485" y="483"/>
      <point x="485" y="593" type="curve" smooth="yes"/>
      <point x="485" y="703"/>
      <point x="545" y="764"/>
      <point x="639" y="764" type="curve" smooth="yes"/>
      <point x="686" y="764"/>
      <point x="731" y="752"/>
      <point x="777" y="736" type="curve" smooth="yes"/>
      <point x="811" y="724"/>
      <point x="829" y="740"/>
      <point x="848" y="791" type="curve" smooth="yes"/>
      <point x="868" y="846"/>
      <point x="864" y="875"/>
      <point x="825" y="894" type="curve" smooth="yes"/>
      <point x="768" y="922"/>
      <point x="701" y="937"/>
      <point x="639" y="937" type="curve" smooth="yes"/>
    </contour>
    <contour>
      <point x="876" y="1056"/>
      <point x="1045" y="857"/>
      <point x="1045" y="594" type="curve" smooth="yes"/>
      <point x="1045" y="331"/>
      <point x="876" y="131"/>
      <point x="613" y="131" type="curve" smooth="yes"/>
      <point x="350" y="131"/>
      <point x="181" y="331"/>
      <point x="181" y="594" type="curve" smooth="yes"/>
      <point x="181" y="857"/>
      <point x="350" y="1056"/>
      <point x="613" y="1056" type="curve" smooth="yes"/>
    </contour>
  </outline>
</glyph>
<glyph name="logicalnot" format="1">
  <advance width="1228"/>
  <unicode hex="00AC"/>
  <outline>
    <contour>
      <point x="183" y="845" type="line" smooth="yes"/>
      <point x="138" y="845"/>
      <point x="120" y="828"/>
      <point x="120" y="738" type="curve" smooth="yes"/>
      <point x="120" y="648"/>
      <point x="138" y="630"/>
      <point x="183" y="630" type="curve" smooth="yes"/>
      <point x="848" y="630" type="line"/>
      <point x="848" y="348" type="line" smooth="yes"/>
      <point x="848" y="303"/>
      <point x="871" y="285"/>
      <point x="966" y="285" type="curve" smooth="yes"/>
      <point x="1061" y="285"/>
      <point x="1098" y="303"/>
      <point x="1098" y="348" type="curve" smooth="yes"/>
      <point x="1098" y="780" type="line" smooth="yes"/>
      <point x="1098" y="826"/>
      <point x="1079" y="845"/>
      <point x="1033" y="845" type="curve" smooth="yes"/>
    </contour>
  </outline>
</glyph>
<glyph name="registered" format="1">
  <advance width="1228"/>
  <unicode hex="00AE"/>
  <outline>
    <contour>
      <point x="273" y="1209"/>
      <point x="28" y="944"/>
      <point x="28" y="594" type="curve" smooth="yes"/>
      <point x="28" y="244"/>
      <point x="273" y="-22"/>
      <point x="613" y="-22" type="curve" smooth="yes"/>
      <point x="953" y="-22"/>
      <point x="1198" y="244"/>
      <point x="1198" y="594" type="curve" smooth="yes"/>
      <point x="1198" y="944"/>
      <point x="953" y="1209"/>
      <point x="613" y="1209" type="curve" smooth="yes"/>
    </contour>
    <contour>
      <point x="876" y="1056"/>
      <point x="1045" y="857"/>
      <point x="1045" y="594" type="curve" smooth="yes"/>
      <point x="1045" y="331"/>
      <point x="876" y="131"/>
      <point x="613" y="131" type="curve" smooth="yes"/>
      <point x="350" y="131"/>
      <point x="181" y="331"/>
      <point x="181" y="594" type="curve" smooth="yes"/>
      <point x="181" y="857"/>
      <point x="350" y="1056"/>
      <point x="613" y="1056" type="curve" smooth="yes"/>
    </contour>
    <contour>
      <point x="429" y="917" type="line" smooth="yes"/>
      <point x="384" y="917"/>
      <point x="366" y="899"/>
      <point x="366" y="854" type="curve" smooth="yes"/>
      <point x="366" y="335" type="line" smooth="yes"/>
      <point x="366" y="289"/>
      <point x="380" y="270"/>
      <point x="451" y="270" type="curve" smooth="yes"/>
      <point x="522" y="270"/>
      <point x="536" y="289"/>
      <point x="536" y="335" type="curve" smooth="yes"/>
      <point x="536" y="443" type="line"/>
      <point x="610" y="443" type="line"/>
      <point x="729" y="290" type="line" smooth="yes"/>
      <point x="757" y="254"/>
      <point x="784" y="253"/>
      <point x="838" y="290" type="curve" smooth="yes"/>
      <point x="892" y="327"/>
      <point x="893" y="355"/>
      <point x="863" y="390" type="curve" smooth="yes"/>
      <point x="786" y="478" type="line"/>
      <point x="864" y="515"/>
      <point x="907" y="585"/>
      <point x="907" y="675" type="curve" smooth="yes"/>
      <point x="907" y="805"/>
      <point x="813" y="917"/>
      <point x="665" y="917" type="curve" smooth="yes"/>
    </contour>
    <contour>
      <point x="697" y="752"/>
      <point x="729" y="720"/>
      <point x="729" y="675" type="curve" smooth="yes"/>
      <point x="729" y="627"/>
      <point x="695" y="598"/>
      <point x="635" y="598" type="curve" smooth="yes"/>
      <point x="536" y="598" type="line"/>
      <point x="536" y="752" type="line"/>
      <point x="644" y="752" type="line" smooth="yes"/>
    </contour>
  </outline>
</glyph>
<glyph name="macron" format="1">
  <advance width="1228"/>
  <unicode hex="00AF"/>
  <outline>
    <contour>
      <point x="333" y="1275" type="line" smooth="yes"/>
      <point x="288" y="1275"/>
      <point x="270" y="1257"/>
      <point x="270" y="1172" type="curve" smooth="yes"/>
      <point x="270" y="1087"/>
      <point x="288" y="1070"/>
      <point x="333" y="1070" type="curve" smooth="yes"/>
      <point x="895" y="1070" type="line" smooth="yes"/>
      <point x="940" y="1070"/>
      <point x="958" y="1087"/>
      <point x="958" y="1172" type="curve" smooth="yes"/>
      <point x="958" y="1257"/>
      <point x="940" y="1275"/>
      <point x="895" y="1275" type="curve" smooth="yes"/>
    </contour>
  </outline>
</glyph>
<glyph name="degree" format="1">
  <advance width="1228"/>
  <unicode hex="00B0"/>
  <outline>
    <contour>
      <point x="220" y="710"/>
      <point x="365" y="565"/>
      <point x="542" y="565" type="curve" smooth="yes"/>
      <point x="719" y="565"/>
      <point x="864" y="710"/>
      <point x="864" y="887" type="curve" smooth="yes"/>
      <point x="864" y="1064"/>
      <point x="719" y="1209"/>
      <point x="542" y="1209" type="curve" smooth="yes"/>
      <point x="365" y="1209"/>
      <point x="220" y="1064"/>
      <point x="220" y="887" type="curve" smooth="yes"/>
    </contour>
    <contour>
      <point x="431" y="948"/>
      <point x="481" y="998"/>
      <point x="542" y="998" type="curve" smooth="yes"/>
      <point x="603" y="998"/>
      <point x="653" y="948"/>
      <point x="653" y="887" type="curve" smooth="yes"/>
      <point x="653" y="826"/>
      <point x="603" y="776"/>
      <point x="542" y="776" type="curve" smooth="yes"/>
      <point x="481" y="776"/>
      <point x="431" y="826"/>
      <point x="431" y="887" type="curve" smooth="yes"/>
    </contour>
  </outline>
</glyph>
<glyph name="plusminus" format="1">
  <advance width="1228"/>
  <unicode hex="00B1"/>
  <outline>
    <contour>
      <point x="501" y="620" type="line"/>
      <point x="501" y="401" type="line" smooth="yes"/>
      <point x="501" y="356"/>
      <point x="519" y="338"/>
      <point x="614" y="338" type="curve" smooth="yes"/>
      <point x="709" y="338"/>
      <point x="726" y="356"/>
      <point x="726" y="401" type="curve" smooth="yes"/>
      <point x="726" y="620" type="line"/>
      <point x="995" y="620" type="line" smooth="yes"/>
      <point x="1040" y="620"/>
      <point x="1058" y="637"/>
      <point x="1058" y="732" type="curve" smooth="yes"/>
      <point x="1058" y="827"/>
      <point x="1040" y="845"/>
      <point x="995" y="845" type="curve" smooth="yes"/>
      <point x="726" y="845" type="line"/>
      <point x="726" y="1063" type="line" smooth="yes"/>
      <point x="726" y="1108"/>
      <point x="709" y="1126"/>
      <point x="614" y="1126" type="curve" smooth="yes"/>
      <point x="519" y="1126"/>
      <point x="501" y="1108"/>
      <point x="501" y="1063" type="curve" smooth="yes"/>
      <point x="501" y="845" type="line"/>
      <point x="233" y="845" type="line" smooth="yes"/>
      <point x="188" y="845"/>
      <point x="170" y="827"/>
      <point x="170" y="732" type="curve" smooth="yes"/>
      <point x="170" y="637"/>
      <point x="188" y="620"/>
      <point x="233" y="620" type="curve" smooth="yes"/>
    </contour>
    <contour>
      <point x="233" y="225" type="line" smooth="yes"/>
      <point x="188" y="225"/>
      <point x="170" y="207"/>
      <point x="170" y="112" type="curve" smooth="yes"/>
      <point x="170" y="17"/>
      <point x="188" y="0"/>
      <point x="233" y="0" type="curve" smooth="yes"/>
      <point x="995" y="0" type="line" smooth="yes"/>
      <point x="1040" y="0"/>
      <point x="1058" y="17"/>
      <point x="1058" y="112" type="curve" smooth="yes"/>
      <point x="1058" y="207"/>
      <point x="1040" y="225"/>
      <point x="995" y="225" type="curve" smooth="yes"/>
    </contour>
  </outline>
</glyph>
<glyph name="twosuperior" format="1">
  <advance width="1228"/>
  <unicode hex="00B2"/>
  <outline>
    <contour>
      <point x="493" y="1135" type="line"/>
      <point x="532" y="1152"/>
      <point x="581" y="1161"/>
      <point x="625" y="1161" type="curve" smooth="yes"/>
      <point x="699" y="1161"/>
      <point x="742" y="1121"/>
      <point x="742" y="1058" type="curve" smooth="yes"/>
      <point x="742" y="1006"/>
      <point x="705" y="965"/>
      <point x="634" y="912" type="curve" smooth="yes"/>
      <point x="307" y="659" type="line" smooth="yes"/>
      <point x="290" y="646"/>
      <point x="279" y="623"/>
      <point x="279" y="583" type="curve" smooth="yes"/>
      <point x="279" y="513"/>
      <point x="300" y="483"/>
      <point x="332" y="483" type="curve" smooth="yes"/>
      <point x="937" y="483" type="line" smooth="yes"/>
      <point x="970" y="483"/>
      <point x="983" y="496"/>
      <point x="983" y="529" type="curve" smooth="yes"/>
      <point x="983" y="699" type="line" smooth="yes"/>
      <point x="983" y="731"/>
      <point x="954" y="747"/>
      <point x="884" y="747" type="curve" smooth="yes"/>
      <point x="814" y="747"/>
      <point x="798" y="731"/>
      <point x="798" y="699" type="curve" smooth="yes"/>
      <point x="798" y="653" type="line"/>
      <point x="560" y="653" type="line"/>
      <point x="758" y="796" type="line" smooth="yes"/>
      <point x="870" y="877"/>
      <point x="944" y="957"/>
      <point x="944" y="1067" type="curve" smooth="yes"/>
      <point x="944" y="1225"/>
      <point x="838" y="1334"/>
      <point x="641" y="1334" type="curve" smooth="yes"/>
      <point x="541" y="1334"/>
      <point x="427" y="1311"/>
      <point x="339" y="1265" type="curve" smooth="yes"/>
      <point x="319" y="1254"/>
      <point x="308" y="1240"/>
      <point x="308" y="1220" type="curve" smooth="yes"/>
      <point x="308" y="1047" type="line" smooth="yes"/>
      <point x="308" y="1015"/>
      <point x="337" y="999"/>
      <point x="407" y="999" type="curve" smooth="yes"/>
      <point x="477" y="999"/>
      <point x="493" y="1015"/>
      <point x="493" y="1047" type="curve" smooth="yes"/>
    </contour>
  </outline>
</glyph>
<glyph name="threesuperior" format="1">
  <advance width="1228"/>
  <unicode hex="00B3"/>
  <outline>
    <contour>
      <point x="513" y="1334"/>
      <point x="402" y="1312"/>
      <point x="317" y="1275" type="curve" smooth="yes"/>
      <point x="296" y="1266"/>
      <point x="286" y="1250"/>
      <point x="286" y="1230" type="curve" smooth="yes"/>
      <point x="286" y="1077" type="line" smooth="yes"/>
      <point x="286" y="1045"/>
      <point x="315" y="1029"/>
      <point x="385" y="1029" type="curve" smooth="yes"/>
      <point x="455" y="1029"/>
      <point x="471" y="1045"/>
      <point x="471" y="1077" type="curve" smooth="yes"/>
      <point x="471" y="1135" type="line"/>
      <point x="517" y="1152"/>
      <point x="565" y="1161"/>
      <point x="607" y="1161" type="curve" smooth="yes"/>
      <point x="695" y="1161"/>
      <point x="740" y="1128"/>
      <point x="740" y="1074" type="curve" smooth="yes"/>
      <point x="740" y="1015"/>
      <point x="699" y="983"/>
      <point x="616" y="983" type="curve" smooth="yes"/>
      <point x="542" y="983" type="line" smooth="yes"/>
      <point x="511" y="983"/>
      <point x="494" y="961"/>
      <point x="494" y="897" type="curve" smooth="yes"/>
      <point x="494" y="833"/>
      <point x="511" y="811"/>
      <point x="542" y="811" type="curve" smooth="yes"/>
      <point x="635" y="811" type="line" smooth="yes"/>
      <point x="705" y="811"/>
      <point x="742" y="781"/>
      <point x="742" y="724" type="curve" smooth="yes"/>
      <point x="742" y="671"/>
      <point x="700" y="638"/>
      <point x="594" y="638" type="curve" smooth="yes"/>
      <point x="518" y="638"/>
      <point x="430" y="662"/>
      <point x="362" y="690" type="curve" smooth="yes"/>
      <point x="337" y="700"/>
      <point x="310" y="677"/>
      <point x="290" y="623" type="curve" smooth="yes"/>
      <point x="270" y="568"/>
      <point x="280" y="533"/>
      <point x="314" y="519" type="curve" smooth="yes"/>
      <point x="389" y="487"/>
      <point x="504" y="465"/>
      <point x="603" y="465" type="curve" smooth="yes"/>
      <point x="823" y="465"/>
      <point x="954" y="549"/>
      <point x="954" y="718" type="curve" smooth="yes"/>
      <point x="954" y="811"/>
      <point x="904" y="876"/>
      <point x="820" y="907" type="curve"/>
      <point x="895" y="943"/>
      <point x="942" y="998"/>
      <point x="942" y="1084" type="curve" smooth="yes"/>
      <point x="942" y="1240"/>
      <point x="829" y="1334"/>
      <point x="622" y="1334" type="curve" smooth="yes"/>
    </contour>
  </outline>
</glyph>
<glyph name="periodcentered" format="1">
  <advance width="1228"/>
  <unicode hex="00B7"/>
  <outline>
    <contour>
      <point x="499" y="794"/>
      <point x="406" y="701"/>
      <point x="406" y="586" type="curve" smooth="yes"/>
      <point x="406" y="471"/>
      <point x="499" y="378"/>
      <point x="614" y="378" type="curve" smooth="yes"/>
      <point x="729" y="378"/>
      <point x="822" y="471"/>
      <point x="822" y="586" type="curve" smooth="yes"/>
      <point x="822" y="701"/>
      <point x="729" y="794"/>
      <point x="614" y="794" type="curve" smooth="yes"/>
    </contour>
  </outline>
</glyph>
<glyph name="cedilla" format="1">
  <advance width="1228"/>
  <unicode hex="00B8"/>
  <outline>
    <contour>
      <point x="509" y="28" type="line"/>
      <point x="509" y="-180" type="line" smooth="yes"/>
      <point x="509" y="-215"/>
      <point x="528" y="-226"/>
      <point x="551" y="-221" type="curve" smooth="yes"/>
      <point x="611" y="-208"/>
      <point x="674" y="-214"/>
      <point x="674" y="-269" type="curve" smooth="yes"/>
      <point x="674" y="-304"/>
      <point x="646" y="-322"/>
      <point x="588" y="-322" type="curve" smooth="yes"/>
      <point x="521" y="-322"/>
      <point x="477" y="-308"/>
      <point x="425" y="-288" type="curve" smooth="yes"/>
      <point x="399" y="-280"/>
      <point x="378" y="-302"/>
      <point x="361" y="-348" type="curve" smooth="yes"/>
      <point x="346" y="-390"/>
      <point x="347" y="-420"/>
      <point x="372" y="-430" type="curve" smooth="yes"/>
      <point x="442" y="-457"/>
      <point x="532" y="-472"/>
      <point x="631" y="-472" type="curve" smooth="yes"/>
      <point x="814" y="-472"/>
      <point x="910" y="-402"/>
      <point x="910" y="-281" type="curve" smooth="yes"/>
      <point x="910" y="-167"/>
      <point x="840" y="-88"/>
      <point x="684" y="-93" type="curve"/>
      <point x="684" y="28" type="line"/>
    </contour>
  </outline>
</glyph>
<glyph name="onesuperior" format="1">
  <advance width="1228"/>
  <unicode hex="00B9"/>
  <outline>
    <contour>
      <point x="542" y="653" type="line"/>
      <point x="354" y="653" type="line" smooth="yes"/>
      <point x="317" y="653"/>
      <point x="303" y="627"/>
      <point x="303" y="568" type="curve" smooth="yes"/>
      <point x="303" y="508"/>
      <point x="316" y="483"/>
      <point x="354" y="483" type="curve" smooth="yes"/>
      <point x="918" y="483" type="line" smooth="yes"/>
      <point x="955" y="483"/>
      <point x="970" y="508"/>
      <point x="970" y="568" type="curve" smooth="yes"/>
      <point x="970" y="627"/>
      <point x="955" y="653"/>
      <point x="918" y="653" type="curve" smooth="yes"/>
      <point x="737" y="653" type="line"/>
      <point x="737" y="1275" type="line" smooth="yes"/>
      <point x="737" y="1330"/>
      <point x="696" y="1344"/>
      <point x="653" y="1329" type="curve" smooth="yes"/>
      <point x="330" y="1220" type="line" smooth="yes"/>
      <point x="288" y="1206"/>
      <point x="281" y="1172"/>
      <point x="299" y="1117" type="curve" smooth="yes"/>
      <point x="320" y="1053"/>
      <point x="349" y="1044"/>
      <point x="385" y="1056" type="curve" smooth="yes"/>
      <point x="542" y="1108" type="line"/>
    </contour>
  </outline>
</glyph>
<glyph name="questiondown" format="1">
  <advance width="1228"/>
  <unicode hex="00BF"/>
  <outline>
    <contour>
      <point x="567" y="768"/>
      <point x="546" y="751"/>
      <point x="543" y="720" type="curve" smooth="yes"/>
      <point x="534" y="634" type="line"/>
      <point x="330" y="581"/>
      <point x="227" y="496"/>
      <point x="227" y="313" type="curve" smooth="yes"/>
      <point x="227" y="105"/>
      <point x="370" y="-22"/>
      <point x="638" y="-22" type="curve" smooth="yes"/>
      <point x="751" y="-22"/>
      <point x="869" y="14"/>
      <point x="979" y="66" type="curve" smooth="yes"/>
      <point x="1006" y="79"/>
      <point x="1020" y="100"/>
      <point x="1020" y="127" type="curve" smooth="yes"/>
      <point x="1020" y="327" type="line" smooth="yes"/>
      <point x="1020" y="372"/>
      <point x="983" y="390"/>
      <point x="898" y="390" type="curve" smooth="yes"/>
      <point x="813" y="390"/>
      <point x="790" y="372"/>
      <point x="790" y="327" type="curve" smooth="yes"/>
      <point x="790" y="225" type="line"/>
      <point x="743" y="207"/>
      <point x="691" y="195"/>
      <point x="637" y="195" type="curve" smooth="yes"/>
      <point x="533" y="195"/>
      <point x="481" y="239"/>
      <point x="481" y="318" type="curve" smooth="yes"/>
      <point x="481" y="389"/>
      <point x="525" y="427"/>
      <point x="623" y="443" type="curve" smooth="yes"/>
      <point x="733" y="461" type="line" smooth="yes"/>
      <point x="758" y="465"/>
      <point x="765" y="486"/>
      <point x="763" y="512" type="curve" smooth="yes"/>
      <point x="745" y="720" type="line" smooth="yes"/>
      <point x="742" y="751"/>
      <point x="721" y="768"/>
      <point x="644" y="768" type="curve" smooth="yes"/>
    </contour>
    <contour>
      <point x="549" y="1209"/>
      <point x="473" y="1132"/>
      <point x="473" y="1038" type="curve" smooth="yes"/>
      <point x="473" y="943"/>
      <point x="549" y="866"/>
      <point x="644" y="866" type="curve" smooth="yes"/>
      <point x="738" y="866"/>
      <point x="815" y="943"/>
      <point x="815" y="1038" type="curve" smooth="yes"/>
      <point x="815" y="1132"/>
      <point x="739" y="1209"/>
      <point x="644" y="1209" type="curve" smooth="yes"/>
    </contour>
  </outline>
</glyph>
<glyph name="AE" format="1">
  <advance width="1228"/>
  <unicode hex="00C6"/>
  <outline>
    <contour>
      <point x="183" y="1187" type="line" smooth="yes"/>
      <point x="138" y="1187"/>
      <point x="120" y="1169"/>
      <point x="120" y="1084" type="curve" smooth="yes"/>
      <point x="120" y="999"/>
      <point x="138" y="982"/>
      <point x="183" y="982" type="curve" smooth="yes"/>
      <point x="285" y="982" type="line"/>
      <point x="86" y="205" type="line"/>
      <point x="33" y="205" type="line" smooth="yes"/>
      <point x="-12" y="205"/>
      <point x="-30" y="187"/>
      <point x="-30" y="102" type="curve" smooth="yes"/>
      <point x="-30" y="17"/>
      <point x="-12" y="0"/>
      <point x="33" y="0" type="curve" smooth="yes"/>
      <point x="357" y="0" type="line" smooth="yes"/>
      <point x="402" y="0"/>
      <point x="420" y="17"/>
      <point x="420" y="102" type="curve" smooth="yes"/>
      <point x="420" y="187"/>
      <point x="402" y="205"/>
      <point x="357" y="205" type="curve" smooth="yes"/>
      <point x="316" y="205" type="line"/>
      <point x="348" y="330" type="line"/>
      <point x="550" y="330" type="line"/>
      <point x="550" y="65" type="line" smooth="yes"/>
      <point x="550" y="19"/>
      <point x="569" y="0"/>
      <point x="615" y="0" type="curve" smooth="yes"/>
      <point x="1115" y="0" type="line" smooth="yes"/>
      <point x="1161" y="0"/>
      <point x="1180" y="19"/>
      <point x="1180" y="65" type="curve" smooth="yes"/>
      <point x="1180" y="387" type="line" smooth="yes"/>
      <point x="1180" y="432"/>
      <point x="1161" y="450"/>
      <point x="1076" y="450" type="curve" smooth="yes"/>
      <point x="991" y="450"/>
      <point x="960" y="432"/>
      <point x="960" y="387" type="curve" smooth="yes"/>
      <point x="960" y="205" type="line"/>
      <point x="780" y="205" type="line"/>
      <point x="780" y="514" type="line"/>
      <point x="894" y="514" type="line" smooth="yes"/>
      <point x="939" y="514"/>
      <point x="957" y="536"/>
      <point x="957" y="621" type="curve" smooth="yes"/>
      <point x="957" y="706"/>
      <point x="939" y="729"/>
      <point x="894" y="729" type="curve" smooth="yes"/>
      <point x="780" y="729" type="line"/>
      <point x="780" y="982" type="line"/>
      <point x="950" y="982" type="line"/>
      <point x="950" y="850" type="line" smooth="yes"/>
      <point x="950" y="805"/>
      <point x="968" y="787"/>
      <point x="1048" y="787" type="curve" smooth="yes"/>
      <point x="1128" y="787"/>
      <point x="1160" y="805"/>
      <point x="1160" y="850" type="curve" smooth="yes"/>
      <point x="1160" y="1122" type="line" smooth="yes"/>
      <point x="1160" y="1168"/>
      <point x="1141" y="1187"/>
      <point x="1095" y="1187" type="curve" smooth="yes"/>
    </contour>
    <contour>
      <point x="550" y="545" type="line"/>
      <point x="400" y="545" type="line"/>
      <point x="503" y="982" type="line"/>
      <point x="550" y="982" type="line"/>
    </contour>
  </outline>
</glyph>
<glyph name="Ccedilla" format="1">
  <advance width="1228"/>
  <unicode hex="00C7"/>
  <outline>
    <contour>
      <point x="921" y="1209"/>
      <point x="884" y="1191"/>
      <point x="884" y="1146" type="curve" smooth="yes"/>
      <point x="884" y="1083" type="line"/>
      <point x="832" y="1160"/>
      <point x="748" y="1209"/>
      <point x="624" y="1209" type="curve" smooth="yes"/>
      <point x="324" y="1209"/>
      <point x="103" y="974"/>
      <point x="103" y="594" type="curve" smooth="yes"/>
      <point x="103" y="260.062"/>
      <point x="273.67" y="37.3302"/>
      <point x="539" y="-11.7607" type="curve"/>
      <point x="539" y="-180" type="line" smooth="yes"/>
      <point x="539" y="-215"/>
      <point x="558" y="-226"/>
      <point x="581" y="-221" type="curve" smooth="yes"/>
      <point x="641" y="-208"/>
      <point x="704" y="-214"/>
      <point x="704" y="-269" type="curve" smooth="yes"/>
      <point x="704" y="-304"/>
      <point x="676" y="-322"/>
      <point x="618" y="-322" type="curve" smooth="yes"/>
      <point x="551" y="-322"/>
      <point x="507" y="-308"/>
      <point x="455" y="-288" type="curve"/>
      <point x="429" y="-280"/>
      <point x="408" y="-302"/>
      <point x="391" y="-348" type="curve" smooth="yes"/>
      <point x="376" y="-390"/>
      <point x="377" y="-420"/>
      <point x="402" y="-430" type="curve" smooth="yes"/>
      <point x="472" y="-457"/>
      <point x="562" y="-472"/>
      <point x="661" y="-472" type="curve" smooth="yes"/>
      <point x="844" y="-472"/>
      <point x="940" y="-402"/>
      <point x="940" y="-281" type="curve" smooth="yes"/>
      <point x="940" y="-167"/>
      <point x="870" y="-87.9999"/>
      <point x="714" y="-92.9999" type="curve"/>
      <point x="714" y="-19.8268" type="line"/>
      <point x="836.848" y="-10.9826"/>
      <point x="961.51" y="24.685"/>
      <point x="1081" y="84.0001" type="curve" smooth="yes"/>
      <point x="1124" y="105"/>
      <point x="1142" y="144"/>
      <point x="1113" y="225" type="curve" smooth="yes"/>
      <point x="1084" y="304"/>
      <point x="1045" y="320"/>
      <point x="1005" y="300" type="curve" smooth="yes"/>
      <point x="889" y="241"/>
      <point x="787" y="205"/>
      <point x="664" y="205" type="curve" smooth="yes"/>
      <point x="477" y="205"/>
      <point x="371" y="346"/>
      <point x="371" y="594" type="curve" smooth="yes"/>
      <point x="371" y="842"/>
      <point x="467" y="982"/>
      <point x="654" y="982" type="curve" smooth="yes"/>
      <point x="792" y="982"/>
      <point x="864" y="891"/>
      <point x="864" y="762" type="curve" smooth="yes"/>
      <point x="864" y="717"/>
      <point x="887" y="699"/>
      <point x="982" y="699" type="curve" smooth="yes"/>
      <point x="1077" y="699"/>
      <point x="1114" y="717"/>
      <point x="1114" y="762" type="curve" smooth="yes"/>
      <point x="1114" y="1146" type="line" smooth="yes"/>
      <point x="1114" y="1191"/>
      <point x="1091" y="1209"/>
      <point x="1006" y="1209" type="curve" smooth="yes"/>
    </contour>
  </outline>
</glyph>
<glyph name="Oslash" format="1">
  <advance width="1228"/>
  <unicode hex="00D8"/>
  <outline>
    <contour>
      <point x="961" y="1221"/>
      <point x="937" y="1217"/>
      <point x="911" y="1180" type="curve" smooth="yes"/>
      <point x="165" y="114" type="line" smooth="yes"/>
      <point x="139" y="77"/>
      <point x="144" y="52"/>
      <point x="206" y="9" type="curve" smooth="yes"/>
      <point x="267" y="-34"/>
      <point x="292" y="-30"/>
      <point x="318" y="7" type="curve" smooth="yes"/>
      <point x="1063" y="1073" type="line" smooth="yes"/>
      <point x="1089" y="1110"/>
      <point x="1084" y="1135"/>
      <point x="1023" y="1178" type="curve" smooth="yes"/>
    </contour>
    <component base="O"/>
  </outline>
</glyph>
<glyph name="Thorn" format="1">
  <advance width="1228"/>
  <unicode hex="00DE"/>
  <outline>
    <contour>
      <point x="330" y="205" type="line"/>
      <point x="183" y="205" type="line" smooth="yes"/>
      <point x="138" y="205"/>
      <point x="120" y="187"/>
      <point x="120" y="102" type="curve" smooth="yes"/>
      <point x="120" y="17"/>
      <point x="138" y="0"/>
      <point x="183" y="0" type="curve" smooth="yes"/>
      <point x="767" y="0" type="line" smooth="yes"/>
      <point x="812" y="0"/>
      <point x="830" y="17"/>
      <point x="830" y="102" type="curve" smooth="yes"/>
      <point x="830" y="187"/>
      <point x="812" y="205"/>
      <point x="767" y="205" type="curve" smooth="yes"/>
      <point x="580" y="205" type="line"/>
      <point x="580" y="291" type="line"/>
      <point x="720" y="291" type="line" smooth="yes"/>
      <point x="970" y="291"/>
      <point x="1087" y="407"/>
      <point x="1087" y="594" type="curve" smooth="yes"/>
      <point x="1087" y="781"/>
      <point x="970" y="896"/>
      <point x="720" y="896" type="curve" smooth="yes"/>
      <point x="580" y="896" type="line"/>
      <point x="580" y="982" type="line"/>
      <point x="767" y="982" type="line" smooth="yes"/>
      <point x="812" y="982"/>
      <point x="830" y="999"/>
      <point x="830" y="1084" type="curve" smooth="yes"/>
      <point x="830" y="1169"/>
      <point x="812" y="1187"/>
      <point x="767" y="1187" type="curve" smooth="yes"/>
      <point x="183" y="1187" type="line" smooth="yes"/>
      <point x="138" y="1187"/>
      <point x="120" y="1169"/>
      <point x="120" y="1084" type="curve" smooth="yes"/>
      <point x="120" y="999"/>
      <point x="138" y="982"/>
      <point x="183" y="982" type="curve" smooth="yes"/>
      <point x="330" y="982" type="line"/>
    </contour>
    <contour>
      <point x="580" y="496" type="line"/>
      <point x="580" y="691" type="line"/>
      <point x="689" y="691" type="line" smooth="yes"/>
      <point x="786" y="691"/>
      <point x="829" y="663"/>
      <point x="829" y="594" type="curve" smooth="yes"/>
      <point x="829" y="525"/>
      <point x="786" y="496"/>
      <point x="689" y="496" type="curve" smooth="yes"/>
    </contour>
  </outline>
</glyph>
<glyph name="germandbls" format="1">
  <advance width="1228"/>
  <unicode hex="00DF"/>
  <outline>
    <contour>
      <point x="208" y="205" type="line"/>
      <point x="85" y="205" type="line" smooth="yes"/>
      <point x="40" y="205"/>
      <point x="22" y="187"/>
      <point x="22" y="102" type="curve" smooth="yes"/>
      <point x="22" y="17"/>
      <point x="40" y="0"/>
      <point x="85" y="0" type="curve" smooth="yes"/>
      <point x="395" y="0" type="line" smooth="yes"/>
      <point x="440" y="0"/>
      <point x="458" y="18"/>
      <point x="458" y="63" type="curve" smooth="yes"/>
      <point x="458" y="874" type="line" smooth="yes"/>
      <point x="458" y="1015"/>
      <point x="517" y="1090"/>
      <point x="625" y="1090" type="curve" smooth="yes"/>
      <point x="736" y="1090"/>
      <point x="783" y="1023"/>
      <point x="783" y="936" type="curve" smooth="yes"/>
      <point x="783" y="837"/>
      <point x="735" y="783"/>
      <point x="642" y="774" type="curve" smooth="yes"/>
      <point x="597" y="770"/>
      <point x="579" y="746"/>
      <point x="579" y="661" type="curve" smooth="yes"/>
      <point x="579" y="576"/>
      <point x="597" y="549"/>
      <point x="642" y="549" type="curve" smooth="yes"/>
      <point x="755" y="549"/>
      <point x="822" y="491"/>
      <point x="822" y="387" type="curve" smooth="yes"/>
      <point x="822" y="267"/>
      <point x="758" y="205"/>
      <point x="629" y="205" type="curve" smooth="yes"/>
      <point x="584" y="205"/>
      <point x="572" y="176"/>
      <point x="572" y="91" type="curve" smooth="yes"/>
      <point x="572" y="6"/>
      <point x="598" y="-22"/>
      <point x="649" y="-22" type="curve" smooth="yes"/>
      <point x="913" y="-22"/>
      <point x="1090" y="107"/>
      <point x="1090" y="367" type="curve" smooth="yes"/>
      <point x="1090" y="520"/>
      <point x="1011" y="627"/>
      <point x="875" y="678" type="curve"/>
      <point x="980" y="735"/>
      <point x="1031" y="820"/>
      <point x="1031" y="946" type="curve" smooth="yes"/>
      <point x="1031" y="1163"/>
      <point x="887" y="1317"/>
      <point x="623" y="1317" type="curve" smooth="yes"/>
      <point x="358" y="1317"/>
      <point x="208" y="1144"/>
      <point x="208" y="877" type="curve" smooth="yes"/>
    </contour>
  </outline>
</glyph>
<glyph name="divide" format="1">
  <advance width="1228"/>
  <unicode hex="00F7"/>
  <outline>
    <contour>
      <point x="233" y="695" type="line" smooth="yes"/>
      <point x="188" y="695"/>
      <point x="170" y="677"/>
      <point x="170" y="582" type="curve" smooth="yes"/>
      <point x="170" y="487"/>
      <point x="188" y="470"/>
      <point x="233" y="470" type="curve" smooth="yes"/>
      <point x="995" y="470" type="line" smooth="yes"/>
      <point x="1040" y="470"/>
      <point x="1058" y="487"/>
      <point x="1058" y="582" type="curve" smooth="yes"/>
      <point x="1058" y="677"/>
      <point x="1040" y="695"/>
      <point x="995" y="695" type="curve" smooth="yes"/>
    </contour>
    <contour>
      <point x="534" y="369"/>
      <point x="469" y="304"/>
      <point x="469" y="224" type="curve" smooth="yes"/>
      <point x="469" y="144"/>
      <point x="534" y="79"/>
      <point x="614" y="79" type="curve" smooth="yes"/>
      <point x="694" y="79"/>
      <point x="759" y="144"/>
      <point x="759" y="224" type="curve" smooth="yes"/>
      <point x="759" y="304"/>
      <point x="694" y="369"/>
      <point x="614" y="369" type="curve" smooth="yes"/>
    </contour>
    <contour>
      <point x="534" y="1086"/>
      <point x="469" y="1021"/>
      <point x="469" y="941" type="curve" smooth="yes"/>
      <point x="469" y="861"/>
      <point x="534" y="796"/>
      <point x="614" y="796" type="curve" smooth="yes"/>
      <point x="694" y="796"/>
      <point x="759" y="861"/>
      <point x="759" y="941" type="curve" smooth="yes"/>
      <point x="759" y="1021"/>
      <point x="694" y="1086"/>
      <point x="614" y="1086" type="curve" smooth="yes"/>
    </contour>
  </outline>
</glyph>
<glyph name="oslash" format="1">
  <advance width="1228"/>
  <unicode hex="00F8"/>
  <outline>
    <contour>
      <point x="305" y="946"/>
      <point x="107" y="742"/>
      <point x="107" y="462" type="curve" smooth="yes"/>
      <point x="107" y="348"/>
      <point x="140" y="246"/>
      <point x="199" y="166" type="curve"/>
      <point x="164" y="130" type="line" smooth="yes"/>
      <point x="133" y="98"/>
      <point x="133" y="72"/>
      <point x="187" y="20" type="curve" smooth="yes"/>
      <point x="241" y="-32"/>
      <point x="267" y="-32"/>
      <point x="298" y="1" type="curve" smooth="yes"/>
      <point x="340" y="44" type="line"/>
      <point x="416" y="2"/>
      <point x="508" y="-22"/>
      <point x="614" y="-22" type="curve" smooth="yes"/>
      <point x="923" y="-22"/>
      <point x="1121" y="182"/>
      <point x="1121" y="462" type="curve" smooth="yes"/>
      <point x="1121" y="576"/>
      <point x="1088" y="677"/>
      <point x="1028" y="757" type="curve"/>
      <point x="1064" y="794" type="line" smooth="yes"/>
      <point x="1095" y="826"/>
      <point x="1095" y="852"/>
      <point x="1041" y="904" type="curve" smooth="yes"/>
      <point x="987" y="956"/>
      <point x="961" y="956"/>
      <point x="930" y="923" type="curve" smooth="yes"/>
      <point x="888" y="879" type="line"/>
      <point x="812" y="922"/>
      <point x="719" y="946"/>
      <point x="614" y="946" type="curve" smooth="yes"/>
    </contour>
    <contour>
      <point x="848" y="531"/>
      <point x="853" y="498"/>
      <point x="853" y="462" type="curve" smooth="yes"/>
      <point x="853" y="306"/>
      <point x="759" y="205"/>
      <point x="614" y="205" type="curve" smooth="yes"/>
      <point x="577" y="205"/>
      <point x="543" y="211"/>
      <point x="513" y="224" type="curve"/>
      <point x="838" y="560" type="line"/>
    </contour>
    <contour>
      <point x="651" y="719"/>
      <point x="685" y="712"/>
      <point x="714" y="700" type="curve"/>
      <point x="389" y="363" type="line"/>
      <point x="380" y="393"/>
      <point x="375" y="426"/>
      <point x="375" y="462" type="curve" smooth="yes"/>
      <point x="375" y="618"/>
      <point x="469" y="719"/>
      <point x="614" y="719" type="curve" smooth="yes"/>
    </contour>
  </outline>
</glyph>
<glyph name="thorn" format="1">
  <advance width="1228"/>
  <unicode hex="00FE"/>
  <outline>
    <contour>
      <point x="187" y="-188" type="line"/>
      <point x="100" y="-188" type="line" smooth="yes"/>
      <point x="55" y="-188"/>
      <point x="37" y="-206"/>
      <point x="37" y="-291" type="curve" smooth="yes"/>
      <point x="37" y="-376"/>
      <point x="55" y="-393"/>
      <point x="100" y="-393" type="curve" smooth="yes"/>
      <point x="684" y="-393" type="line" smooth="yes"/>
      <point x="729" y="-393"/>
      <point x="747" y="-376"/>
      <point x="747" y="-291" type="curve" smooth="yes"/>
      <point x="747" y="-206"/>
      <point x="729" y="-188"/>
      <point x="684" y="-188" type="curve" smooth="yes"/>
      <point x="437" y="-188" type="line"/>
      <point x="437" y="123" type="line"/>
      <point x="504" y="50"/>
      <point x="594" y="8"/>
      <point x="700" y="8" type="curve" smooth="yes"/>
      <point x="964" y="8"/>
      <point x="1131" y="207"/>
      <point x="1131" y="477" type="curve" smooth="yes"/>
      <point x="1131" y="747"/>
      <point x="964" y="946"/>
      <point x="700" y="946" type="curve" smooth="yes"/>
      <point x="594" y="946"/>
      <point x="504" y="903"/>
      <point x="437" y="830" type="curve"/>
      <point x="437" y="1249" type="line" smooth="yes"/>
      <point x="437" y="1294"/>
      <point x="419" y="1312"/>
      <point x="374" y="1312" type="curve" smooth="yes"/>
      <point x="100" y="1312" type="line" smooth="yes"/>
      <point x="55" y="1312"/>
      <point x="37" y="1294"/>
      <point x="37" y="1209" type="curve" smooth="yes"/>
      <point x="37" y="1124"/>
      <point x="55" y="1107"/>
      <point x="100" y="1107" type="curve" smooth="yes"/>
      <point x="187" y="1107" type="line"/>
    </contour>
    <contour>
      <point x="430" y="639"/>
      <point x="535" y="719"/>
      <point x="660" y="719" type="curve" smooth="yes"/>
      <point x="782" y="719"/>
      <point x="863" y="633"/>
      <point x="863" y="477" type="curve" smooth="yes"/>
      <point x="863" y="321"/>
      <point x="782" y="235"/>
      <point x="660" y="235" type="curve" smooth="yes"/>
      <point x="535" y="235"/>
      <point x="430" y="315"/>
      <point x="430" y="477" type="curve" smooth="yes"/>
    </contour>
  </outline>
</glyph>
<glyph name="dcaron" format="1">
  <advance width="1228"/>
  <unicode hex="010F"/>
  <outline>
    <contour>
      <point x="524" y="1312" type="line" smooth="yes"/>
      <point x="479" y="1312"/>
      <point x="461" y="1294"/>
      <point x="461" y="1209" type="curve" smooth="yes"/>
      <point x="461" y="1124"/>
      <point x="479" y="1107"/>
      <point x="524" y="1107" type="curve" smooth="yes"/>
      <point x="671" y="1107" type="line"/>
      <point x="671" y="827" type="line"/>
      <point x="614" y="902"/>
      <point x="553" y="946"/>
      <point x="458" y="946" type="curve" smooth="yes"/>
      <point x="224" y="946"/>
      <point x="77" y="741"/>
      <point x="77" y="462" type="curve" smooth="yes"/>
      <point x="77" y="183"/>
      <point x="224" y="-22"/>
      <point x="458" y="-22" type="curve" smooth="yes"/>
      <point x="576" y="-22"/>
      <point x="652" y="36"/>
      <point x="711" y="137" type="curve"/>
      <point x="711" y="63" type="line" smooth="yes"/>
      <point x="711" y="18"/>
      <point x="729" y="0"/>
      <point x="774" y="0" type="curve" smooth="yes"/>
      <point x="1008" y="0" type="line" smooth="yes"/>
      <point x="1053" y="0"/>
      <point x="1071" y="18"/>
      <point x="1071" y="103" type="curve" smooth="yes"/>
      <point x="1071" y="188"/>
      <point x="1053" y="205"/>
      <point x="1008" y="205" type="curve" smooth="yes"/>
      <point x="921" y="205" type="line"/>
      <point x="921" y="1249" type="line" smooth="yes"/>
      <point x="921" y="1294"/>
      <point x="903" y="1312"/>
      <point x="858" y="1312" type="curve" smooth="yes"/>
    </contour>
    <contour>
      <point x="603" y="719"/>
      <point x="678" y="635"/>
      <point x="678" y="462" type="curve" smooth="yes"/>
      <point x="678" y="290"/>
      <point x="603" y="205"/>
      <point x="498" y="205" type="curve" smooth="yes"/>
      <point x="406" y="205"/>
      <point x="345" y="297"/>
      <point x="345" y="462" type="curve" smooth="yes"/>
      <point x="345" y="627"/>
      <point x="406" y="719"/>
      <point x="498" y="719" type="curve" smooth="yes"/>
    </contour>
    <component base="caron.alt" xOffset="810"/>
  </outline>
</glyph>
<glyph name="dcroat" format="1">
  <advance width="1228"/>
  <unicode hex="0111"/>
  <outline>
    <contour>
      <point x="1041" y="205" type="line"/>
      <point x="1041" y="982" type="line"/>
      <point x="1145" y="982" type="line" smooth="yes"/>
      <point x="1190" y="982"/>
      <point x="1208" y="999"/>
      <point x="1208" y="1084" type="curve" smooth="yes"/>
      <point x="1208" y="1169"/>
      <point x="1190" y="1187"/>
      <point x="1145" y="1187" type="curve" smooth="yes"/>
      <point x="1041" y="1187" type="line"/>
      <point x="1041" y="1249" type="line" smooth="yes"/>
      <point x="1041" y="1294"/>
      <point x="1023" y="1312"/>
      <point x="978" y="1312" type="curve" smooth="yes"/>
      <point x="854" y="1312" type="line" smooth="yes"/>
      <point x="809" y="1312"/>
      <point x="791" y="1294"/>
      <point x="791" y="1249" type="curve" smooth="yes"/>
      <point x="791" y="1187" type="line"/>
      <point x="583" y="1187" type="line" smooth="yes"/>
      <point x="538" y="1187"/>
      <point x="520" y="1169"/>
      <point x="520" y="1084" type="curve" smooth="yes"/>
      <point x="520" y="999"/>
      <point x="538" y="982"/>
      <point x="583" y="982" type="curve" smooth="yes"/>
      <point x="791" y="982" type="line"/>
      <point x="791" y="801" type="line"/>
      <point x="724" y="874"/>
      <point x="633" y="916"/>
      <point x="528" y="916" type="curve" smooth="yes"/>
      <point x="264" y="916"/>
      <point x="97" y="717"/>
      <point x="97" y="447" type="curve" smooth="yes"/>
      <point x="97" y="177"/>
      <point x="264" y="-22"/>
      <point x="528" y="-22" type="curve" smooth="yes"/>
      <point x="656" y="-22"/>
      <point x="762" y="34"/>
      <point x="831" y="132" type="curve"/>
      <point x="831" y="63" type="line" smooth="yes"/>
      <point x="831" y="18"/>
      <point x="849" y="0"/>
      <point x="894" y="0" type="curve" smooth="yes"/>
      <point x="1128" y="0" type="line" smooth="yes"/>
      <point x="1173" y="0"/>
      <point x="1191" y="18"/>
      <point x="1191" y="103" type="curve" smooth="yes"/>
      <point x="1191" y="188"/>
      <point x="1173" y="205"/>
      <point x="1128" y="205" type="curve" smooth="yes"/>
    </contour>
    <contour>
      <point x="798" y="285"/>
      <point x="693" y="205"/>
      <point x="568" y="205" type="curve" smooth="yes"/>
      <point x="446" y="205"/>
      <point x="365" y="291"/>
      <point x="365" y="447" type="curve" smooth="yes"/>
      <point x="365" y="603"/>
      <point x="446" y="689"/>
      <point x="568" y="689" type="curve" smooth="yes"/>
      <point x="693" y="689"/>
      <point x="798" y="609"/>
      <point x="798" y="447" type="curve" smooth="yes"/>
    </contour>
  </outline>
</glyph>
<glyph name="eogonek" format="1">
  <advance width="1228"/>
  <unicode hex="0119"/>
  <outline>
    <contour>
      <point x="305" y="946"/>
      <point x="117" y="742"/>
      <point x="117" y="462" type="curve" smooth="yes"/>
      <point x="117" y="182"/>
      <point x="285" y="-22"/>
      <point x="584" y="-22" type="curve" smooth="yes"/>
      <point x="626" y="-22"/>
      <point x="669" y="-19"/>
      <point x="713" y="-15" type="curve"/>
      <point x="618" y="-83"/>
      <point x="549" y="-162"/>
      <point x="549" y="-269" type="curve" smooth="yes"/>
      <point x="549" y="-402"/>
      <point x="639" y="-472"/>
      <point x="795" y="-472" type="curve" smooth="yes"/>
      <point x="868" y="-472"/>
      <point x="944" y="-459"/>
      <point x="1011" y="-438" type="curve" smooth="yes"/>
      <point x="1039" y="-429"/>
      <point x="1052" y="-399"/>
      <point x="1048" y="-353" type="curve" smooth="yes"/>
      <point x="1044" y="-307"/>
      <point x="1026" y="-281"/>
      <point x="1000" y="-285" type="curve" smooth="yes"/>
      <point x="957" y="-292"/>
      <point x="919" y="-298"/>
      <point x="880" y="-298" type="curve" smooth="yes"/>
      <point x="823" y="-298"/>
      <point x="792" y="-278"/>
      <point x="792" y="-231" type="curve" smooth="yes"/>
      <point x="792" y="-167"/>
      <point x="846" y="-94"/>
      <point x="934" y="-15" type="curve" smooth="yes"/>
      <point x="980" y="27"/>
      <point x="1001" y="44"/>
      <point x="1021" y="52" type="curve" smooth="yes"/>
      <point x="1062" y="69"/>
      <point x="1072" y="99"/>
      <point x="1051" y="176" type="curve" smooth="yes"/>
      <point x="1029" y="258"/>
      <point x="1003" y="273"/>
      <point x="960" y="260" type="curve" smooth="yes"/>
      <point x="828" y="220"/>
      <point x="712" y="205"/>
      <point x="604" y="205" type="curve" smooth="yes"/>
      <point x="487" y="205"/>
      <point x="410" y="262"/>
      <point x="384" y="370" type="curve"/>
      <point x="1026" y="370" type="line" smooth="yes"/>
      <point x="1071" y="370"/>
      <point x="1089" y="387"/>
      <point x="1089" y="432" type="curve" smooth="yes"/>
      <point x="1089" y="729"/>
      <point x="926" y="946"/>
      <point x="614" y="946" type="curve" smooth="yes"/>
    </contour>
    <contour>
      <point x="729" y="719"/>
      <point x="806" y="661"/>
      <point x="828" y="565" type="curve"/>
      <point x="388" y="565" type="line"/>
      <point x="417" y="669"/>
      <point x="494" y="719"/>
      <point x="614" y="719" type="curve" smooth="yes"/>
    </contour>
  </outline>
</glyph>
<glyph name="Hbar" format="1">
  <advance width="1228"/>
  <unicode hex="0126"/>
  <outline>
    <contour>
      <point x="741" y="1187" type="line" smooth="yes"/>
      <point x="696" y="1187"/>
      <point x="678" y="1169"/>
      <point x="678" y="1084" type="curve" smooth="yes"/>
      <point x="678" y="999"/>
      <point x="696" y="982"/>
      <point x="741" y="982" type="curve" smooth="yes"/>
      <point x="808" y="982" type="line"/>
      <point x="808" y="904" type="line"/>
      <point x="420" y="904" type="line"/>
      <point x="420" y="982" type="line"/>
      <point x="487" y="982" type="line" smooth="yes"/>
      <point x="532" y="982"/>
      <point x="550" y="999"/>
      <point x="550" y="1084" type="curve" smooth="yes"/>
      <point x="550" y="1169"/>
      <point x="532" y="1187"/>
      <point x="487" y="1187" type="curve" smooth="yes"/>
      <point x="113" y="1187" type="line" smooth="yes"/>
      <point x="68" y="1187"/>
      <point x="50" y="1169"/>
      <point x="50" y="1084" type="curve" smooth="yes"/>
      <point x="50" y="999"/>
      <point x="68" y="982"/>
      <point x="113" y="982" type="curve" smooth="yes"/>
      <point x="170" y="982" type="line"/>
      <point x="170" y="904" type="line"/>
      <point x="93" y="904" type="line" smooth="yes"/>
      <point x="48" y="904"/>
      <point x="30" y="886"/>
      <point x="30" y="836" type="curve" smooth="yes"/>
      <point x="30" y="786"/>
      <point x="48" y="768"/>
      <point x="93" y="768" type="curve" smooth="yes"/>
      <point x="170" y="768" type="line"/>
      <point x="170" y="205" type="line"/>
      <point x="113" y="205" type="line" smooth="yes"/>
      <point x="68" y="205"/>
      <point x="50" y="187"/>
      <point x="50" y="102" type="curve" smooth="yes"/>
      <point x="50" y="17"/>
      <point x="68" y="0"/>
      <point x="113" y="0" type="curve" smooth="yes"/>
      <point x="487" y="0" type="line" smooth="yes"/>
      <point x="532" y="0"/>
      <point x="550" y="17"/>
      <point x="550" y="102" type="curve" smooth="yes"/>
      <point x="550" y="187"/>
      <point x="532" y="205"/>
      <point x="487" y="205" type="curve" smooth="yes"/>
      <point x="420" y="205" type="line"/>
      <point x="420" y="464" type="line"/>
      <point x="808" y="464" type="line"/>
      <point x="808" y="205" type="line"/>
      <point x="741" y="205" type="line" smooth="yes"/>
      <point x="696" y="205"/>
      <point x="678" y="187"/>
      <point x="678" y="102" type="curve" smooth="yes"/>
      <point x="678" y="17"/>
      <point x="696" y="0"/>
      <point x="741" y="0" type="curve" smooth="yes"/>
      <point x="1115" y="0" type="line" smooth="yes"/>
      <point x="1160" y="0"/>
      <point x="1178" y="17"/>
      <point x="1178" y="102" type="curve" smooth="yes"/>
      <point x="1178" y="187"/>
      <point x="1160" y="205"/>
      <point x="1115" y="205" type="curve" smooth="yes"/>
      <point x="1058" y="205" type="line"/>
      <point x="1058" y="768" type="line"/>
      <point x="1135" y="768" type="line" smooth="yes"/>
      <point x="1180" y="768"/>
      <point x="1198" y="786"/>
      <point x="1198" y="836" type="curve" smooth="yes"/>
      <point x="1198" y="886"/>
      <point x="1180" y="904"/>
      <point x="1135" y="904" type="curve" smooth="yes"/>
      <point x="1058" y="904" type="line"/>
      <point x="1058" y="982" type="line"/>
      <point x="1115" y="982" type="line" smooth="yes"/>
      <point x="1160" y="982"/>
      <point x="1178" y="999"/>
      <point x="1178" y="1084" type="curve" smooth="yes"/>
      <point x="1178" y="1169"/>
      <point x="1160" y="1187"/>
      <point x="1115" y="1187" type="curve" smooth="yes"/>
    </contour>
    <contour>
      <point x="808" y="679" type="line"/>
      <point x="420" y="679" type="line"/>
      <point x="420" y="768" type="line"/>
      <point x="808" y="768" type="line"/>
    </contour>
  </outline>
</glyph>
<glyph name="hbar" format="1">
  <advance width="1228"/>
  <unicode hex="0127"/>
  <outline>
    <contour>
      <point x="270" y="1312" type="line" smooth="yes"/>
      <point x="225" y="1312"/>
      <point x="207" y="1294"/>
      <point x="207" y="1249" type="curve" smooth="yes"/>
      <point x="207" y="205" type="line"/>
      <point x="130" y="205" type="line" smooth="yes"/>
      <point x="85" y="205"/>
      <point x="67" y="187"/>
      <point x="67" y="102" type="curve" smooth="yes"/>
      <point x="67" y="17"/>
      <point x="85" y="0"/>
      <point x="130" y="0" type="curve" smooth="yes"/>
      <point x="504" y="0" type="line" smooth="yes"/>
      <point x="549" y="0"/>
      <point x="567" y="17"/>
      <point x="567" y="102" type="curve" smooth="yes"/>
      <point x="567" y="187"/>
      <point x="549" y="205"/>
      <point x="504" y="205" type="curve" smooth="yes"/>
      <point x="457" y="205" type="line"/>
      <point x="457" y="308" type="line" smooth="yes"/>
      <point x="457" y="476"/>
      <point x="563" y="619"/>
      <point x="682" y="619" type="curve" smooth="yes"/>
      <point x="770" y="619"/>
      <point x="799" y="567"/>
      <point x="799" y="481" type="curve" smooth="yes"/>
      <point x="799" y="205" type="line"/>
      <point x="752" y="205" type="line" smooth="yes"/>
      <point x="707" y="205"/>
      <point x="689" y="187"/>
      <point x="689" y="102" type="curve" smooth="yes"/>
      <point x="689" y="17"/>
      <point x="707" y="0"/>
      <point x="752" y="0" type="curve" smooth="yes"/>
      <point x="1126" y="0" type="line" smooth="yes"/>
      <point x="1171" y="0"/>
      <point x="1189" y="17"/>
      <point x="1189" y="102" type="curve" smooth="yes"/>
      <point x="1189" y="187"/>
      <point x="1171" y="205"/>
      <point x="1126" y="205" type="curve" smooth="yes"/>
      <point x="1049" y="205" type="line"/>
      <point x="1049" y="520" type="line" smooth="yes"/>
      <point x="1049" y="720"/>
      <point x="931" y="846"/>
      <point x="747" y="846" type="curve" smooth="yes"/>
      <point x="637" y="846"/>
      <point x="537" y="793"/>
      <point x="457" y="683" type="curve"/>
      <point x="457" y="1249" type="line" smooth="yes"/>
      <point x="457" y="1294"/>
      <point x="439" y="1312"/>
      <point x="394" y="1312" type="curve" smooth="yes"/>
    </contour>
    <contour>
      <point x="93" y="1155" type="line" smooth="yes"/>
      <point x="48" y="1155"/>
      <point x="30" y="1137"/>
      <point x="30" y="1052" type="curve" smooth="yes"/>
      <point x="30" y="967"/>
      <point x="48" y="950"/>
      <point x="93" y="950" type="curve" smooth="yes"/>
      <point x="655" y="950" type="line" smooth="yes"/>
      <point x="700" y="950"/>
      <point x="718" y="967"/>
      <point x="718" y="1052" type="curve" smooth="yes"/>
      <point x="718" y="1137"/>
      <point x="700" y="1155"/>
      <point x="655" y="1155" type="curve" smooth="yes"/>
    </contour>
  </outline>
</glyph>
<glyph name="dotlessi" format="1">
  <advance width="1228"/>
  <unicode hex="0131"/>
  <outline>
    <contour>
      <point x="503" y="205" type="line"/>
      <point x="230" y="205" type="line" smooth="yes"/>
      <point x="185" y="205"/>
      <point x="167" y="187"/>
      <point x="167" y="102" type="curve" smooth="yes"/>
      <point x="167" y="17"/>
      <point x="185" y="0"/>
      <point x="230" y="0" type="curve" smooth="yes"/>
      <point x="1034" y="0" type="line" smooth="yes"/>
      <point x="1079" y="0"/>
      <point x="1097" y="17"/>
      <point x="1097" y="102" type="curve" smooth="yes"/>
      <point x="1097" y="187"/>
      <point x="1079" y="205"/>
      <point x="1034" y="205" type="curve" smooth="yes"/>
      <point x="753" y="205" type="line"/>
      <point x="753" y="861" type="line" smooth="yes"/>
      <point x="753" y="906"/>
      <point x="735" y="924"/>
      <point x="690" y="924" type="curve" smooth="yes"/>
      <point x="310" y="924" type="line" smooth="yes"/>
      <point x="265" y="924"/>
      <point x="247" y="906"/>
      <point x="247" y="821" type="curve" smooth="yes"/>
      <point x="247" y="736"/>
      <point x="265" y="719"/>
      <point x="310" y="719" type="curve" smooth="yes"/>
      <point x="503" y="719" type="line"/>
    </contour>
  </outline>
</glyph>
<glyph name="ij" format="1">
  <advance width="1228"/>
  <unicode hex="0133"/>
  <outline>
    <contour>
      <point x="690" y="924" type="line" smooth="yes"/>
      <point x="645" y="924"/>
      <point x="627" y="906"/>
      <point x="627" y="821" type="curve" smooth="yes"/>
      <point x="627" y="736"/>
      <point x="645" y="719"/>
      <point x="690" y="719" type="curve" smooth="yes"/>
      <point x="873" y="719" type="line"/>
      <point x="873" y="-22" type="line" smooth="yes"/>
      <point x="873" y="-137"/>
      <point x="826" y="-188"/>
      <point x="744" y="-188" type="curve" smooth="yes"/>
      <point x="692" y="-188"/>
      <point x="625" y="-175"/>
      <point x="560" y="-154" type="curve" smooth="yes"/>
      <point x="547" y="-150"/>
      <point x="537" y="-148"/>
      <point x="528" y="-148" type="curve" smooth="yes"/>
      <point x="481" y="-148"/>
      <point x="452" y="-233"/>
      <point x="452" y="-295" type="curve" smooth="yes"/>
      <point x="452" y="-334"/>
      <point x="472" y="-352"/>
      <point x="501" y="-364" type="curve" smooth="yes"/>
      <point x="585" y="-398"/>
      <point x="679" y="-415"/>
      <point x="766" y="-415" type="curve" smooth="yes"/>
      <point x="998" y="-415"/>
      <point x="1123" y="-284"/>
      <point x="1123" y="-35" type="curve" smooth="yes"/>
      <point x="1123" y="861" type="line" smooth="yes"/>
      <point x="1123" y="906"/>
      <point x="1105" y="924"/>
      <point x="1060" y="924" type="curve" smooth="yes"/>
    </contour>
    <contour>
      <point x="110" y="924" type="line" smooth="yes"/>
      <point x="65" y="924"/>
      <point x="47" y="906"/>
      <point x="47" y="821" type="curve" smooth="yes"/>
      <point x="47" y="736"/>
      <point x="65" y="719"/>
      <point x="110" y="719" type="curve" smooth="yes"/>
      <point x="233" y="719" type="line"/>
      <point x="233" y="205" type="line"/>
      <point x="100" y="205" type="line" smooth="yes"/>
      <point x="55" y="205"/>
      <point x="37" y="187"/>
      <point x="37" y="102" type="curve" smooth="yes"/>
      <point x="37" y="17"/>
      <point x="55" y="0"/>
      <point x="100" y="0" type="curve" smooth="yes"/>
      <point x="624" y="0" type="line" smooth="yes"/>
      <point x="669" y="0"/>
      <point x="687" y="17"/>
      <point x="687" y="102" type="curve" smooth="yes"/>
      <point x="687" y="187"/>
      <point x="669" y="205"/>
      <point x="624" y="205" type="curve" smooth="yes"/>
      <point x="483" y="205" type="line"/>
      <point x="483" y="861" type="line" smooth="yes"/>
      <point x="483" y="906"/>
      <point x="465" y="924"/>
      <point x="420" y="924" type="curve" smooth="yes"/>
    </contour>
    <contour>
      <point x="260" y="1383"/>
      <point x="233" y="1365"/>
      <point x="233" y="1320" type="curve" smooth="yes"/>
      <point x="233" y="1156" type="line" smooth="yes"/>
      <point x="233" y="1111"/>
      <point x="265" y="1093"/>
      <point x="360" y="1093" type="curve" smooth="yes"/>
      <point x="455" y="1093"/>
      <point x="483" y="1111"/>
      <point x="483" y="1156" type="curve" smooth="yes"/>
      <point x="483" y="1320" type="line" smooth="yes"/>
      <point x="483" y="1365"/>
      <point x="450" y="1383"/>
      <point x="355" y="1383" type="curve" smooth="yes"/>
    </contour>
    <contour>
      <point x="900" y="1383"/>
      <point x="873" y="1365"/>
      <point x="873" y="1320" type="curve" smooth="yes"/>
      <point x="873" y="1156" type="line" smooth="yes"/>
      <point x="873" y="1111"/>
      <point x="905" y="1093"/>
      <point x="1000" y="1093" type="curve" smooth="yes"/>
      <point x="1095" y="1093"/>
      <point x="1123" y="1111"/>
      <point x="1123" y="1156" type="curve" smooth="yes"/>
      <point x="1123" y="1320" type="line" smooth="yes"/>
      <point x="1123" y="1365"/>
      <point x="1090" y="1383"/>
      <point x="995" y="1383" type="curve" smooth="yes"/>
    </contour>
  </outline>
</glyph>
<glyph name="lslash" format="1">
  <advance width="1228"/>
  <unicode hex="0142"/>
  <outline>
    <contour>
      <point x="260" y="1312" type="line" smooth="yes"/>
      <point x="215" y="1312"/>
      <point x="197" y="1294"/>
      <point x="197" y="1209" type="curve" smooth="yes"/>
      <point x="197" y="1124"/>
      <point x="215" y="1107"/>
      <point x="260" y="1107" type="curve" smooth="yes"/>
      <point x="493" y="1107" type="line"/>
      <point x="493" y="731" type="line"/>
      <point x="235" y="578" type="line" smooth="yes"/>
      <point x="196" y="555"/>
      <point x="190" y="530"/>
      <point x="233" y="457" type="curve" smooth="yes"/>
      <point x="277" y="384"/>
      <point x="301" y="379"/>
      <point x="339" y="402" type="curve" smooth="yes"/>
      <point x="493" y="493" type="line"/>
      <point x="493" y="205" type="line"/>
      <point x="220" y="205" type="line" smooth="yes"/>
      <point x="175" y="205"/>
      <point x="157" y="187"/>
      <point x="157" y="102" type="curve" smooth="yes"/>
      <point x="157" y="17"/>
      <point x="175" y="0"/>
      <point x="220" y="0" type="curve" smooth="yes"/>
      <point x="1024" y="0" type="line" smooth="yes"/>
      <point x="1069" y="0"/>
      <point x="1087" y="17"/>
      <point x="1087" y="102" type="curve" smooth="yes"/>
      <point x="1087" y="187"/>
      <point x="1069" y="205"/>
      <point x="1024" y="205" type="curve" smooth="yes"/>
      <point x="743" y="205" type="line"/>
      <point x="743" y="641" type="line"/>
      <point x="995" y="791" type="line" smooth="yes"/>
      <point x="1033" y="814"/>
      <point x="1040" y="838"/>
      <point x="997" y="911" type="curve" smooth="yes"/>
      <point x="953" y="984"/>
      <point x="929" y="990"/>
      <point x="890" y="967" type="curve" smooth="yes"/>
      <point x="743" y="879" type="line"/>
      <point x="743" y="1249" type="line" smooth="yes"/>
      <point x="743" y="1294"/>
      <point x="725" y="1312"/>
      <point x="680" y="1312" type="curve" smooth="yes"/>
    </contour>
  </outline>
</glyph>
<glyph name="Eng" format="1">
  <advance width="1228"/>
  <unicode hex="014A"/>
  <outline>
    <contour>
      <point x="828" y="336" type="line"/>
      <point x="828" y="-39" type="line" smooth="yes"/>
      <point x="828" y="-135"/>
      <point x="790" y="-173"/>
      <point x="709" y="-173" type="curve" smooth="yes"/>
      <point x="672" y="-173"/>
      <point x="616" y="-162"/>
      <point x="568" y="-147" type="curve" smooth="yes"/>
      <point x="527" y="-134"/>
      <point x="495" y="-153"/>
      <point x="474" y="-235" type="curve" smooth="yes"/>
      <point x="453" y="-319"/>
      <point x="463" y="-353"/>
      <point x="507" y="-370" type="curve" smooth="yes"/>
      <point x="575" y="-396"/>
      <point x="651" y="-410"/>
      <point x="716" y="-410" type="curve" smooth="yes"/>
      <point x="955" y="-410"/>
      <point x="1078" y="-292"/>
      <point x="1078" y="-55" type="curve" smooth="yes"/>
      <point x="1078" y="336" type="line"/>
    </contour>
    <component base="N"/>
  </outline>
</glyph>
<glyph name="eng" format="1">
  <advance width="1228"/>
  <unicode hex="014B"/>
  <outline>
    <contour>
      <point x="809" y="336" type="line"/>
      <point x="809" y="-39" type="line" smooth="yes"/>
      <point x="809" y="-135"/>
      <point x="771" y="-173"/>
      <point x="690" y="-173" type="curve" smooth="yes"/>
      <point x="653" y="-173"/>
      <point x="597" y="-162"/>
      <point x="549" y="-147" type="curve" smooth="yes"/>
      <point x="508" y="-134"/>
      <point x="476" y="-153"/>
      <point x="455" y="-235" type="curve" smooth="yes"/>
      <point x="434" y="-319"/>
      <point x="444" y="-353"/>
      <point x="488" y="-370" type="curve" smooth="yes"/>
      <point x="556" y="-396"/>
      <point x="632" y="-410"/>
      <point x="697" y="-410" type="curve" smooth="yes"/>
      <point x="936" y="-410"/>
      <point x="1059" y="-292"/>
      <point x="1059" y="-55" type="curve" smooth="yes"/>
      <point x="1059" y="336" type="line"/>
    </contour>
    <component base="n"/>
  </outline>
</glyph>
<glyph name="Scedilla" format="1">
  <advance width="1228"/>
  <unicode hex="015E"/>
  <outline>
    <contour>
      <point x="389" y="79" type="line"/>
      <point x="430" y="43"/>
      <point x="477" y="17"/>
      <point x="529" y="0" type="curve"/>
      <point x="529" y="-180" type="line" smooth="yes"/>
      <point x="529" y="-215"/>
      <point x="548" y="-226"/>
      <point x="571" y="-221" type="curve" smooth="yes"/>
      <point x="631" y="-208"/>
      <point x="694" y="-214"/>
      <point x="694" y="-269" type="curve" smooth="yes"/>
      <point x="694" y="-304"/>
      <point x="666" y="-322"/>
      <point x="608" y="-322" type="curve" smooth="yes"/>
      <point x="541" y="-322"/>
      <point x="497" y="-308"/>
      <point x="445" y="-288" type="curve"/>
      <point x="419" y="-280"/>
      <point x="398" y="-302"/>
      <point x="381" y="-348" type="curve" smooth="yes"/>
      <point x="366" y="-390"/>
      <point x="367" y="-420"/>
      <point x="392" y="-430" type="curve" smooth="yes"/>
      <point x="462" y="-457"/>
      <point x="552" y="-472"/>
      <point x="651" y="-472" type="curve" smooth="yes"/>
      <point x="834" y="-472"/>
      <point x="930" y="-402"/>
      <point x="930" y="-281" type="curve" smooth="yes"/>
      <point x="930" y="-167"/>
      <point x="860" y="-88"/>
      <point x="704" y="-93" type="curve"/>
      <point x="704" y="-21" type="line"/>
      <point x="961" y="-10"/>
      <point x="1087" y="136"/>
      <point x="1087" y="344" type="curve" smooth="yes"/>
      <point x="1087" y="508"/>
      <point x="1019" y="601"/>
      <point x="927" y="657" type="curve" smooth="yes"/>
      <point x="786" y="743"/>
      <point x="586" y="742"/>
      <point x="482" y="783" type="curve" smooth="yes"/>
      <point x="439" y="800"/>
      <point x="412" y="823"/>
      <point x="412" y="863" type="curve" smooth="yes"/>
      <point x="412" y="939"/>
      <point x="469" y="996"/>
      <point x="568" y="996" type="curve" smooth="yes"/>
      <point x="700" y="996"/>
      <point x="799" y="937"/>
      <point x="860" y="841" type="curve" smooth="yes"/>
      <point x="874" y="820"/>
      <point x="897" y="809"/>
      <point x="942" y="809" type="curve" smooth="yes"/>
      <point x="1007" y="809"/>
      <point x="1034" y="827"/>
      <point x="1034" y="872" type="curve" smooth="yes"/>
      <point x="1034" y="1146" type="line" smooth="yes"/>
      <point x="1034" y="1191"/>
      <point x="1001" y="1209"/>
      <point x="916" y="1209" type="curve" smooth="yes"/>
      <point x="831" y="1209"/>
      <point x="804" y="1191"/>
      <point x="804" y="1146" type="curve" smooth="yes"/>
      <point x="804" y="1109" type="line"/>
      <point x="738" y="1173"/>
      <point x="646" y="1209"/>
      <point x="538" y="1209" type="curve" smooth="yes"/>
      <point x="306" y="1209"/>
      <point x="149" y="1059"/>
      <point x="149" y="846" type="curve" smooth="yes"/>
      <point x="149" y="696"/>
      <point x="218" y="616"/>
      <point x="311" y="567" type="curve" smooth="yes"/>
      <point x="447" y="496"/>
      <point x="636" y="493"/>
      <point x="742" y="441" type="curve" smooth="yes"/>
      <point x="791" y="417"/>
      <point x="822" y="383"/>
      <point x="822" y="327" type="curve" smooth="yes"/>
      <point x="822" y="244"/>
      <point x="761" y="191"/>
      <point x="642" y="191" type="curve" smooth="yes"/>
      <point x="507" y="191"/>
      <point x="409" y="263"/>
      <point x="338" y="398" type="curve" smooth="yes"/>
      <point x="323" y="427"/>
      <point x="298" y="438"/>
      <point x="251" y="438" type="curve" smooth="yes"/>
      <point x="186" y="438"/>
      <point x="159" y="420"/>
      <point x="159" y="375" type="curve" smooth="yes"/>
      <point x="159" y="41" type="line" smooth="yes"/>
      <point x="159" y="-4"/>
      <point x="192" y="-22"/>
      <point x="277" y="-22" type="curve" smooth="yes"/>
      <point x="362" y="-22"/>
      <point x="389" y="-4"/>
      <point x="389" y="41" type="curve" smooth="yes"/>
    </contour>
  </outline>
</glyph>
<glyph name="tbar" format="1">
  <advance width="1228"/>
  <unicode hex="0167"/>
  <outline>
    <contour>
      <point x="243" y="545" type="line" smooth="yes"/>
      <point x="198" y="545"/>
      <point x="180" y="527"/>
      <point x="180" y="442" type="curve" smooth="yes"/>
      <point x="180" y="357"/>
      <point x="198" y="340"/>
      <point x="243" y="340" type="curve" smooth="yes"/>
      <point x="353" y="340" type="line"/>
      <point x="359" y="102"/>
      <point x="483" y="-22"/>
      <point x="710" y="-22" type="curve" smooth="yes"/>
      <point x="825" y="-22"/>
      <point x="946" y="21"/>
      <point x="1067" y="82" type="curve" smooth="yes"/>
      <point x="1111" y="104"/>
      <point x="1123" y="138"/>
      <point x="1091" y="217" type="curve" smooth="yes"/>
      <point x="1060" y="296"/>
      <point x="1024" y="301"/>
      <point x="983" y="283" type="curve" smooth="yes"/>
      <point x="895" y="244"/>
      <point x="800" y="205"/>
      <point x="732" y="205" type="curve" smooth="yes"/>
      <point x="658" y="205"/>
      <point x="612" y="247"/>
      <point x="604" y="340" type="curve"/>
      <point x="805" y="340" type="line" smooth="yes"/>
      <point x="850" y="340"/>
      <point x="868" y="357"/>
      <point x="868" y="442" type="curve" smooth="yes"/>
      <point x="868" y="527"/>
      <point x="850" y="545"/>
      <point x="805" y="545" type="curve" smooth="yes"/>
      <point x="603" y="545" type="line"/>
      <point x="603" y="649" type="line"/>
      <point x="974" y="649" type="line" smooth="yes"/>
      <point x="1019" y="649"/>
      <point x="1037" y="671"/>
      <point x="1037" y="756" type="curve" smooth="yes"/>
      <point x="1037" y="841"/>
      <point x="1019" y="864"/>
      <point x="974" y="864" type="curve" smooth="yes"/>
      <point x="603" y="864" type="line"/>
      <point x="603" y="1146" type="line" smooth="yes"/>
      <point x="603" y="1191"/>
      <point x="580" y="1209"/>
      <point x="485" y="1209" type="curve" smooth="yes"/>
      <point x="390" y="1209"/>
      <point x="353" y="1191"/>
      <point x="353" y="1146" type="curve" smooth="yes"/>
      <point x="353" y="864" type="line"/>
      <point x="160" y="864" type="line" smooth="yes"/>
      <point x="115" y="864"/>
      <point x="97" y="841"/>
      <point x="97" y="756" type="curve" smooth="yes"/>
      <point x="97" y="671"/>
      <point x="115" y="649"/>
      <point x="160" y="649" type="curve" smooth="yes"/>
      <point x="353" y="649" type="line"/>
      <point x="353" y="545" type="line"/>
    </contour>
  </outline>
</glyph>
<glyph name="florin" format="1">
  <advance width="1228"/>
  <unicode hex="0192"/>
  <outline>
    <contour>
      <point x="270" y="864" type="line" smooth="yes"/>
      <point x="225" y="864"/>
      <point x="207" y="841"/>
      <point x="207" y="756" type="curve" smooth="yes"/>
      <point x="207" y="671"/>
      <point x="225" y="649"/>
      <point x="270" y="649" type="curve" smooth="yes"/>
      <point x="468" y="649" type="line"/>
      <point x="421" y="114" type="line" smooth="yes"/>
      <point x="411" y="-1"/>
      <point x="359" y="-52"/>
      <point x="277" y="-52" type="curve" smooth="yes"/>
      <point x="227" y="-52"/>
      <point x="171" y="-45"/>
      <point x="111" y="-29" type="curve" smooth="yes"/>
      <point x="68" y="-18"/>
      <point x="30" y="-29"/>
      <point x="11" y="-113" type="curve" smooth="yes"/>
      <point x="-9" y="-202"/>
      <point x="10" y="-232"/>
      <point x="55" y="-246" type="curve" smooth="yes"/>
      <point x="128" y="-268"/>
      <point x="205" y="-279"/>
      <point x="279" y="-279" type="curve" smooth="yes"/>
      <point x="511" y="-279"/>
      <point x="648" y="-148"/>
      <point x="670" y="101" type="curve" smooth="yes"/>
      <point x="718" y="649" type="line"/>
      <point x="974" y="649" type="line" smooth="yes"/>
      <point x="1019" y="649"/>
      <point x="1037" y="671"/>
      <point x="1037" y="756" type="curve" smooth="yes"/>
      <point x="1037" y="841"/>
      <point x="1019" y="864"/>
      <point x="974" y="864" type="curve" smooth="yes"/>
      <point x="737" y="864" type="line"/>
      <point x="743" y="924" type="line" smooth="yes"/>
      <point x="753" y="1039"/>
      <point x="805" y="1090"/>
      <point x="887" y="1090" type="curve" smooth="yes"/>
      <point x="937" y="1090"/>
      <point x="993" y="1083"/>
      <point x="1053" y="1067" type="curve" smooth="yes"/>
      <point x="1096" y="1056"/>
      <point x="1134" y="1067"/>
      <point x="1153" y="1151" type="curve" smooth="yes"/>
      <point x="1173" y="1240"/>
      <point x="1154" y="1270"/>
      <point x="1109" y="1284" type="curve" smooth="yes"/>
      <point x="1036" y="1306"/>
      <point x="959" y="1317"/>
      <point x="885" y="1317" type="curve" smooth="yes"/>
      <point x="653" y="1317"/>
      <point x="516" y="1186"/>
      <point x="494" y="937" type="curve" smooth="yes"/>
      <point x="487" y="864" type="line"/>
    </contour>
  </outline>
</glyph>
<glyph name="dotlessj" format="1">
  <advance width="1228"/>
  <unicode hex="0237"/>
  <outline>
    <contour>
      <point x="290" y="924" type="line" smooth="yes"/>
      <point x="245" y="924"/>
      <point x="227" y="906"/>
      <point x="227" y="821" type="curve" smooth="yes"/>
      <point x="227" y="736"/>
      <point x="245" y="719"/>
      <point x="290" y="719" type="curve" smooth="yes"/>
      <point x="673" y="719" type="line"/>
      <point x="673" y="-22" type="line" smooth="yes"/>
      <point x="673" y="-137"/>
      <point x="626" y="-188"/>
      <point x="544" y="-188" type="curve" smooth="yes"/>
      <point x="476" y="-188"/>
      <point x="381" y="-149"/>
      <point x="293" y="-110" type="curve" smooth="yes"/>
      <point x="240" y="-88"/>
      <point x="208" y="-110"/>
      <point x="177" y="-183" type="curve" smooth="yes"/>
      <point x="147" y="-254"/>
      <point x="155" y="-295"/>
      <point x="204" y="-320" type="curve" smooth="yes"/>
      <point x="325" y="-381"/>
      <point x="451" y="-415"/>
      <point x="566" y="-415" type="curve" smooth="yes"/>
      <point x="798" y="-415"/>
      <point x="923" y="-284"/>
      <point x="923" y="-35" type="curve" smooth="yes"/>
      <point x="923" y="861" type="line" smooth="yes"/>
      <point x="923" y="906"/>
      <point x="905" y="924"/>
      <point x="860" y="924" type="curve" smooth="yes"/>
    </contour>
  </outline>
</glyph>
<glyph name="caron" format="1">
  <advance width="1228"/>
  <unicode hex="02C7"/>
  <outline>
    <contour>
      <point x="614" y="1250" type="line"/>
      <point x="335" y="1384" type="line" smooth="yes"/>
      <point x="310" y="1396"/>
      <point x="286" y="1384"/>
      <point x="268" y="1360" type="curve" smooth="yes"/>
      <point x="249" y="1335"/>
      <point x="249" y="1307"/>
      <point x="272" y="1286" type="curve" smooth="yes"/>
      <point x="559" y="1025" type="line" smooth="yes"/>
      <point x="573" y="1012"/>
      <point x="593" y="1007"/>
      <point x="614" y="1007" type="curve" smooth="yes"/>
      <point x="635" y="1007"/>
      <point x="655" y="1012"/>
      <point x="669" y="1025" type="curve" smooth="yes"/>
      <point x="956" y="1286" type="line" smooth="yes"/>
      <point x="979" y="1307"/>
      <point x="979" y="1335"/>
      <point x="960" y="1360" type="curve" smooth="yes"/>
      <point x="942" y="1384"/>
      <point x="918" y="1396"/>
      <point x="893" y="1384" type="curve" smooth="yes"/>
    </contour>
  </outline>
</glyph>
<glyph name="breve" format="1">
  <advance width="1228"/>
  <unicode hex="02D8"/>
  <outline>
    <contour>
      <point x="880" y="1385"/>
      <point x="864" y="1379"/>
      <point x="855" y="1365" type="curve" smooth="yes"/>
      <point x="809" y="1290"/>
      <point x="742" y="1245"/>
      <point x="614" y="1245" type="curve" smooth="yes"/>
      <point x="486" y="1245"/>
      <point x="419" y="1290"/>
      <point x="373" y="1365" type="curve" smooth="yes"/>
      <point x="364" y="1379"/>
      <point x="348" y="1385"/>
      <point x="329" y="1385" type="curve" smooth="yes"/>
      <point x="280" y="1385"/>
      <point x="214" y="1345"/>
      <point x="227" y="1298" type="curve" smooth="yes"/>
      <point x="270" y="1140"/>
      <point x="397" y="1041"/>
      <point x="614" y="1041" type="curve" smooth="yes"/>
      <point x="831" y="1041"/>
      <point x="958" y="1140"/>
      <point x="1001" y="1298" type="curve" smooth="yes"/>
      <point x="1014" y="1345"/>
      <point x="948" y="1385"/>
      <point x="899" y="1385" type="curve" smooth="yes"/>
    </contour>
  </outline>
</glyph>
<glyph name="dotaccent" format="1">
  <advance width="1228"/>
  <unicode hex="02D9"/>
  <outline>
    <contour>
      <point x="434" y="1127"/>
      <point x="515" y="1046"/>
      <point x="614" y="1046" type="curve" smooth="yes"/>
      <point x="713" y="1046"/>
      <point x="794" y="1127"/>
      <point x="794" y="1226" type="curve" smooth="yes"/>
      <point x="794" y="1325"/>
      <point x="713" y="1406"/>
      <point x="614" y="1406" type="curve" smooth="yes"/>
      <point x="515" y="1406"/>
      <point x="434" y="1325"/>
      <point x="434" y="1226" type="curve" smooth="yes"/>
    </contour>
  </outline>
</glyph>
<glyph name="ring" format="1">
  <advance width="1228"/>
  <unicode hex="02DA"/>
  <outline>
    <contour>
      <point x="472" y="1557"/>
      <point x="355" y="1440"/>
      <point x="355" y="1295" type="curve" smooth="yes"/>
      <point x="355" y="1150"/>
      <point x="472" y="1033"/>
      <point x="617" y="1033" type="curve" smooth="yes"/>
      <point x="762" y="1033"/>
      <point x="879" y="1150"/>
      <point x="879" y="1295" type="curve" smooth="yes"/>
      <point x="879" y="1440"/>
      <point x="762" y="1557"/>
      <point x="617" y="1557" type="curve" smooth="yes"/>
    </contour>
    <contour>
      <point x="674" y="1398"/>
      <point x="720" y="1352"/>
      <point x="720" y="1295" type="curve" smooth="yes"/>
      <point x="720" y="1238"/>
      <point x="674" y="1192"/>
      <point x="617" y="1192" type="curve" smooth="yes"/>
      <point x="560" y="1192"/>
      <point x="514" y="1238"/>
      <point x="514" y="1295" type="curve" smooth="yes"/>
      <point x="514" y="1352"/>
      <point x="560" y="1398"/>
      <point x="617" y="1398" type="curve" smooth="yes"/>
    </contour>
  </outline>
</glyph>
<glyph name="ogonek" format="1">
  <advance width="1228"/>
  <unicode hex="02DB"/>
  <outline>
    <contour>
      <point x="578" y="28" type="line"/>
      <point x="451" y="-51"/>
      <point x="349" y="-139"/>
      <point x="349" y="-269" type="curve" smooth="yes"/>
      <point x="349" y="-402"/>
      <point x="439" y="-472"/>
      <point x="595" y="-472" type="curve" smooth="yes"/>
      <point x="668" y="-472"/>
      <point x="744" y="-459"/>
      <point x="811" y="-438" type="curve" smooth="yes"/>
      <point x="839" y="-429"/>
      <point x="852" y="-399"/>
      <point x="848" y="-353" type="curve" smooth="yes"/>
      <point x="844" y="-307"/>
      <point x="826" y="-281"/>
      <point x="800" y="-285" type="curve" smooth="yes"/>
      <point x="757" y="-292"/>
      <point x="719" y="-298"/>
      <point x="680" y="-298" type="curve" smooth="yes"/>
      <point x="623" y="-298"/>
      <point x="592" y="-278"/>
      <point x="592" y="-231" type="curve" smooth="yes"/>
      <point x="592" y="-156"/>
      <point x="667" y="-67"/>
      <point x="785" y="28" type="curve"/>
    </contour>
  </outline>
</glyph>
<glyph name="tilde" format="1">
  <advance width="1228"/>
  <unicode hex="02DC"/>
  <outline>
    <contour>
      <point x="668" y="1250"/>
      <point x="579" y="1324"/>
      <point x="469" y="1324" type="curve" smooth="yes"/>
      <point x="409" y="1324"/>
      <point x="343" y="1300"/>
      <point x="264" y="1231" type="curve" smooth="yes"/>
      <point x="239" y="1210"/>
      <point x="243" y="1174"/>
      <point x="262" y="1139" type="curve" smooth="yes"/>
      <point x="282" y="1102"/>
      <point x="309" y="1085"/>
      <point x="338" y="1101" type="curve" smooth="yes"/>
      <point x="380" y="1123"/>
      <point x="424" y="1132"/>
      <point x="462" y="1132" type="curve" smooth="yes"/>
      <point x="560" y="1132"/>
      <point x="649" y="1058"/>
      <point x="760" y="1058" type="curve" smooth="yes"/>
      <point x="819" y="1058"/>
      <point x="885" y="1084"/>
      <point x="963" y="1151" type="curve" smooth="yes"/>
      <point x="989" y="1172"/>
      <point x="985" y="1208"/>
      <point x="967" y="1244" type="curve" smooth="yes"/>
      <point x="946" y="1280"/>
      <point x="919" y="1298"/>
      <point x="889" y="1281" type="curve" smooth="yes"/>
      <point x="847" y="1259"/>
      <point x="803" y="1250"/>
      <point x="767" y="1250" type="curve" smooth="yes"/>
    </contour>
  </outline>
</glyph>
<glyph name="hungarumlaut" format="1">
  <advance width="1228"/>
  <unicode hex="02DD"/>
  <outline>
    <contour>
      <point x="969" y="1383"/>
      <point x="934" y="1372"/>
      <point x="913" y="1350" type="curve" smooth="yes"/>
      <point x="715" y="1140" type="line" smooth="yes"/>
      <point x="707" y="1132"/>
      <point x="703" y="1121"/>
      <point x="703" y="1111" type="curve" smooth="yes"/>
      <point x="703" y="1080"/>
      <point x="738" y="1053"/>
      <point x="785" y="1053" type="curve" smooth="yes"/>
      <point x="806" y="1053"/>
      <point x="824" y="1058"/>
      <point x="835" y="1066" type="curve" smooth="yes"/>
      <point x="1123" y="1267" type="line" smooth="yes"/>
      <point x="1135" y="1275"/>
      <point x="1142" y="1288"/>
      <point x="1142" y="1301" type="curve" smooth="yes"/>
      <point x="1142" y="1332"/>
      <point x="1093" y="1383"/>
      <point x="1008" y="1383" type="curve" smooth="yes"/>
    </contour>
    <contour>
      <point x="569" y="1383"/>
      <point x="534" y="1372"/>
      <point x="513" y="1350" type="curve" smooth="yes"/>
      <point x="315" y="1140" type="line" smooth="yes"/>
      <point x="307" y="1132"/>
      <point x="303" y="1121"/>
      <point x="303" y="1111" type="curve" smooth="yes"/>
      <point x="303" y="1080"/>
      <point x="338" y="1053"/>
      <point x="385" y="1053" type="curve" smooth="yes"/>
      <point x="406" y="1053"/>
      <point x="424" y="1058"/>
      <point x="435" y="1066" type="curve" smooth="yes"/>
      <point x="723" y="1267" type="line" smooth="yes"/>
      <point x="735" y="1275"/>
      <point x="742" y="1288"/>
      <point x="742" y="1301" type="curve" smooth="yes"/>
      <point x="742" y="1332"/>
      <point x="693" y="1383"/>
      <point x="608" y="1383" type="curve" smooth="yes"/>
    </contour>
  </outline>
</glyph>
<glyph name="uni0326" format="1">
  <advance width="1228"/>
  <unicode hex="0326"/>
  <outline>
    <contour>
      <point x="767" y="-189" type="line" smooth="yes"/>
      <point x="780" y="-166"/>
      <point x="770" y="-146"/>
      <point x="747" y="-146" type="curve" smooth="yes"/>
      <point x="525" y="-146" type="line" smooth="yes"/>
      <point x="506" y="-146"/>
      <point x="492" y="-156"/>
      <point x="489" y="-173" type="curve" smooth="yes"/>
      <point x="436" y="-486" type="line" smooth="yes"/>
      <point x="429" y="-529"/>
      <point x="457" y="-545"/>
      <point x="502" y="-545" type="curve" smooth="yes"/>
      <point x="545" y="-545"/>
      <point x="576" y="-532"/>
      <point x="593" y="-502" type="curve" smooth="yes"/>
    </contour>
  </outline>
</glyph>
<glyph name="Delta" format="1">
  <advance width="1228"/>
  <unicode hex="0394"/>
  <outline>
    <contour>
      <point x="524" y="1209"/>
      <point x="480" y="1192"/>
      <point x="465" y="1144" type="curve" smooth="yes"/>
      <point x="163" y="205" type="line"/>
      <point x="83" y="205" type="line" smooth="yes"/>
      <point x="38" y="205"/>
      <point x="20" y="187"/>
      <point x="20" y="102" type="curve" smooth="yes"/>
      <point x="20" y="17"/>
      <point x="38" y="0"/>
      <point x="83" y="0" type="curve" smooth="yes"/>
      <point x="1145" y="0" type="line" smooth="yes"/>
      <point x="1190" y="0"/>
      <point x="1208" y="17"/>
      <point x="1208" y="102" type="curve" smooth="yes"/>
      <point x="1208" y="187"/>
      <point x="1190" y="205"/>
      <point x="1145" y="205" type="curve" smooth="yes"/>
      <point x="1064" y="205" type="line"/>
      <point x="767" y="1144" type="line" smooth="yes"/>
      <point x="752" y="1190"/>
      <point x="710" y="1209"/>
      <point x="617" y="1209" type="curve" smooth="yes"/>
    </contour>
    <contour>
      <point x="806" y="205" type="line"/>
      <point x="422" y="205" type="line"/>
      <point x="614" y="852" type="line"/>
      <point x="618" y="852" type="line"/>
    </contour>
  </outline>
</glyph>
<glyph name="Omega" format="1">
  <advance width="1228"/>
  <unicode hex="03A9"/>
  <outline>
    <contour>
      <point x="284" y="1209"/>
      <point x="63" y="994"/>
      <point x="63" y="644" type="curve" smooth="yes"/>
      <point x="63" y="472"/>
      <point x="138" y="336"/>
      <point x="260" y="235" type="curve"/>
      <point x="107" y="235" type="line" smooth="yes"/>
      <point x="62" y="235"/>
      <point x="44" y="212"/>
      <point x="44" y="117" type="curve" smooth="yes"/>
      <point x="44" y="22"/>
      <point x="62" y="0"/>
      <point x="107" y="0" type="curve" smooth="yes"/>
      <point x="477" y="0" type="line" smooth="yes"/>
      <point x="522" y="0"/>
      <point x="540" y="28"/>
      <point x="540" y="153" type="curve" smooth="yes"/>
      <point x="540" y="219"/>
      <point x="535" y="249"/>
      <point x="512" y="264" type="curve" smooth="yes"/>
      <point x="383" y="350"/>
      <point x="331" y="473"/>
      <point x="331" y="644" type="curve" smooth="yes"/>
      <point x="331" y="862"/>
      <point x="427" y="982"/>
      <point x="614" y="982" type="curve" smooth="yes"/>
      <point x="801" y="982"/>
      <point x="897" y="862"/>
      <point x="897" y="644" type="curve" smooth="yes"/>
      <point x="897" y="473"/>
      <point x="845" y="350"/>
      <point x="716" y="264" type="curve" smooth="yes"/>
      <point x="693" y="249"/>
      <point x="688" y="219"/>
      <point x="688" y="153" type="curve" smooth="yes"/>
      <point x="688" y="28"/>
      <point x="706" y="0"/>
      <point x="751" y="0" type="curve" smooth="yes"/>
      <point x="1121" y="0" type="line" smooth="yes"/>
      <point x="1166" y="0"/>
      <point x="1184" y="22"/>
      <point x="1184" y="117" type="curve" smooth="yes"/>
      <point x="1184" y="212"/>
      <point x="1166" y="235"/>
      <point x="1121" y="235" type="curve" smooth="yes"/>
      <point x="968" y="235" type="line"/>
      <point x="1090" y="336"/>
      <point x="1165" y="472"/>
      <point x="1165" y="644" type="curve" smooth="yes"/>
      <point x="1165" y="994"/>
      <point x="944" y="1209"/>
      <point x="614" y="1209" type="curve" smooth="yes"/>
    </contour>
  </outline>
</glyph>
<glyph name="pi" format="1">
  <advance width="1228"/>
  <unicode hex="03C0"/>
  <outline>
    <contour>
      <point x="133" y="924" type="line" smooth="yes"/>
      <point x="88" y="924"/>
      <point x="70" y="901"/>
      <point x="70" y="811" type="curve" smooth="yes"/>
      <point x="70" y="721"/>
      <point x="88" y="699"/>
      <point x="133" y="699" type="curve" smooth="yes"/>
      <point x="216" y="699" type="line"/>
      <point x="216" y="63" type="line" smooth="yes"/>
      <point x="216" y="18"/>
      <point x="234" y="0"/>
      <point x="279" y="0" type="curve" smooth="yes"/>
      <point x="403" y="0" type="line" smooth="yes"/>
      <point x="448" y="0"/>
      <point x="466" y="18"/>
      <point x="466" y="63" type="curve" smooth="yes"/>
      <point x="466" y="699" type="line"/>
      <point x="762" y="699" type="line"/>
      <point x="762" y="63" type="line" smooth="yes"/>
      <point x="762" y="18"/>
      <point x="780" y="0"/>
      <point x="825" y="0" type="curve" smooth="yes"/>
      <point x="949" y="0" type="line" smooth="yes"/>
      <point x="994" y="0"/>
      <point x="1012" y="18"/>
      <point x="1012" y="63" type="curve" smooth="yes"/>
      <point x="1012" y="699" type="line"/>
      <point x="1095" y="699" type="line" smooth="yes"/>
      <point x="1140" y="699"/>
      <point x="1158" y="721"/>
      <point x="1158" y="811" type="curve" smooth="yes"/>
      <point x="1158" y="901"/>
      <point x="1140" y="924"/>
      <point x="1095" y="924" type="curve" smooth="yes"/>
    </contour>
  </outline>
</glyph>
<glyph name="emdash" format="1">
  <advance width="1228"/>
  <unicode hex="2014"/>
  <outline>
    <contour>
      <point x="33" y="695" type="line" smooth="yes"/>
      <point x="-12" y="695"/>
      <point x="-30" y="677"/>
      <point x="-30" y="582" type="curve" smooth="yes"/>
      <point x="-30" y="487"/>
      <point x="-12" y="470"/>
      <point x="33" y="470" type="curve" smooth="yes"/>
      <point x="1195" y="470" type="line" smooth="yes"/>
      <point x="1240" y="470"/>
      <point x="1258" y="487"/>
      <point x="1258" y="582" type="curve" smooth="yes"/>
      <point x="1258" y="677"/>
      <point x="1240" y="695"/>
      <point x="1195" y="695" type="curve" smooth="yes"/>
    </contour>
  </outline>
</glyph>
<glyph name="quoteright" format="1">
  <advance width="1228"/>
  <unicode hex="2019"/>
  <outline>
    <contour>
      <point x="550" y="1269" type="line" smooth="yes"/>
      <point x="522" y="1269"/>
      <point x="503" y="1255"/>
      <point x="498" y="1229" type="curve" smooth="yes"/>
      <point x="414" y="757" type="line" smooth="yes"/>
      <point x="403" y="695"/>
      <point x="428" y="671"/>
      <point x="494" y="671" type="curve" smooth="yes"/>
      <point x="550" y="671"/>
      <point x="578" y="688"/>
      <point x="600" y="732" type="curve" smooth="yes"/>
      <point x="837" y="1206" type="line" smooth="yes"/>
      <point x="854" y="1241"/>
      <point x="842" y="1269"/>
      <point x="809" y="1269" type="curve" smooth="yes"/>
    </contour>
  </outline>
</glyph>
<glyph name="quotesinglbase" format="1">
  <advance width="1228"/>
  <unicode hex="201A"/>
  <outline>
    <contour>
      <point x="550" y="304" type="line" smooth="yes"/>
      <point x="522" y="304"/>
      <point x="503" y="290"/>
      <point x="498" y="264" type="curve" smooth="yes"/>
      <point x="414" y="-208" type="line" smooth="yes"/>
      <point x="403" y="-270"/>
      <point x="428" y="-294"/>
      <point x="494" y="-294" type="curve" smooth="yes"/>
      <point x="550" y="-294"/>
      <point x="578" y="-277"/>
      <point x="600" y="-233" type="curve" smooth="yes"/>
      <point x="837" y="241" type="line" smooth="yes"/>
      <point x="854" y="276"/>
      <point x="842" y="304"/>
      <point x="809" y="304" type="curve" smooth="yes"/>
    </contour>
  </outline>
</glyph>
<glyph name="quotedblleft" format="1">
  <advance width="1228"/>
  <unicode hex="201C"/>
  <outline>
    <contour>
      <point x="943" y="1307"/>
      <point x="915" y="1290"/>
      <point x="893" y="1246" type="curve" smooth="yes"/>
      <point x="656" y="772" type="line" smooth="yes"/>
      <point x="639" y="737"/>
      <point x="651" y="709"/>
      <point x="684" y="709" type="curve" smooth="yes"/>
      <point x="943" y="709" type="line" smooth="yes"/>
      <point x="971" y="709"/>
      <point x="990" y="723"/>
      <point x="995" y="749" type="curve" smooth="yes"/>
      <point x="1079" y="1221" type="line" smooth="yes"/>
      <point x="1090" y="1283"/>
      <point x="1065" y="1307"/>
      <point x="999" y="1307" type="curve" smooth="yes"/>
    </contour>
    <contour>
      <point x="383" y="1307"/>
      <point x="355" y="1290"/>
      <point x="333" y="1246" type="curve" smooth="yes"/>
      <point x="96" y="772" type="line" smooth="yes"/>
      <point x="79" y="737"/>
      <point x="91" y="709"/>
      <point x="124" y="709" type="curve" smooth="yes"/>
      <point x="383" y="709" type="line" smooth="yes"/>
      <point x="411" y="709"/>
      <point x="430" y="723"/>
      <point x="435" y="749" type="curve" smooth="yes"/>
      <point x="519" y="1221" type="line" smooth="yes"/>
      <point x="530" y="1283"/>
      <point x="505" y="1307"/>
      <point x="439" y="1307" type="curve" smooth="yes"/>
    </contour>
  </outline>
</glyph>
<glyph name="quotedblright" format="1">
  <advance width="1228"/>
  <unicode hex="201D"/>
  <outline>
    <contour>
      <point x="270" y="1269" type="line" smooth="yes"/>
      <point x="242" y="1269"/>
      <point x="223" y="1255"/>
      <point x="218" y="1229" type="curve" smooth="yes"/>
      <point x="134" y="757" type="line" smooth="yes"/>
      <point x="123" y="695"/>
      <point x="148" y="671"/>
      <point x="214" y="671" type="curve" smooth="yes"/>
      <point x="270" y="671"/>
      <point x="298" y="688"/>
      <point x="320" y="732" type="curve" smooth="yes"/>
      <point x="557" y="1206" type="line" smooth="yes"/>
      <point x="574" y="1241"/>
      <point x="562" y="1269"/>
      <point x="529" y="1269" type="curve" smooth="yes"/>
    </contour>
    <contour>
      <point x="830" y="1269" type="line" smooth="yes"/>
      <point x="802" y="1269"/>
      <point x="783" y="1255"/>
      <point x="778" y="1229" type="curve" smooth="yes"/>
      <point x="694" y="757" type="line" smooth="yes"/>
      <point x="683" y="695"/>
      <point x="708" y="671"/>
      <point x="774" y="671" type="curve" smooth="yes"/>
      <point x="830" y="671"/>
      <point x="858" y="688"/>
      <point x="880" y="732" type="curve" smooth="yes"/>
      <point x="1117" y="1206" type="line" smooth="yes"/>
      <point x="1134" y="1241"/>
      <point x="1122" y="1269"/>
      <point x="1089" y="1269" type="curve" smooth="yes"/>
    </contour>
  </outline>
</glyph>
<glyph name="quotedblbase" format="1">
  <advance width="1228"/>
  <unicode hex="201E"/>
  <outline>
    <contour>
      <point x="270" y="304" type="line" smooth="yes"/>
      <point x="242" y="304"/>
      <point x="223" y="290"/>
      <point x="218" y="264" type="curve" smooth="yes"/>
      <point x="134" y="-208" type="line" smooth="yes"/>
      <point x="123" y="-270"/>
      <point x="148" y="-294"/>
      <point x="214" y="-294" type="curve" smooth="yes"/>
      <point x="270" y="-294"/>
      <point x="298" y="-277"/>
      <point x="320" y="-233" type="curve" smooth="yes"/>
      <point x="557" y="241" type="line" smooth="yes"/>
      <point x="574" y="276"/>
      <point x="562" y="304"/>
      <point x="529" y="304" type="curve" smooth="yes"/>
    </contour>
    <contour>
      <point x="830" y="304" type="line" smooth="yes"/>
      <point x="802" y="304"/>
      <point x="783" y="290"/>
      <point x="778" y="264" type="curve" smooth="yes"/>
      <point x="694" y="-208" type="line" smooth="yes"/>
      <point x="683" y="-270"/>
      <point x="708" y="-294"/>
      <point x="774" y="-294" type="curve" smooth="yes"/>
      <point x="830" y="-294"/>
      <point x="858" y="-277"/>
      <point x="880" y="-233" type="curve" smooth="yes"/>
      <point x="1117" y="241" type="line" smooth="yes"/>
      <point x="1134" y="276"/>
      <point x="1122" y="304"/>
      <point x="1089" y="304" type="curve" smooth="yes"/>
    </contour>
  </outline>
</glyph>
